HubotSans-RegularNarrow.ufo
<glyph name="exclam" format="2">
  <advance width="182"/>
  <unicode hex="0021"/>
  <outline>
    <contour>
      <point x="73" y="173" type="line"/>
      <point x="109" y="173" type="line"/>
      <point x="129" y="530" type="line"/>
      <point x="129" y="729" type="line"/>
      <point x="54" y="729" type="line"/>
      <point x="54" y="530" type="line"/>
    </contour>
    <contour>
      <point x="49" y="0" type="line"/>
      <point x="132" y="0" type="line"/>
      <point x="132" y="91" type="line"/>
      <point x="49" y="91" type="line"/>
    </contour>
  </outline>
</glyph>
<glyph name="numbersign" format="2">
  <advance width="501"/>
  <unicode hex="0023"/>
  <outline>
    <contour>
      <point x="125" y="0" type="line"/>
      <point x="191" y="0" type="line"/>
      <point x="191" y="204" type="line"/>
      <point x="316" y="204" type="line"/>
      <point x="316" y="0" type="line"/>
      <point x="381" y="0" type="line"/>
      <point x="381" y="204" type="line"/>
      <point x="475" y="204" type="line"/>
      <point x="475" y="262" type="line"/>
      <point x="381" y="262" type="line"/>
      <point x="381" y="484" type="line"/>
      <point x="475" y="484" type="line"/>
      <point x="475" y="542" type="line"/>
      <point x="381" y="542" type="line"/>
      <point x="381" y="729" type="line"/>
      <point x="316" y="729" type="line"/>
      <point x="316" y="542" type="line"/>
      <point x="191" y="542" type="line"/>
      <point x="191" y="729" type="line"/>
      <point x="125" y="729" type="line"/>
      <point x="125" y="542" type="line"/>
      <point x="27" y="542" type="line"/>
      <point x="27" y="484" type="line"/>
      <point x="125" y="484" type="line"/>
      <point x="125" y="262" type="line"/>
      <point x="27" y="262" type="line"/>
      <point x="27" y="204" type="line"/>
      <point x="125" y="204" type="line"/>
    </contour>
    <contour>
      <point x="191" y="262" type="line"/>
      <point x="191" y="484" type="line"/>
      <point x="316" y="484" type="line"/>
      <point x="316" y="262" type="line"/>
    </contour>
  </outline>
</glyph>
<glyph name="ampersand" format="2">
  <advance width="506"/>
  <unicode hex="0026"/>
  <outline>
    <contour>
      <point x="184" y="-7" type="curve" smooth="yes"/>
      <point x="248" y="-7"/>
      <point x="299" y="21"/>
      <point x="331" y="81" type="curve"/>
      <point x="379" y="0" type="line"/>
      <point x="464" y="0" type="line"/>
      <point x="374" y="146" type="line"/>
      <point x="387" y="184"/>
      <point x="397" y="232"/>
      <point x="400" y="284" type="curve"/>
      <point x="467" y="284" type="line"/>
      <point x="467" y="346" type="line"/>
      <point x="346" y="346" type="line"/>
      <point x="346" y="330" type="line" smooth="yes"/>
      <point x="345" y="283"/>
      <point x="341" y="242"/>
      <point x="334" y="208" type="curve"/>
      <point x="225" y="392" type="line"/>
      <point x="292" y="436"/>
      <point x="336" y="497"/>
      <point x="336" y="585" type="curve" smooth="yes"/>
      <point x="336" y="603" type="line" smooth="yes"/>
      <point x="336" y="686"/>
      <point x="288" y="736"/>
      <point x="210" y="736" type="curve" smooth="yes"/>
      <point x="129" y="736"/>
      <point x="77" y="681"/>
      <point x="77" y="599" type="curve" smooth="yes"/>
      <point x="77" y="569" type="line" smooth="yes"/>
      <point x="77" y="513"/>
      <point x="99" y="461"/>
      <point x="137" y="396" type="curve"/>
      <point x="137" y="390" type="line"/>
      <point x="69" y="345"/>
      <point x="43" y="282"/>
      <point x="43" y="197" type="curve" smooth="yes"/>
      <point x="43" y="148" type="line" smooth="yes"/>
      <point x="43" y="50"/>
      <point x="97" y="-7"/>
    </contour>
    <contour>
      <point x="200" y="54" type="curve" smooth="yes"/>
      <point x="148" y="54"/>
      <point x="118" y="89"/>
      <point x="118" y="158" type="curve" smooth="yes"/>
      <point x="118" y="208" type="line" smooth="yes"/>
      <point x="118" y="277"/>
      <point x="138" y="314"/>
      <point x="172" y="340" type="curve"/>
      <point x="296" y="135" type="line"/>
      <point x="277" y="82"/>
      <point x="245" y="54"/>
    </contour>
    <contour>
      <point x="196" y="433" type="curve"/>
      <point x="164" y="492"/>
      <point x="151" y="532"/>
      <point x="151" y="571" type="curve" smooth="yes"/>
      <point x="151" y="602" type="line" smooth="yes"/>
      <point x="151" y="652"/>
      <point x="175" y="677"/>
      <point x="211" y="677" type="curve" smooth="yes"/>
      <point x="248" y="677"/>
      <point x="268" y="652"/>
      <point x="268" y="602" type="curve" smooth="yes"/>
      <point x="268" y="583" type="line" smooth="yes"/>
      <point x="268" y="530"/>
      <point x="252" y="484"/>
    </contour>
  </outline>
</glyph>
<glyph name="quotesingle" format="2">
  <advance width="140"/>
  <unicode hex="0027"/>
  <anchor x="-22" y="0" name="#entry"/>
  <anchor x="128" y="0" name="#exit"/>
  <outline>
    <contour>
      <point x="52" y="423" type="line"/>
      <point x="88" y="423" type="line"/>
      <point x="104" y="590" type="line"/>
      <point x="104" y="729" type="line"/>
      <point x="36" y="729" type="line"/>
      <point x="36" y="590" type="line"/>
    </contour>
  </outline>
</glyph>
<glyph name="parenleft" format="2">
  <advance width="256"/>
  <unicode hex="0028"/>
  <outline>
    <contour>
      <point x="167" y="-167" type="curve"/>
      <point x="226" y="-167" type="line"/>
      <point x="165" y="-70"/>
      <point x="111" y="112"/>
      <point x="111" y="313" type="curve" smooth="yes"/>
      <point x="111" y="505"/>
      <point x="163" y="691"/>
      <point x="226" y="793" type="curve"/>
      <point x="167" y="793" type="line"/>
      <point x="90" y="690"/>
      <point x="39" y="502"/>
      <point x="39" y="313" type="curve" smooth="yes"/>
      <point x="39" y="124"/>
      <point x="90" y="-64"/>
    </contour>
  </outline>
</glyph>
<glyph name="asterisk" format="2">
  <advance width="263"/>
  <unicode hex="002A"/>
  <outline>
    <contour>
      <point x="113" y="481" type="line"/>
      <point x="149" y="481" type="line"/>
      <point x="149" y="530" type="line"/>
      <point x="140" y="588" type="line"/>
      <point x="188" y="551" type="line"/>
      <point x="230" y="526" type="line"/>
      <point x="248" y="559" type="line"/>
      <point x="206" y="583" type="line"/>
      <point x="153" y="605" type="line"/>
      <point x="206" y="628" type="line"/>
      <point x="247" y="651" type="line"/>
      <point x="230" y="683" type="line"/>
      <point x="188" y="660" type="line"/>
      <point x="140" y="623" type="line"/>
      <point x="149" y="682" type="line"/>
      <point x="149" y="729" type="line"/>
      <point x="113" y="729" type="line"/>
      <point x="113" y="682" type="line"/>
      <point x="123" y="623" type="line"/>
      <point x="75" y="660" type="line"/>
      <point x="33" y="683" type="line"/>
      <point x="15" y="651" type="line"/>
      <point x="56" y="628" type="line"/>
      <point x="110" y="605" type="line"/>
      <point x="56" y="583" type="line"/>
      <point x="14" y="559" type="line"/>
      <point x="33" y="526" type="line"/>
      <point x="75" y="551" type="line"/>
      <point x="123" y="588" type="line"/>
      <point x="113" y="530" type="line"/>
    </contour>
  </outline>
</glyph>
<glyph name="plus" format="2">
  <advance width="500"/>
  <unicode hex="002B"/>
  <outline>
    <contour>
      <point x="217" y="165" type="line"/>
      <point x="282" y="165" type="line"/>
      <point x="282" y="565" type="line"/>
      <point x="217" y="565" type="line"/>
    </contour>
    <contour>
      <point x="49" y="335" type="line"/>
      <point x="451" y="335" type="line"/>
      <point x="451" y="395" type="line"/>
      <point x="49" y="395" type="line"/>
    </contour>
  </outline>
</glyph>
<glyph name="hyphen" format="2">
  <advance width="288"/>
  <unicode hex="002D"/>
  <outline>
    <contour>
      <point x="35" y="290" type="line"/>
      <point x="253" y="290" type="line"/>
      <point x="253" y="356" type="line"/>
      <point x="35" y="356" type="line"/>
    </contour>
  </outline>
</glyph>
<glyph name="period" format="2">
  <advance width="162"/>
  <unicode hex="002E"/>
  <anchor x="-8" y="0" name="#entry"/>
  <anchor x="157" y="0" name="#exit"/>
  <anchor x="81" y="105" name="_top"/>
  <anchor x="81" y="524" name="top"/>
  <outline>
    <contour>
      <point x="35" y="0" type="line"/>
      <point x="127" y="0" type="line"/>
      <point x="127" y="105" type="line"/>
      <point x="35" y="105" type="line"/>
    </contour>
  </outline>
</glyph>
<glyph name="slash" format="2">
  <advance width="302"/>
  <unicode hex="002F"/>
  <outline>
    <contour>
      <point x="7" y="-82" type="line"/>
      <point x="74" y="-82" type="line"/>
      <point x="276" y="729" type="line"/>
      <point x="208" y="729" type="line"/>
    </contour>
  </outline>
</glyph>
<glyph name="zero" format="2">
  <advance width="446"/>
  <unicode hex="0030"/>
  <note>
zero
</note>
  <outline>
    <contour>
      <point x="224" y="-7" type="curve" smooth="yes"/>
      <point x="334" y="-7"/>
      <point x="395" y="71"/>
      <point x="395" y="200" type="curve" smooth="yes"/>
      <point x="395" y="529" type="line" smooth="yes"/>
      <point x="395" y="658"/>
      <point x="334" y="736"/>
      <point x="224" y="736" type="curve" smooth="yes"/>
      <point x="113" y="736"/>
      <point x="51" y="658"/>
      <point x="51" y="529" type="curve" smooth="yes"/>
      <point x="51" y="200" type="line" smooth="yes"/>
      <point x="51" y="71"/>
      <point x="113" y="-7"/>
    </contour>
    <contour>
      <point x="224" y="53" type="curve" smooth="yes"/>
      <point x="160" y="53"/>
      <point x="123" y="97"/>
      <point x="123" y="173" type="curve" smooth="yes"/>
      <point x="123" y="556" type="line" smooth="yes"/>
      <point x="123" y="632"/>
      <point x="160" y="676"/>
      <point x="224" y="676" type="curve" smooth="yes"/>
      <point x="287" y="676"/>
      <point x="323" y="632"/>
      <point x="323" y="556" type="curve" smooth="yes"/>
      <point x="323" y="173" type="line" smooth="yes"/>
      <point x="323" y="97"/>
      <point x="287" y="53"/>
    </contour>
    <contour>
      <point x="88" y="331" type="line"/>
      <point x="365" y="331" type="line"/>
      <point x="365" y="398" type="line"/>
      <point x="88" y="398" type="line"/>
    </contour>
  </outline>
</glyph>
<glyph name="one" format="2">
  <advance width="270"/>
  <unicode hex="0031"/>
  <note>
one
</note>
  <outline>
    <contour>
      <point x="136" y="0" type="line"/>
      <point x="210" y="0" type="line"/>
      <point x="210" y="729" type="line"/>
      <point x="148" y="729" type="line"/>
      <point x="136" y="615" type="line"/>
      <point x="33" y="615" type="line"/>
      <point x="33" y="549" type="line"/>
      <point x="136" y="549" type="line"/>
    </contour>
  </outline>
</glyph>
<glyph name="two" format="2">
  <advance width="427"/>
  <unicode hex="0032"/>
  <note>
two
</note>
  <outline>
    <contour>
      <point x="42" y="0" type="line"/>
      <point x="391" y="0" type="line"/>
      <point x="391" y="63" type="line"/>
      <point x="153" y="63" type="line"/>
      <point x="119" y="62" type="line"/>
      <point x="119" y="66" type="line"/>
      <point x="130" y="82" type="line"/>
      <point x="294" y="335" type="line" smooth="yes"/>
      <point x="351" y="423"/>
      <point x="380" y="482"/>
      <point x="380" y="560" type="curve" smooth="yes"/>
      <point x="380" y="664"/>
      <point x="325" y="736"/>
      <point x="216" y="736" type="curve" smooth="yes"/>
      <point x="90" y="736"/>
      <point x="36" y="657"/>
      <point x="38" y="507" type="curve"/>
      <point x="106" y="507" type="line"/>
      <point x="105" y="618"/>
      <point x="132" y="672"/>
      <point x="213" y="672" type="curve" smooth="yes"/>
      <point x="268" y="672"/>
      <point x="306" y="638"/>
      <point x="306" y="566" type="curve" smooth="yes"/>
      <point x="306" y="531" type="line" smooth="yes"/>
      <point x="306" y="493"/>
      <point x="286" y="442"/>
      <point x="237" y="367" type="curve" smooth="yes"/>
      <point x="42" y="71" type="line"/>
    </contour>
  </outline>
</glyph>
<glyph name="three" format="2">
  <advance width="438"/>
  <unicode hex="0033"/>
  <note>
three
</note>
  <outline>
    <contour>
      <point x="215" y="-7" type="curve" smooth="yes"/>
      <point x="318" y="-7"/>
      <point x="395" y="52"/>
      <point x="395" y="197" type="curve" smooth="yes"/>
      <point x="395" y="300"/>
      <point x="353" y="355"/>
      <point x="292" y="369" type="curve"/>
      <point x="292" y="376" type="line"/>
      <point x="350" y="393"/>
      <point x="391" y="448"/>
      <point x="391" y="549" type="curve" smooth="yes"/>
      <point x="391" y="683"/>
      <point x="320" y="736"/>
      <point x="225" y="736" type="curve" smooth="yes"/>
      <point x="97" y="736"/>
      <point x="46" y="655"/>
      <point x="46" y="502" type="curve"/>
      <point x="117" y="502" type="line"/>
      <point x="117" y="620"/>
      <point x="142" y="671"/>
      <point x="222" y="671" type="curve" smooth="yes"/>
      <point x="278" y="671"/>
      <point x="316" y="638"/>
      <point x="316" y="563" type="curve" smooth="yes"/>
      <point x="316" y="513" type="line" smooth="yes"/>
      <point x="316" y="446"/>
      <point x="277" y="404"/>
      <point x="218" y="404" type="curve" smooth="yes"/>
      <point x="163" y="404" type="line"/>
      <point x="163" y="346" type="line"/>
      <point x="218" y="346" type="line" smooth="yes"/>
      <point x="275" y="346"/>
      <point x="320" y="306"/>
      <point x="320" y="227" type="curve" smooth="yes"/>
      <point x="320" y="169" type="line" smooth="yes"/>
      <point x="320" y="98"/>
      <point x="279" y="57"/>
      <point x="214" y="57" type="curve" smooth="yes"/>
      <point x="136" y="57"/>
      <point x="108" y="106"/>
      <point x="108" y="213" type="curve"/>
      <point x="38" y="213" type="line"/>
      <point x="36" y="70"/>
      <point x="89" y="-7"/>
    </contour>
  </outline>
</glyph>
<glyph name="four" format="2">
  <advance width="466"/>
  <unicode hex="0034"/>
  <note>
four
</note>
  <outline>
    <contour>
      <point x="34" y="187" type="line"/>
      <point x="433" y="187" type="line"/>
      <point x="433" y="251" type="line"/>
      <point x="114" y="251" type="line"/>
      <point x="114" y="258" type="line"/>
      <point x="315" y="729" type="line"/>
      <point x="240" y="729" type="line"/>
      <point x="34" y="246" type="line"/>
    </contour>
    <contour>
      <point x="279" y="0" type="line"/>
      <point x="352" y="0" type="line"/>
      <point x="352" y="407" type="line"/>
      <point x="295" y="407" type="line"/>
      <point x="279" y="229" type="line"/>
    </contour>
  </outline>
</glyph>
<glyph name="five" format="2">
  <advance width="436"/>
  <unicode hex="0035"/>
  <note>
five
</note>
  <outline>
    <contour>
      <point x="215" y="-7" type="curve" smooth="yes"/>
      <point x="323" y="-7"/>
      <point x="394" y="48"/>
      <point x="394" y="237" type="curve" smooth="yes"/>
      <point x="394" y="400"/>
      <point x="348" y="482"/>
      <point x="235" y="482" type="curve" smooth="yes"/>
      <point x="188" y="482"/>
      <point x="144" y="461"/>
      <point x="124" y="405" type="curve"/>
      <point x="117" y="405" type="line"/>
      <point x="138" y="666" type="line"/>
      <point x="382" y="666" type="line"/>
      <point x="382" y="729" type="line"/>
      <point x="76" y="729" type="line"/>
      <point x="50" y="316" type="line"/>
      <point x="117" y="317" type="line"/>
      <point x="129" y="383"/>
      <point x="162" y="426"/>
      <point x="218" y="426" type="curve" smooth="yes"/>
      <point x="276" y="426"/>
      <point x="319" y="393"/>
      <point x="319" y="295" type="curve" smooth="yes"/>
      <point x="319" y="185" type="line" smooth="yes"/>
      <point x="319" y="104"/>
      <point x="285" y="57"/>
      <point x="213" y="57" type="curve" smooth="yes"/>
      <point x="138" y="57"/>
      <point x="110" y="99"/>
      <point x="108" y="196" type="curve"/>
      <point x="38" y="196" type="line"/>
      <point x="40" y="65"/>
      <point x="91" y="-7"/>
    </contour>
  </outline>
</glyph>
<glyph name="six" format="2">
  <advance width="447"/>
  <unicode hex="0036"/>
  <note>
six
</note>
  <outline>
    <contour>
      <point x="223" y="-7" type="curve" smooth="yes"/>
      <point x="327" y="-7"/>
      <point x="403" y="43"/>
      <point x="403" y="233" type="curve" smooth="yes"/>
      <point x="403" y="398"/>
      <point x="359" y="474"/>
      <point x="248" y="474" type="curve" smooth="yes"/>
      <point x="189" y="474"/>
      <point x="143" y="442"/>
      <point x="121" y="372" type="curve"/>
      <point x="115" y="372" type="line"/>
      <point x="118" y="396"/>
      <point x="119" y="432"/>
      <point x="119" y="459" type="curve" smooth="yes"/>
      <point x="119" y="623"/>
      <point x="152" y="675"/>
      <point x="232" y="675" type="curve" smooth="yes"/>
      <point x="305" y="675"/>
      <point x="331" y="624"/>
      <point x="333" y="544" type="curve"/>
      <point x="404" y="544" type="line"/>
      <point x="403" y="654"/>
      <point x="351" y="736"/>
      <point x="236" y="736" type="curve" smooth="yes"/>
      <point x="111" y="736"/>
      <point x="50" y="666"/>
      <point x="50" y="438" type="curve" smooth="yes"/>
      <point x="50" y="224" type="line" smooth="yes"/>
      <point x="50" y="40"/>
      <point x="125" y="-7"/>
    </contour>
    <contour>
      <point x="225" y="57" type="curve" smooth="yes"/>
      <point x="155" y="57"/>
      <point x="122" y="101"/>
      <point x="122" y="192" type="curve" smooth="yes"/>
      <point x="122" y="306" type="line"/>
      <point x="133" y="364"/>
      <point x="166" y="418"/>
      <point x="226" y="418" type="curve" smooth="yes"/>
      <point x="289" y="418"/>
      <point x="328" y="384"/>
      <point x="328" y="281" type="curve" smooth="yes"/>
      <point x="328" y="192" type="line" smooth="yes"/>
      <point x="328" y="107"/>
      <point x="299" y="57"/>
    </contour>
  </outline>
</glyph>
<glyph name="seven" format="2">
  <advance width="423"/>
  <unicode hex="0037"/>
  <note>
seven
</note>
  <outline>
    <contour>
      <point x="85" y="0" type="line"/>
      <point x="162" y="0" type="line"/>
      <point x="389" y="662" type="line"/>
      <point x="389" y="729" type="line"/>
      <point x="39" y="729" type="line"/>
      <point x="39" y="511" type="line"/>
      <point x="104" y="511" type="line"/>
      <point x="104" y="667" type="line"/>
      <point x="315" y="667" type="line"/>
      <point x="315" y="658" type="line"/>
    </contour>
  </outline>
</glyph>
<glyph name="eight" format="2">
  <advance width="442"/>
  <unicode hex="0038"/>
  <note>
eight
</note>
  <outline>
    <contour>
      <point x="221" y="-7" type="curve" smooth="yes"/>
      <point x="327" y="-7"/>
      <point x="400" y="51"/>
      <point x="400" y="193" type="curve" smooth="yes"/>
      <point x="400" y="300"/>
      <point x="354" y="354"/>
      <point x="294" y="370" type="curve"/>
      <point x="294" y="378" type="line"/>
      <point x="351" y="393"/>
      <point x="392" y="448"/>
      <point x="392" y="549" type="curve" smooth="yes"/>
      <point x="392" y="686"/>
      <point x="321" y="736"/>
      <point x="221" y="736" type="curve" smooth="yes"/>
      <point x="121" y="736"/>
      <point x="50" y="686"/>
      <point x="50" y="549" type="curve" smooth="yes"/>
      <point x="50" y="448"/>
      <point x="91" y="393"/>
      <point x="148" y="378" type="curve"/>
      <point x="148" y="370" type="line"/>
      <point x="89" y="354"/>
      <point x="42" y="300"/>
      <point x="42" y="193" type="curve" smooth="yes"/>
      <point x="42" y="51"/>
      <point x="115" y="-7"/>
    </contour>
    <contour>
      <point x="221" y="57" type="curve" smooth="yes"/>
      <point x="157" y="57"/>
      <point x="117" y="97"/>
      <point x="117" y="169" type="curve" smooth="yes"/>
      <point x="117" y="227" type="line" smooth="yes"/>
      <point x="117" y="300"/>
      <point x="157" y="343"/>
      <point x="221" y="343" type="curve" smooth="yes"/>
      <point x="285" y="343"/>
      <point x="325" y="300"/>
      <point x="325" y="227" type="curve" smooth="yes"/>
      <point x="325" y="169" type="line" smooth="yes"/>
      <point x="325" y="97"/>
      <point x="285" y="57"/>
    </contour>
    <contour>
      <point x="221" y="406" type="curve" smooth="yes"/>
      <point x="159" y="406"/>
      <point x="121" y="444"/>
      <point x="121" y="512" type="curve" smooth="yes"/>
      <point x="121" y="563" type="line" smooth="yes"/>
      <point x="121" y="636"/>
      <point x="159" y="671"/>
      <point x="221" y="671" type="curve" smooth="yes"/>
      <point x="284" y="671"/>
      <point x="321" y="636"/>
      <point x="321" y="563" type="curve" smooth="yes"/>
      <point x="321" y="512" type="line" smooth="yes"/>
      <point x="321" y="444"/>
      <point x="284" y="406"/>
    </contour>
  </outline>
</glyph>
<glyph name="equal" format="2">
  <advance width="500"/>
  <unicode hex="003D"/>
  <anchor x="250" y="361" name="center"/>
  <outline>
    <contour>
      <point x="19" y="435" type="line"/>
      <point x="481" y="435" type="line"/>
      <point x="481" y="495" type="line"/>
      <point x="19" y="495" type="line"/>
    </contour>
    <contour>
      <point x="19" y="235" type="line"/>
      <point x="481" y="235" type="line"/>
      <point x="481" y="295" type="line"/>
      <point x="19" y="295" type="line"/>
    </contour>
  </outline>
</glyph>
<glyph name="greater" format="2">
  <advance width="500"/>
  <unicode hex="003E"/>
  <outline>
    <contour>
      <point x="13" y="129" type="line"/>
      <point x="442" y="317" type="line"/>
      <point x="442" y="412" type="line"/>
      <point x="13" y="601" type="line"/>
      <point x="13" y="521" type="line"/>
      <point x="362" y="368" type="line"/>
      <point x="362" y="361" type="line"/>
      <point x="13" y="208" type="line"/>
    </contour>
  </outline>
</glyph>
<glyph name="question" format="2">
  <advance width="365"/>
  <unicode hex="003F"/>
  <outline>
    <contour>
      <point x="149" y="179" type="line"/>
      <point x="217" y="179" type="line"/>
      <point x="217" y="202" type="line" smooth="yes"/>
      <point x="217" y="340"/>
      <point x="327" y="423"/>
      <point x="327" y="570" type="curve" smooth="yes"/>
      <point x="327" y="671"/>
      <point x="282" y="739"/>
      <point x="180" y="739" type="curve" smooth="yes"/>
      <point x="85" y="739"/>
      <point x="22" y="677"/>
      <point x="27" y="526" type="curve"/>
      <point x="94" y="526" type="line"/>
      <point x="92" y="617"/>
      <point x="115" y="673"/>
      <point x="177" y="673" type="curve" smooth="yes"/>
      <point x="223" y="673"/>
      <point x="254" y="642"/>
      <point x="254" y="560" type="curve" smooth="yes"/>
      <point x="254" y="431"/>
      <point x="149" y="354"/>
      <point x="149" y="205" type="curve" smooth="yes"/>
    </contour>
    <contour>
      <point x="142" y="0" type="line"/>
      <point x="224" y="0" type="line"/>
      <point x="224" y="88" type="line"/>
      <point x="142" y="88" type="line"/>
    </contour>
  </outline>
</glyph>
<glyph name="at" format="2">
  <advance width="644"/>
  <unicode hex="0040"/>
  <outline>
    <contour>
      <point x="328" y="-101" type="curve" smooth="yes"/>
      <point x="394" y="-101"/>
      <point x="463" y="-77"/>
      <point x="506" y="-28" type="curve"/>
      <point x="479" y="8" type="line"/>
      <point x="444" y="-30"/>
      <point x="394" y="-52"/>
      <point x="334" y="-52" type="curve" smooth="yes"/>
      <point x="184" y="-52"/>
      <point x="90" y="99"/>
      <point x="90" y="315" type="curve" smooth="yes"/>
      <point x="90" y="535"/>
      <point x="178" y="689"/>
      <point x="330" y="689" type="curve" smooth="yes"/>
      <point x="463" y="689"/>
      <point x="557" y="564"/>
      <point x="557" y="360" type="curve" smooth="yes"/>
      <point x="557" y="241"/>
      <point x="526" y="152"/>
      <point x="476" y="152" type="curve" smooth="yes"/>
      <point x="445" y="152"/>
      <point x="430" y="186"/>
      <point x="434" y="264" type="curve" smooth="yes"/>
      <point x="445" y="504" type="line"/>
      <point x="409" y="504" type="line"/>
      <point x="401" y="423" type="line"/>
      <point x="396" y="423" type="line"/>
      <point x="385" y="482"/>
      <point x="357" y="515"/>
      <point x="315" y="515" type="curve" smooth="yes"/>
      <point x="247" y="515"/>
      <point x="201" y="429"/>
      <point x="201" y="296" type="curve" smooth="yes"/>
      <point x="201" y="173"/>
      <point x="242" y="107"/>
      <point x="304" y="107" type="curve" smooth="yes"/>
      <point x="345" y="107"/>
      <point x="381" y="141"/>
      <point x="394" y="210" type="curve"/>
      <point x="398" y="210" type="line"/>
      <point x="401" y="146"/>
      <point x="429" y="104"/>
      <point x="478" y="104" type="curve" smooth="yes"/>
      <point x="558" y="104"/>
      <point x="610" y="214"/>
      <point x="610" y="367" type="curve" smooth="yes"/>
      <point x="610" y="589"/>
      <point x="494" y="738"/>
      <point x="331" y="738" type="curve" smooth="yes"/>
      <point x="155" y="738"/>
      <point x="34" y="568"/>
      <point x="34" y="311" type="curve" smooth="yes"/>
      <point x="34" y="66"/>
      <point x="148" y="-101"/>
    </contour>
    <contour>
      <point x="315" y="155" type="curve" smooth="yes"/>
      <point x="275" y="155"/>
      <point x="251" y="201"/>
      <point x="251" y="299" type="curve" smooth="yes"/>
      <point x="251" y="398"/>
      <point x="276" y="470"/>
      <point x="324" y="470" type="curve" smooth="yes"/>
      <point x="363" y="470"/>
      <point x="387" y="417"/>
      <point x="390" y="319" type="curve"/>
      <point x="387" y="222"/>
      <point x="360" y="155"/>
    </contour>
  </outline>
</glyph>
<glyph name="A" format="2">
  <advance width="459"/>
  <unicode hex="0041"/>
  <note>
A
</note>
  <anchor x="351" y="0" name="#exit"/>
  <anchor x="229" y="0" name="bottom"/>
  <anchor x="426" y="0" name="ogonek"/>
  <anchor x="229" y="729" name="top"/>
  <outline>
    <contour>
      <point x="32" y="0" type="line"/>
      <point x="107" y="0" type="line"/>
      <point x="207" y="540" type="line"/>
      <point x="227" y="663" type="line"/>
      <point x="231" y="663" type="line"/>
      <point x="251" y="540" type="line"/>
      <point x="351" y="0" type="line"/>
      <point x="426" y="0" type="line"/>
      <point x="280" y="729" type="line"/>
      <point x="178" y="729" type="line"/>
    </contour>
    <contour>
      <point x="123" y="163" type="line"/>
      <point x="336" y="163" type="line"/>
      <point x="325" y="221" type="line"/>
      <point x="133" y="221" type="line"/>
    </contour>
  </outline>
</glyph>
<glyph name="B" format="2">
  <advance width="418"/>
  <unicode hex="0042"/>
  <note>
B
</note>
  <anchor x="200" y="0" name="bottom"/>
  <anchor x="200" y="729" name="top"/>
  <outline>
    <contour>
      <point x="61" y="0" type="line"/>
      <point x="197" y="0" type="line" smooth="yes"/>
      <point x="306" y="0"/>
      <point x="376" y="68"/>
      <point x="376" y="197" type="curve" smooth="yes"/>
      <point x="376" y="291"/>
      <point x="340" y="357"/>
      <point x="270" y="375" type="curve"/>
      <point x="270" y="379" type="line"/>
      <point x="329" y="399"/>
      <point x="368" y="452"/>
      <point x="368" y="549" type="curve" smooth="yes"/>
      <point x="368" y="657"/>
      <point x="319" y="729"/>
      <point x="204" y="729" type="curve" smooth="yes"/>
      <point x="61" y="729" type="line"/>
    </contour>
    <contour>
      <point x="135" y="59" type="line"/>
      <point x="135" y="670" type="line"/>
      <point x="202" y="670" type="line" smooth="yes"/>
      <point x="257" y="670"/>
      <point x="294" y="633"/>
      <point x="294" y="558" type="curve" smooth="yes"/>
      <point x="294" y="517" type="line" smooth="yes"/>
      <point x="294" y="449"/>
      <point x="261" y="404"/>
      <point x="202" y="404" type="curve" smooth="yes"/>
      <point x="121" y="404" type="line"/>
      <point x="121" y="346" type="line"/>
      <point x="198" y="346" type="line" smooth="yes"/>
      <point x="258" y="346"/>
      <point x="299" y="307"/>
      <point x="299" y="224" type="curve" smooth="yes"/>
      <point x="299" y="180" type="line" smooth="yes"/>
      <point x="299" y="107"/>
      <point x="263" y="59"/>
      <point x="198" y="59" type="curve" smooth="yes"/>
    </contour>
  </outline>
</glyph>
<glyph name="C" format="2">
  <advance width="442"/>
  <unicode hex="0043"/>
  <note>
C
</note>
  <anchor x="229" y="0" name="bottom"/>
  <anchor x="229" y="729" name="top"/>
  <outline>
    <contour>
      <point x="224" y="-7" type="curve" smooth="yes"/>
      <point x="352" y="-7"/>
      <point x="401" y="75"/>
      <point x="401" y="251" type="curve"/>
      <point x="330" y="251" type="line"/>
      <point x="331" y="116"/>
      <point x="311" y="53"/>
      <point x="226" y="53" type="curve" smooth="yes"/>
      <point x="166" y="53"/>
      <point x="125" y="84"/>
      <point x="125" y="192" type="curve" smooth="yes"/>
      <point x="125" y="536" type="line" smooth="yes"/>
      <point x="125" y="620"/>
      <point x="149" y="676"/>
      <point x="226" y="676" type="curve" smooth="yes"/>
      <point x="308" y="676"/>
      <point x="330" y="617"/>
      <point x="330" y="478" type="curve"/>
      <point x="401" y="478" type="line"/>
      <point x="401" y="653"/>
      <point x="352" y="736"/>
      <point x="226" y="736" type="curve" smooth="yes"/>
      <point x="122" y="736"/>
      <point x="51" y="677"/>
      <point x="51" y="521" type="curve" smooth="yes"/>
      <point x="51" y="208" type="line" smooth="yes"/>
      <point x="51" y="52"/>
      <point x="122" y="-7"/>
    </contour>
  </outline>
</glyph>
<glyph name="D" format="2">
  <advance width="447"/>
  <unicode hex="0044"/>
  <note>
D
</note>
  <anchor x="222" y="0" name="bottom"/>
  <anchor x="118" y="365" name="center"/>
  <anchor x="222" y="729" name="top"/>
  <outline>
    <contour>
      <point x="61" y="0" type="line"/>
      <point x="180" y="0" type="line" smooth="yes"/>
      <point x="321" y="0"/>
      <point x="399" y="68"/>
      <point x="399" y="275" type="curve" smooth="yes"/>
      <point x="399" y="454" type="line" smooth="yes"/>
      <point x="399" y="655"/>
      <point x="327" y="729"/>
      <point x="180" y="729" type="curve" smooth="yes"/>
      <point x="61" y="729" type="line"/>
    </contour>
    <contour>
      <point x="134" y="28" type="line"/>
      <point x="134" y="701" type="line"/>
      <point x="101" y="668" type="line"/>
      <point x="191" y="668" type="line" smooth="yes"/>
      <point x="300" y="668"/>
      <point x="326" y="603"/>
      <point x="326" y="483" type="curve" smooth="yes"/>
      <point x="326" y="246" type="line" smooth="yes"/>
      <point x="326" y="130"/>
      <point x="303" y="61"/>
      <point x="191" y="61" type="curve" smooth="yes"/>
      <point x="101" y="61" type="line"/>
    </contour>
  </outline>
</glyph>
<glyph name="E" format="2">
  <advance width="369"/>
  <unicode hex="0045"/>
  <note>
E
</note>
  <anchor x="61" y="0" name="#entry"/>
  <anchor x="182" y="0" name="bottom"/>
  <anchor x="334" y="0" name="ogonek"/>
  <anchor x="182" y="729" name="top"/>
  <anchor x="9" y="729" name="topleft"/>
  <outline>
    <contour>
      <point x="61" y="0" type="line"/>
      <point x="334" y="0" type="line"/>
      <point x="334" y="63" type="line"/>
      <point x="134" y="63" type="line"/>
      <point x="134" y="666" type="line"/>
      <point x="329" y="666" type="line"/>
      <point x="329" y="729" type="line"/>
      <point x="61" y="729" type="line"/>
    </contour>
    <contour>
      <point x="119" y="344" type="line"/>
      <point x="266" y="344" type="line"/>
      <point x="266" y="406" type="line"/>
      <point x="119" y="406" type="line"/>
    </contour>
  </outline>
</glyph>
<glyph name="F" format="2">
  <advance width="357"/>
  <unicode hex="0046"/>
  <note>
F
</note>
  <anchor x="164" y="0" name="bottom"/>
  <anchor x="164" y="729" name="top"/>
  <outline>
    <contour>
      <point x="61" y="0" type="line"/>
      <point x="134" y="0" type="line"/>
      <point x="134" y="666" type="line"/>
      <point x="323" y="666" type="line"/>
      <point x="323" y="729" type="line"/>
      <point x="61" y="729" type="line"/>
    </contour>
    <contour>
      <point x="119" y="341" type="line"/>
      <point x="304" y="341" type="line"/>
      <point x="304" y="403" type="line"/>
      <point x="119" y="403" type="line"/>
    </contour>
  </outline>
</glyph>
<glyph name="G" format="2">
  <advance width="451"/>
  <unicode hex="0047"/>
  <note>
G
</note>
  <anchor x="227" y="0" name="bottom"/>
  <anchor x="227" y="729" name="top"/>
  <outline>
    <contour>
      <point x="201" y="-7" type="curve" smooth="yes"/>
      <point x="260" y="-7"/>
      <point x="312" y="23"/>
      <point x="330" y="74" type="curve"/>
      <point x="334" y="74" type="line"/>
      <point x="342" y="0" type="line"/>
      <point x="398" y="0" type="line"/>
      <point x="398" y="370" type="line"/>
      <point x="224" y="370" type="line"/>
      <point x="224" y="307" type="line"/>
      <point x="328" y="307" type="line"/>
      <point x="328" y="137" type="line"/>
      <point x="316" y="87"/>
      <point x="278" y="54"/>
      <point x="220" y="54" type="curve" smooth="yes"/>
      <point x="164" y="54"/>
      <point x="126" y="98"/>
      <point x="126" y="170" type="curve" smooth="yes"/>
      <point x="126" y="563" type="line" smooth="yes"/>
      <point x="126" y="630"/>
      <point x="163" y="674"/>
      <point x="225" y="674" type="curve" smooth="yes"/>
      <point x="305" y="674"/>
      <point x="329" y="625"/>
      <point x="327" y="492" type="curve"/>
      <point x="401" y="492" type="line"/>
      <point x="403" y="649"/>
      <point x="353" y="736"/>
      <point x="227" y="736" type="curve" smooth="yes"/>
      <point x="116" y="736"/>
      <point x="52" y="658"/>
      <point x="52" y="529" type="curve" smooth="yes"/>
      <point x="52" y="187" type="line" smooth="yes"/>
      <point x="52" y="69"/>
      <point x="106" y="-7"/>
    </contour>
  </outline>
</glyph>
<glyph name="H" format="2">
  <advance width="460"/>
  <unicode hex="0048"/>
  <note>
H
</note>
  <anchor x="230" y="0" name="bottom"/>
  <anchor x="230" y="588" name="center"/>
  <anchor x="230" y="729" name="top"/>
  <anchor x="9" y="729" name="topleft"/>
  <outline>
    <contour>
      <point x="61" y="0" type="line"/>
      <point x="134" y="0" type="line"/>
      <point x="134" y="729" type="line"/>
      <point x="61" y="729" type="line"/>
    </contour>
    <contour>
      <point x="326" y="0" type="line"/>
      <point x="399" y="0" type="line"/>
      <point x="399" y="729" type="line"/>
      <point x="326" y="729" type="line"/>
    </contour>
    <contour>
      <point x="119" y="343" type="line"/>
      <point x="342" y="343" type="line"/>
      <point x="342" y="405" type="line"/>
      <point x="119" y="405" type="line"/>
    </contour>
  </outline>
</glyph>
<glyph name="I" format="2">
  <advance width="351"/>
  <unicode hex="0049"/>
  <note>
I
</note>
  <anchor x="176" y="0" name="bottom"/>
  <anchor x="313" y="0" name="ogonek"/>
  <anchor x="176" y="729" name="top"/>
  <anchor x="313" y="729" name="topleft"/>
  <outline>
    <contour>
      <point x="139" y="46" type="line"/>
      <point x="213" y="46" type="line"/>
      <point x="213" y="683" type="line"/>
      <point x="139" y="683" type="line"/>
    </contour>
    <contour>
      <point x="38" y="0" type="line"/>
      <point x="313" y="0" type="line"/>
      <point x="313" y="62" type="line"/>
      <point x="38" y="62" type="line"/>
    </contour>
    <contour>
      <point x="38" y="667" type="line"/>
      <point x="313" y="667" type="line"/>
      <point x="313" y="729" type="line"/>
      <point x="38" y="729" type="line"/>
    </contour>
  </outline>
</glyph>
<glyph name="J" format="2">
  <advance width="263"/>
  <unicode hex="004A"/>
  <note>
J
</note>
  <anchor x="143" y="0" name="bottom"/>
  <anchor x="167" y="729" name="top"/>
  <outline>
    <contour>
      <point x="32" y="0" type="line"/>
      <point x="120" y="0" type="line" smooth="yes"/>
      <point x="174" y="0"/>
      <point x="204" y="23"/>
      <point x="204" y="81" type="curve" smooth="yes"/>
      <point x="204" y="729" type="line"/>
      <point x="130" y="729" type="line"/>
      <point x="130" y="62" type="line"/>
      <point x="32" y="62" type="line"/>
    </contour>
  </outline>
</glyph>
<glyph name="K" format="2">
  <advance width="446"/>
  <unicode hex="004B"/>
  <note>
K
</note>
  <anchor x="211" y="0" name="bottom"/>
  <anchor x="211" y="729" name="top"/>
  <outline>
    <contour>
      <point x="61" y="0" type="line"/>
      <point x="134" y="0" type="line"/>
      <point x="134" y="242" type="line"/>
      <point x="200" y="363" type="line"/>
      <point x="332" y="0" type="line"/>
      <point x="414" y="0" type="line"/>
      <point x="248" y="430" type="line"/>
      <point x="412" y="729" type="line"/>
      <point x="331" y="729" type="line"/>
      <point x="134" y="348" type="line"/>
      <point x="134" y="729" type="line"/>
      <point x="61" y="729" type="line"/>
    </contour>
  </outline>
</glyph>
<glyph name="L" format="2">
  <advance width="345"/>
  <unicode hex="004C"/>
  <note>
L
</note>
  <anchor x="187" y="0" name="bottom"/>
  <anchor x="98" y="365" name="center"/>
  <anchor x="98" y="729" name="top"/>
  <anchor x="173" y="729" name="topright"/>
  <outline>
    <contour>
      <point x="61" y="0" type="line"/>
      <point x="313" y="0" type="line"/>
      <point x="313" y="62" type="line"/>
      <point x="134" y="62" type="line"/>
      <point x="134" y="729" type="line"/>
      <point x="61" y="729" type="line"/>
    </contour>
  </outline>
</glyph>
<glyph name="M" format="2">
  <advance width="565"/>
  <unicode hex="004D"/>
  <note>
M
</note>
  <anchor x="283" y="0" name="bottom"/>
  <anchor x="283" y="729" name="top"/>
  <outline>
    <contour>
      <point x="61" y="0" type="line"/>
      <point x="127" y="0" type="line"/>
      <point x="127" y="601" type="line"/>
      <point x="126" y="649" type="line"/>
      <point x="130" y="649" type="line"/>
      <point x="137" y="602" type="line"/>
      <point x="247" y="0" type="line"/>
      <point x="319" y="0" type="line"/>
      <point x="429" y="602" type="line"/>
      <point x="436" y="649" type="line"/>
      <point x="439" y="649" type="line"/>
      <point x="438" y="601" type="line"/>
      <point x="438" y="0" type="line"/>
      <point x="504" y="0" type="line"/>
      <point x="504" y="729" type="line"/>
      <point x="391" y="729" type="line"/>
      <point x="293" y="186" type="line"/>
      <point x="285" y="127" type="line"/>
      <point x="281" y="127" type="line"/>
      <point x="274" y="186" type="line"/>
      <point x="176" y="729" type="line"/>
      <point x="61" y="729" type="line"/>
    </contour>
  </outline>
</glyph>
<glyph name="N" format="2">
  <advance width="460"/>
  <unicode hex="004E"/>
  <note>
N
</note>
  <anchor x="230" y="0" name="bottom"/>
  <anchor x="230" y="729" name="top"/>
  <outline>
    <contour>
      <point x="61" y="0" type="line"/>
      <point x="130" y="0" type="line"/>
      <point x="130" y="594" type="line"/>
      <point x="133" y="594" type="line"/>
      <point x="142" y="558" type="line"/>
      <point x="304" y="0" type="line"/>
      <point x="399" y="0" type="line"/>
      <point x="399" y="729" type="line"/>
      <point x="330" y="729" type="line"/>
      <point x="330" y="134" type="line"/>
      <point x="326" y="134" type="line"/>
      <point x="318" y="169" type="line"/>
      <point x="156" y="729" type="line"/>
      <point x="61" y="729" type="line"/>
    </contour>
  </outline>
</glyph>
<glyph name="O" format="2">
  <advance width="450"/>
  <unicode hex="004F"/>
  <note>
O
</note>
  <anchor x="225" y="0" name="bottom"/>
  <anchor x="225" y="365" name="center"/>
  <anchor x="409" y="10" name="ogonek"/>
  <anchor x="225" y="729" name="top"/>
  <anchor x="15" y="729" name="topleft"/>
  <anchor x="310" y="709" name="topright"/>
  <outline>
    <contour>
      <point x="226" y="-7" type="curve" smooth="yes"/>
      <point x="336" y="-7"/>
      <point x="399" y="71"/>
      <point x="399" y="200" type="curve" smooth="yes"/>
      <point x="399" y="529" type="line" smooth="yes"/>
      <point x="399" y="658"/>
      <point x="336" y="736"/>
      <point x="226" y="736" type="curve" smooth="yes"/>
      <point x="115" y="736"/>
      <point x="51" y="658"/>
      <point x="51" y="529" type="curve" smooth="yes"/>
      <point x="51" y="200" type="line" smooth="yes"/>
      <point x="51" y="71"/>
      <point x="115" y="-7"/>
    </contour>
    <contour>
      <point x="226" y="53" type="curve" smooth="yes"/>
      <point x="162" y="53"/>
      <point x="125" y="97"/>
      <point x="125" y="163" type="curve" smooth="yes"/>
      <point x="125" y="566" type="line" smooth="yes"/>
      <point x="125" y="632"/>
      <point x="162" y="676"/>
      <point x="226" y="676" type="curve" smooth="yes"/>
      <point x="289" y="676"/>
      <point x="325" y="632"/>
      <point x="325" y="566" type="curve" smooth="yes"/>
      <point x="325" y="163" type="line" smooth="yes"/>
      <point x="325" y="97"/>
      <point x="289" y="53"/>
    </contour>
  </outline>
</glyph>
<glyph name="P" format="2">
  <advance width="414"/>
  <unicode hex="0050"/>
  <note>
P
</note>
  <anchor x="200" y="0" name="bottom"/>
  <anchor x="200" y="729" name="top"/>
  <outline>
    <contour>
      <point x="61" y="0" type="line"/>
      <point x="134" y="0" type="line"/>
      <point x="134" y="668" type="line"/>
      <point x="193" y="668" type="line" smooth="yes"/>
      <point x="269" y="668"/>
      <point x="302" y="621"/>
      <point x="302" y="544" type="curve" smooth="yes"/>
      <point x="302" y="499" type="line" smooth="yes"/>
      <point x="302" y="425"/>
      <point x="271" y="376"/>
      <point x="193" y="376" type="curve" smooth="yes"/>
      <point x="119" y="376" type="line"/>
      <point x="119" y="314" type="line"/>
      <point x="195" y="314" type="line" smooth="yes"/>
      <point x="308" y="314"/>
      <point x="377" y="378"/>
      <point x="377" y="522" type="curve" smooth="yes"/>
      <point x="377" y="663"/>
      <point x="314" y="729"/>
      <point x="195" y="729" type="curve" smooth="yes"/>
      <point x="61" y="729" type="line"/>
    </contour>
  </outline>
</glyph>
<glyph name="R" format="2">
  <advance width="420"/>
  <unicode hex="0052"/>
  <note>
R
</note>
  <anchor x="205" y="0" name="bottom"/>
  <anchor x="205" y="729" name="top"/>
  <outline>
    <contour>
      <point x="61" y="0" type="line"/>
      <point x="134" y="0" type="line"/>
      <point x="134" y="668" type="line"/>
      <point x="198" y="668" type="line" smooth="yes"/>
      <point x="258" y="668"/>
      <point x="299" y="628"/>
      <point x="299" y="547" type="curve" smooth="yes"/>
      <point x="299" y="495" type="line" smooth="yes"/>
      <point x="299" y="422"/>
      <point x="263" y="374"/>
      <point x="198" y="374" type="curve" smooth="yes"/>
      <point x="119" y="374" type="line"/>
      <point x="119" y="314" type="line"/>
      <point x="192" y="314" type="line"/>
      <point x="304" y="0" type="line"/>
      <point x="382" y="0" type="line"/>
      <point x="258" y="335" type="line"/>
      <point x="256" y="329" type="line"/>
      <point x="258" y="329" type="line"/>
      <point x="341" y="348"/>
      <point x="377" y="424"/>
      <point x="377" y="523" type="curve" smooth="yes"/>
      <point x="377" y="647"/>
      <point x="323" y="729"/>
      <point x="203" y="729" type="curve" smooth="yes"/>
      <point x="61" y="729" type="line"/>
    </contour>
  </outline>
</glyph>
<glyph name="S" format="2">
  <advance width="418"/>
  <unicode hex="0053"/>
  <note>
S
</note>
  <anchor x="209" y="0" name="bottom"/>
  <anchor x="209" y="729" name="top"/>
  <outline>
    <contour>
      <point x="211" y="-7" type="curve" smooth="yes"/>
      <point x="305" y="-7"/>
      <point x="376" y="52"/>
      <point x="376" y="173" type="curve" smooth="yes"/>
      <point x="376" y="278"/>
      <point x="329" y="333"/>
      <point x="258" y="382" type="curve" smooth="yes"/>
      <point x="209" y="416" type="line" smooth="yes"/>
      <point x="160" y="449"/>
      <point x="119" y="485"/>
      <point x="119" y="562" type="curve" smooth="yes"/>
      <point x="119" y="619"/>
      <point x="138" y="676"/>
      <point x="206" y="676" type="curve" smooth="yes"/>
      <point x="283" y="676"/>
      <point x="306" y="625"/>
      <point x="307" y="505" type="curve"/>
      <point x="376" y="505" type="line"/>
      <point x="374" y="653"/>
      <point x="328" y="736"/>
      <point x="205" y="736" type="curve" smooth="yes"/>
      <point x="112" y="736"/>
      <point x="46" y="673"/>
      <point x="46" y="556" type="curve" smooth="yes"/>
      <point x="46" y="451"/>
      <point x="98" y="402"/>
      <point x="159" y="360" type="curve" smooth="yes"/>
      <point x="212" y="321" type="line" smooth="yes"/>
      <point x="259" y="290"/>
      <point x="302" y="251"/>
      <point x="302" y="167" type="curve" smooth="yes"/>
      <point x="302" y="112"/>
      <point x="281" y="51"/>
      <point x="211" y="51" type="curve" smooth="yes"/>
      <point x="134" y="51"/>
      <point x="111" y="98"/>
      <point x="110" y="226" type="curve"/>
      <point x="40" y="226" type="line"/>
      <point x="42" y="68"/>
      <point x="91" y="-7"/>
    </contour>
  </outline>
</glyph>
<glyph name="T" format="2">
  <advance width="399"/>
  <unicode hex="0054"/>
  <note>
T
</note>
  <anchor x="200" y="0" name="bottom"/>
  <anchor x="200" y="365" name="center"/>
  <anchor x="200" y="729" name="top"/>
  <outline>
    <contour>
      <point x="163" y="0" type="line"/>
      <point x="237" y="0" type="line"/>
      <point x="237" y="667" type="line"/>
      <point x="367" y="667" type="line"/>
      <point x="367" y="729" type="line"/>
      <point x="32" y="729" type="line"/>
      <point x="32" y="667" type="line"/>
      <point x="163" y="667" type="line"/>
    </contour>
  </outline>
</glyph>
<glyph name="U" format="2">
  <advance width="458"/>
  <unicode hex="0055"/>
  <note>
U
</note>
  <anchor x="229" y="0" name="bottom"/>
  <anchor x="298" y="10" name="ogonek"/>
  <anchor x="229" y="729" name="top"/>
  <anchor x="365" y="729" name="topright"/>
  <outline>
    <contour>
      <point x="229" y="-7" type="curve" smooth="yes"/>
      <point x="339" y="-7"/>
      <point x="402" y="71"/>
      <point x="402" y="192" type="curve" smooth="yes"/>
      <point x="402" y="729" type="line"/>
      <point x="328" y="729" type="line"/>
      <point x="328" y="162" type="line" smooth="yes"/>
      <point x="328" y="96"/>
      <point x="291" y="53"/>
      <point x="229" y="53" type="curve" smooth="yes"/>
      <point x="167" y="53"/>
      <point x="130" y="96"/>
      <point x="130" y="162" type="curve" smooth="yes"/>
      <point x="130" y="729" type="line"/>
      <point x="56" y="729" type="line"/>
      <point x="56" y="192" type="line" smooth="yes"/>
      <point x="56" y="71"/>
      <point x="119" y="-7"/>
    </contour>
  </outline>
</glyph>
<glyph name="V" format="2">
  <advance width="436"/>
  <unicode hex="0056"/>
  <note>
V
</note>
  <anchor x="219" y="0" name="bottom"/>
  <anchor x="219" y="729" name="top"/>
  <outline>
    <contour>
      <point x="165" y="0" type="line"/>
      <point x="271" y="0" type="line"/>
      <point x="403" y="729" type="line"/>
      <point x="331" y="729" type="line"/>
      <point x="230" y="147" type="line"/>
      <point x="221" y="67" type="line"/>
      <point x="216" y="67" type="line"/>
      <point x="206" y="147" type="line"/>
      <point x="106" y="729" type="line"/>
      <point x="33" y="729" type="line"/>
    </contour>
  </outline>
</glyph>
<glyph name="W" format="2">
  <advance width="629"/>
  <unicode hex="0057"/>
  <note>
W
</note>
  <anchor x="315" y="0" name="bottom"/>
  <anchor x="315" y="729" name="top"/>
  <outline>
    <contour>
      <point x="127" y="0" type="line"/>
      <point x="220" y="0" type="line"/>
      <point x="296" y="486" type="line"/>
      <point x="312" y="613" type="line"/>
      <point x="315" y="613" type="line"/>
      <point x="331" y="486" type="line"/>
      <point x="406" y="0" type="line"/>
      <point x="502" y="0" type="line"/>
      <point x="595" y="729" type="line"/>
      <point x="523" y="729" type="line"/>
      <point x="477" y="322" type="line"/>
      <point x="452" y="80" type="line"/>
      <point x="446" y="80" type="line"/>
      <point x="442" y="120" type="line"/>
      <point x="354" y="729" type="line"/>
      <point x="274" y="729" type="line"/>
      <point x="186" y="115" type="line"/>
      <point x="182" y="80" type="line"/>
      <point x="177" y="80" type="line"/>
      <point x="152" y="317" type="line"/>
      <point x="106" y="729" type="line"/>
      <point x="34" y="729" type="line"/>
    </contour>
  </outline>
</glyph>
<glyph name="X" format="2">
  <advance width="455"/>
  <unicode hex="0058"/>
  <note>
X
</note>
  <anchor x="227" y="0" name="bottom"/>
  <anchor x="227" y="729" name="top"/>
  <outline>
    <contour>
      <point x="31" y="0" type="line"/>
      <point x="104" y="0" type="line"/>
      <point x="223" y="313" type="line"/>
      <point x="228" y="313" type="line"/>
      <point x="347" y="0" type="line"/>
      <point x="423" y="0" type="line"/>
      <point x="274" y="380" type="line"/>
      <point x="410" y="729" type="line"/>
      <point x="336" y="729" type="line"/>
      <point x="229" y="441" type="line"/>
      <point x="224" y="441" type="line"/>
      <point x="122" y="729" type="line"/>
      <point x="47" y="729" type="line"/>
      <point x="179" y="379" type="line"/>
    </contour>
  </outline>
</glyph>
<glyph name="Y" format="2">
  <advance width="447"/>
  <unicode hex="0059"/>
  <note>
Y
</note>
  <anchor x="224" y="0" name="bottom"/>
  <anchor x="224" y="729" name="top"/>
  <anchor x="16" y="729" name="topleft"/>
  <outline>
    <contour>
      <point x="187" y="0" type="line"/>
      <point x="260" y="0" type="line"/>
      <point x="260" y="276" type="line"/>
      <point x="418" y="729" type="line"/>
      <point x="344" y="729" type="line"/>
      <point x="264" y="485" type="line"/>
      <point x="226" y="360" type="line"/>
      <point x="220" y="360" type="line"/>
      <point x="183" y="485" type="line"/>
      <point x="103" y="729" type="line"/>
      <point x="29" y="729" type="line"/>
      <point x="187" y="276" type="line"/>
    </contour>
  </outline>
</glyph>
<glyph name="Z" format="2">
  <advance width="400"/>
  <unicode hex="005A"/>
  <note>
Z
</note>
  <anchor x="201" y="0" name="bottom"/>
  <anchor x="201" y="365" name="center"/>
  <anchor x="201" y="729" name="top"/>
  <outline>
    <contour>
      <point x="35" y="0" type="line"/>
      <point x="364" y="0" type="line"/>
      <point x="364" y="63" type="line"/>
      <point x="115" y="63" type="line"/>
      <point x="360" y="667" type="line"/>
      <point x="360" y="729" type="line"/>
      <point x="46" y="729" type="line"/>
      <point x="46" y="667" type="line"/>
      <point x="280" y="667" type="line"/>
      <point x="35" y="63" type="line"/>
    </contour>
  </outline>
</glyph>
<glyph name="bracketleft" format="2">
  <advance width="271"/>
  <unicode hex="005B"/>
  <outline>
    <contour>
      <point x="61" y="-167" type="line"/>
      <point x="237" y="-167" type="line"/>
      <point x="237" y="-111" type="line"/>
      <point x="130" y="-111" type="line"/>
      <point x="130" y="735" type="line"/>
      <point x="237" y="735" type="line"/>
      <point x="237" y="793" type="line"/>
      <point x="61" y="793" type="line"/>
    </contour>
  </outline>
</glyph>
<glyph name="asciicircum" format="2">
  <advance width="500"/>
  <unicode hex="005E"/>
  <outline>
    <contour>
      <point x="60" y="473" type="line"/>
      <point x="132" y="473" type="line"/>
      <point x="226" y="662" type="line"/>
      <point x="321" y="473" type="line"/>
      <point x="393" y="473" type="line"/>
      <point x="263" y="729" type="line"/>
      <point x="190" y="729" type="line"/>
    </contour>
  </outline>
</glyph>
<glyph name="underscore" format="2">
  <advance width="290"/>
  <unicode hex="005F"/>
  <outline>
    <contour>
      <point x="4" y="-62" type="line"/>
      <point x="286" y="-62" type="line"/>
      <point x="286" y="0" type="line"/>
      <point x="4" y="0" type="line"/>
    </contour>
  </outline>
</glyph>
<glyph name="c" format="2">
  <advance width="390"/>
  <unicode hex="0063"/>
  <note>
c
</note>
  <anchor x="194" y="0" name="bottom"/>
  <anchor x="194" y="524" name="top"/>
  <outline>
    <contour>
      <point x="200" y="-7" type="curve" smooth="yes"/>
      <point x="305" y="-7"/>
      <point x="359" y="65"/>
      <point x="358" y="181" type="curve"/>
      <point x="291" y="181" type="line"/>
      <point x="291" y="84"/>
      <point x="256" y="51"/>
      <point x="201" y="51" type="curve" smooth="yes"/>
      <point x="143" y="51"/>
      <point x="112" y="91"/>
      <point x="112" y="149" type="curve" smooth="yes"/>
      <point x="112" y="374" type="line" smooth="yes"/>
      <point x="112" y="433"/>
      <point x="143" y="473"/>
      <point x="201" y="473" type="curve" smooth="yes"/>
      <point x="256" y="473"/>
      <point x="291" y="442"/>
      <point x="291" y="342" type="curve"/>
      <point x="358" y="342" type="line"/>
      <point x="359" y="456"/>
      <point x="309" y="531"/>
      <point x="201" y="531" type="curve" smooth="yes"/>
      <point x="98" y="531"/>
      <point x="39" y="459"/>
      <point x="39" y="339" type="curve" smooth="yes"/>
      <point x="39" y="185" type="line" smooth="yes"/>
      <point x="39" y="68"/>
      <point x="94" y="-7"/>
    </contour>
  </outline>
</glyph>
<glyph name="e" format="2">
  <advance width="398"/>
  <unicode hex="0065"/>
  <note>
e
</note>
  <anchor x="39" y="0" name="#entry"/>
  <anchor x="201" y="0" name="bottom"/>
  <anchor x="276" y="4" name="ogonek"/>
  <anchor x="201" y="524" name="top"/>
  <outline>
    <contour>
      <point x="201" y="-7" type="curve" smooth="yes"/>
      <point x="295" y="-7"/>
      <point x="360" y="47"/>
      <point x="361" y="165" type="curve"/>
      <point x="292" y="165" type="line"/>
      <point x="292" y="96"/>
      <point x="268" y="51"/>
      <point x="202" y="51" type="curve" smooth="yes"/>
      <point x="143" y="51"/>
      <point x="111" y="91"/>
      <point x="111" y="149" type="curve" smooth="yes"/>
      <point x="111" y="374" type="line" smooth="yes"/>
      <point x="111" y="433"/>
      <point x="143" y="473"/>
      <point x="201" y="473" type="curve" smooth="yes"/>
      <point x="258" y="473"/>
      <point x="290" y="433"/>
      <point x="290" y="374" type="curve" smooth="yes"/>
      <point x="290" y="290" type="line"/>
      <point x="299" y="299" type="line"/>
      <point x="97" y="299" type="line"/>
      <point x="97" y="244" type="line"/>
      <point x="362" y="244" type="line"/>
      <point x="362" y="339" type="line" smooth="yes"/>
      <point x="362" y="459"/>
      <point x="304" y="531"/>
      <point x="201" y="531" type="curve" smooth="yes"/>
      <point x="98" y="531"/>
      <point x="39" y="459"/>
      <point x="39" y="339" type="curve" smooth="yes"/>
      <point x="39" y="185" type="line" smooth="yes"/>
      <point x="39" y="65"/>
      <point x="98" y="-7"/>
    </contour>
  </outline>
</glyph>
<glyph name="f" format="2">
  <advance width="260"/>
  <unicode hex="0066"/>
  <note>
f
</note>
  <anchor x="131" y="0" name="bottom"/>
  <anchor x="131" y="800" name="top"/>
  <outline>
    <contour>
      <point x="87" y="0" type="line"/>
      <point x="159" y="0" type="line"/>
      <point x="159" y="465" type="line"/>
      <point x="237" y="465" type="line"/>
      <point x="237" y="524" type="line"/>
      <point x="159" y="524" type="line"/>
      <point x="159" y="671" type="line"/>
      <point x="237" y="671" type="line"/>
      <point x="237" y="729" type="line"/>
      <point x="162" y="729" type="line" smooth="yes"/>
      <point x="111" y="729"/>
      <point x="87" y="704"/>
      <point x="87" y="662" type="curve" smooth="yes"/>
      <point x="87" y="524" type="line"/>
      <point x="23" y="524" type="line"/>
      <point x="23" y="465" type="line"/>
      <point x="87" y="465" type="line"/>
    </contour>
  </outline>
</glyph>
<glyph name="g" format="2">
  <advance width="409"/>
  <unicode hex="0067"/>
  <note>
g
</note>
  <anchor x="203" y="-200" name="bottom"/>
  <anchor x="203" y="524" name="top"/>
  <outline>
    <contour>
      <point x="196" y="-173" type="curve" smooth="yes"/>
      <point x="293" y="-173"/>
      <point x="358" y="-119"/>
      <point x="358" y="0" type="curve" smooth="yes"/>
      <point x="358" y="524" type="line"/>
      <point x="290" y="524" type="line"/>
      <point x="286" y="447" type="line"/>
      <point x="281" y="447" type="line"/>
      <point x="263" y="499"/>
      <point x="223" y="531"/>
      <point x="168" y="531" type="curve" smooth="yes"/>
      <point x="84" y="531"/>
      <point x="41" y="460"/>
      <point x="41" y="360" type="curve" smooth="yes"/>
      <point x="41" y="190" type="line" smooth="yes"/>
      <point x="41" y="90"/>
      <point x="84" y="19"/>
      <point x="168" y="19" type="curve" smooth="yes"/>
      <point x="221" y="19"/>
      <point x="263" y="48"/>
      <point x="281" y="103" type="curve"/>
      <point x="286" y="103" type="line"/>
      <point x="286" y="-17" type="line" smooth="yes"/>
      <point x="286" y="-76"/>
      <point x="258" y="-115"/>
      <point x="196" y="-115" type="curve" smooth="yes"/>
      <point x="147" y="-115"/>
      <point x="115" y="-92"/>
      <point x="115" y="-34" type="curve"/>
      <point x="46" y="-34" type="line"/>
      <point x="48" y="-118"/>
      <point x="103" y="-173"/>
    </contour>
    <contour>
      <point x="193" y="77" type="curve" smooth="yes"/>
      <point x="147" y="77"/>
      <point x="113" y="110"/>
      <point x="113" y="177" type="curve" smooth="yes"/>
      <point x="113" y="373" type="line" smooth="yes"/>
      <point x="113" y="440"/>
      <point x="145" y="473"/>
      <point x="193" y="473" type="curve" smooth="yes"/>
      <point x="241" y="473"/>
      <point x="269" y="443"/>
      <point x="286" y="382" type="curve"/>
      <point x="286" y="168" type="line"/>
      <point x="269" y="107"/>
      <point x="241" y="77"/>
    </contour>
  </outline>
</glyph>
<glyph name="h" format="2">
  <advance width="425"/>
  <unicode hex="0068"/>
  <note>
h
</note>
  <anchor x="214" y="0" name="bottom"/>
  <anchor x="102" y="611" name="center"/>
  <anchor x="86" y="729" name="top"/>
  <outline>
    <contour>
      <point x="50" y="0" type="line"/>
      <point x="122" y="0" type="line"/>
      <point x="122" y="378" type="line"/>
      <point x="138" y="433"/>
      <point x="172" y="469"/>
      <point x="225" y="469" type="curve" smooth="yes"/>
      <point x="277" y="469"/>
      <point x="307" y="435"/>
      <point x="307" y="370" type="curve" smooth="yes"/>
      <point x="307" y="0" type="line"/>
      <point x="379" y="0" type="line"/>
      <point x="379" y="363" type="line" smooth="yes"/>
      <point x="379" y="463"/>
      <point x="337" y="531"/>
      <point x="251" y="531" type="curve" smooth="yes"/>
      <point x="194" y="531"/>
      <point x="149" y="499"/>
      <point x="127" y="446" type="curve"/>
      <point x="122" y="446" type="line"/>
      <point x="122" y="729" type="line"/>
      <point x="50" y="729" type="line"/>
    </contour>
  </outline>
</glyph>
<glyph name="k" format="2">
  <advance width="405"/>
  <unicode hex="006B"/>
  <note>
k
</note>
  <anchor x="201" y="0" name="bottom"/>
  <anchor x="201" y="800" name="top"/>
  <outline>
    <contour>
      <point x="50" y="0" type="line"/>
      <point x="122" y="0" type="line"/>
      <point x="122" y="729" type="line"/>
      <point x="50" y="729" type="line"/>
    </contour>
    <contour>
      <point x="303" y="0" type="line"/>
      <point x="383" y="0" type="line"/>
      <point x="226" y="322" type="line"/>
      <point x="163" y="296" type="line"/>
    </contour>
    <contour>
      <point x="111" y="141" type="line"/>
      <point x="204" y="279" type="line"/>
      <point x="210" y="279" type="line"/>
      <point x="369" y="524" type="line"/>
      <point x="289" y="524" type="line"/>
      <point x="113" y="234" type="line"/>
    </contour>
  </outline>
</glyph>
<glyph name="l" format="2">
  <advance width="172"/>
  <unicode hex="006C"/>
  <note>
l
</note>
  <anchor x="86" y="0" name="bottom"/>
  <anchor x="86" y="365" name="center"/>
  <anchor x="86" y="729" name="top"/>
  <anchor x="122" y="729" name="topright"/>
  <outline>
    <contour>
      <point x="50" y="0" type="line"/>
      <point x="122" y="0" type="line"/>
      <point x="122" y="729" type="line"/>
      <point x="50" y="729" type="line"/>
    </contour>
  </outline>
</glyph>
<glyph name="m" format="2">
  <advance width="682"/>
  <unicode hex="006D"/>
  <note>
m
</note>
  <anchor x="343" y="0" name="bottom"/>
  <anchor x="343" y="524" name="top"/>
  <outline>
    <contour>
      <point x="50" y="0" type="line"/>
      <point x="122" y="0" type="line"/>
      <point x="122" y="378" type="line"/>
      <point x="137" y="432"/>
      <point x="170" y="469"/>
      <point x="225" y="469" type="curve" smooth="yes"/>
      <point x="277" y="469"/>
      <point x="307" y="435"/>
      <point x="307" y="370" type="curve" smooth="yes"/>
      <point x="307" y="0" type="line"/>
      <point x="379" y="0" type="line"/>
      <point x="379" y="352" type="line" smooth="yes"/>
      <point x="379" y="361"/>
      <point x="379" y="369"/>
      <point x="379" y="378" type="curve"/>
      <point x="394" y="432"/>
      <point x="427" y="469"/>
      <point x="482" y="469" type="curve" smooth="yes"/>
      <point x="534" y="469"/>
      <point x="564" y="435"/>
      <point x="564" y="370" type="curve" smooth="yes"/>
      <point x="564" y="0" type="line"/>
      <point x="636" y="0" type="line"/>
      <point x="636" y="367" type="line" smooth="yes"/>
      <point x="636" y="467"/>
      <point x="590" y="531"/>
      <point x="505" y="531" type="curve" smooth="yes"/>
      <point x="444" y="531"/>
      <point x="399" y="496"/>
      <point x="376" y="437" type="curve"/>
      <point x="370" y="437" type="line"/>
      <point x="353" y="496"/>
      <point x="311" y="531"/>
      <point x="249" y="531" type="curve" smooth="yes"/>
      <point x="192" y="531"/>
      <point x="149" y="500"/>
      <point x="127" y="447" type="curve"/>
      <point x="121" y="447" type="line"/>
      <point x="116" y="524" type="line"/>
      <point x="50" y="524" type="line"/>
    </contour>
  </outline>
</glyph>
<glyph name="n" format="2">
  <advance width="425"/>
  <unicode hex="006E"/>
  <note>
n
</note>
  <anchor x="214" y="0" name="bottom"/>
  <anchor x="214" y="524" name="top"/>
  <outline>
    <contour>
      <point x="50" y="0" type="line"/>
      <point x="122" y="0" type="line"/>
      <point x="122" y="378" type="line"/>
      <point x="138" y="433"/>
      <point x="172" y="469"/>
      <point x="225" y="469" type="curve" smooth="yes"/>
      <point x="277" y="469"/>
      <point x="307" y="435"/>
      <point x="307" y="370" type="curve" smooth="yes"/>
      <point x="307" y="0" type="line"/>
      <point x="379" y="0" type="line"/>
      <point x="379" y="363" type="line" smooth="yes"/>
      <point x="379" y="463"/>
      <point x="337" y="531"/>
      <point x="251" y="531" type="curve" smooth="yes"/>
      <point x="194" y="531"/>
      <point x="149" y="499"/>
      <point x="127" y="446" type="curve"/>
      <point x="121" y="446" type="line"/>
      <point x="116" y="524" type="line"/>
      <point x="50" y="524" type="line"/>
    </contour>
  </outline>
</glyph>
<glyph name="o" format="2">
  <advance width="402"/>
  <unicode hex="006F"/>
  <note>
o
</note>
  <anchor x="290" y="0" name="#exit"/>
  <anchor x="201" y="0" name="bottom"/>
  <anchor x="201" y="262" name="center"/>
  <anchor x="370" y="10" name="ogonek"/>
  <anchor x="201" y="524" name="top"/>
  <anchor x="279" y="504" name="topright"/>
  <outline>
    <contour>
      <point x="201" y="-7" type="curve" smooth="yes"/>
      <point x="307" y="-7"/>
      <point x="363" y="66"/>
      <point x="363" y="185" type="curve" smooth="yes"/>
      <point x="363" y="339" type="line" smooth="yes"/>
      <point x="363" y="458"/>
      <point x="307" y="531"/>
      <point x="201" y="531" type="curve" smooth="yes"/>
      <point x="95" y="531"/>
      <point x="39" y="458"/>
      <point x="39" y="339" type="curve" smooth="yes"/>
      <point x="39" y="185" type="line" smooth="yes"/>
      <point x="39" y="66"/>
      <point x="95" y="-7"/>
    </contour>
    <contour>
      <point x="201" y="51" type="curve" smooth="yes"/>
      <point x="143" y="51"/>
      <point x="111" y="91"/>
      <point x="111" y="149" type="curve" smooth="yes"/>
      <point x="111" y="374" type="line" smooth="yes"/>
      <point x="111" y="433"/>
      <point x="143" y="473"/>
      <point x="201" y="473" type="curve" smooth="yes"/>
      <point x="259" y="473"/>
      <point x="291" y="433"/>
      <point x="291" y="374" type="curve" smooth="yes"/>
      <point x="291" y="149" type="line" smooth="yes"/>
      <point x="291" y="91"/>
      <point x="259" y="51"/>
    </contour>
  </outline>
</glyph>
<glyph name="p" format="2">
  <advance width="408"/>
  <unicode hex="0070"/>
  <note>
p
</note>
  <anchor x="203" y="0" name="bottom"/>
  <anchor x="203" y="524" name="top"/>
  <outline>
    <contour>
      <point x="50" y="-167" type="line"/>
      <point x="122" y="-167" type="line"/>
      <point x="122" y="77" type="line"/>
      <point x="127" y="77" type="line"/>
      <point x="145" y="24"/>
      <point x="186" y="-7"/>
      <point x="240" y="-7" type="curve" smooth="yes"/>
      <point x="326" y="-7"/>
      <point x="367" y="64"/>
      <point x="367" y="164" type="curve" smooth="yes"/>
      <point x="367" y="360" type="line" smooth="yes"/>
      <point x="367" y="459"/>
      <point x="326" y="531"/>
      <point x="240" y="531" type="curve" smooth="yes"/>
      <point x="186" y="531"/>
      <point x="145" y="499"/>
      <point x="127" y="447" type="curve"/>
      <point x="122" y="447" type="line"/>
      <point x="118" y="524" type="line"/>
      <point x="50" y="524" type="line"/>
    </contour>
    <contour>
      <point x="214" y="51" type="curve" smooth="yes"/>
      <point x="168" y="51"/>
      <point x="139" y="81"/>
      <point x="122" y="142" type="curve"/>
      <point x="122" y="382" type="line"/>
      <point x="139" y="443"/>
      <point x="168" y="473"/>
      <point x="214" y="473" type="curve" smooth="yes"/>
      <point x="262" y="473"/>
      <point x="295" y="440"/>
      <point x="295" y="373" type="curve" smooth="yes"/>
      <point x="295" y="151" type="line" smooth="yes"/>
      <point x="295" y="84"/>
      <point x="262" y="51"/>
    </contour>
  </outline>
</glyph>
<glyph name="q" format="2">
  <advance width="408"/>
  <unicode hex="0071"/>
  <note>
q
</note>
  <anchor x="203" y="0" name="bottom"/>
  <anchor x="203" y="524" name="top"/>
  <outline>
    <contour>
      <point x="286" y="-167" type="line"/>
      <point x="358" y="-167" type="line"/>
      <point x="358" y="524" type="line"/>
      <point x="290" y="524" type="line"/>
      <point x="286" y="447" type="line"/>
      <point x="281" y="447" type="line"/>
      <point x="264" y="499"/>
      <point x="223" y="531"/>
      <point x="168" y="531" type="curve" smooth="yes"/>
      <point x="82" y="531"/>
      <point x="41" y="459"/>
      <point x="41" y="360" type="curve" smooth="yes"/>
      <point x="41" y="164" type="line" smooth="yes"/>
      <point x="41" y="64"/>
      <point x="82" y="-7"/>
      <point x="168" y="-7" type="curve" smooth="yes"/>
      <point x="223" y="-7"/>
      <point x="264" y="24"/>
      <point x="281" y="77" type="curve"/>
      <point x="286" y="77" type="line"/>
    </contour>
    <contour>
      <point x="194" y="51" type="curve" smooth="yes"/>
      <point x="146" y="51"/>
      <point x="113" y="84"/>
      <point x="113" y="151" type="curve" smooth="yes"/>
      <point x="113" y="373" type="line" smooth="yes"/>
      <point x="113" y="440"/>
      <point x="146" y="473"/>
      <point x="194" y="473" type="curve" smooth="yes"/>
      <point x="240" y="473"/>
      <point x="269" y="443"/>
      <point x="286" y="382" type="curve"/>
      <point x="286" y="142" type="line"/>
      <point x="269" y="81"/>
      <point x="240" y="51"/>
    </contour>
  </outline>
</glyph>
<glyph name="r" format="2">
  <advance width="267"/>
  <unicode hex="0072"/>
  <note>
r
</note>
  <anchor x="86" y="0" name="bottom"/>
  <anchor x="115" y="524" name="top"/>
  <outline>
    <contour>
      <point x="50" y="0" type="line"/>
      <point x="122" y="0" type="line"/>
      <point x="122" y="372" type="line"/>
      <point x="144" y="428"/>
      <point x="171" y="456"/>
      <point x="215" y="456" type="curve" smooth="yes"/>
      <point x="244" y="456" type="line"/>
      <point x="234" y="530" type="line"/>
      <point x="222" y="530" type="line" smooth="yes"/>
      <point x="183" y="530"/>
      <point x="149" y="508"/>
      <point x="128" y="444" type="curve"/>
      <point x="122" y="444" type="line"/>
      <point x="118" y="524" type="line"/>
      <point x="50" y="524" type="line"/>
    </contour>
  </outline>
</glyph>
<glyph name="s" format="2">
  <advance width="357"/>
  <unicode hex="0073"/>
  <note>
s
</note>
  <anchor x="172" y="0" name="bottom"/>
  <anchor x="172" y="524" name="top"/>
  <outline>
    <contour>
      <point x="179" y="-7" type="curve" smooth="yes"/>
      <point x="264" y="-7"/>
      <point x="325" y="44"/>
      <point x="325" y="132" type="curve" smooth="yes"/>
      <point x="325" y="225"/>
      <point x="268" y="262"/>
      <point x="208" y="293" type="curve" smooth="yes"/>
      <point x="183" y="306" type="line" smooth="yes"/>
      <point x="138" y="329"/>
      <point x="111" y="352"/>
      <point x="111" y="401" type="curve" smooth="yes"/>
      <point x="111" y="448"/>
      <point x="135" y="477"/>
      <point x="180" y="477" type="curve" smooth="yes"/>
      <point x="235" y="477"/>
      <point x="255" y="444"/>
      <point x="256" y="379" type="curve"/>
      <point x="322" y="379" type="line"/>
      <point x="320" y="469"/>
      <point x="274" y="531"/>
      <point x="178" y="531" type="curve" smooth="yes"/>
      <point x="94" y="531"/>
      <point x="39" y="476"/>
      <point x="39" y="393" type="curve" smooth="yes"/>
      <point x="39" y="314"/>
      <point x="88" y="276"/>
      <point x="149" y="244" type="curve" smooth="yes"/>
      <point x="177" y="230" type="line" smooth="yes"/>
      <point x="223" y="206"/>
      <point x="254" y="180"/>
      <point x="254" y="127" type="curve" smooth="yes"/>
      <point x="254" y="80"/>
      <point x="231" y="48"/>
      <point x="178" y="48" type="curve" smooth="yes"/>
      <point x="126" y="48"/>
      <point x="95" y="79"/>
      <point x="96" y="157" type="curve"/>
      <point x="29" y="157" type="line"/>
      <point x="29" y="60"/>
      <point x="78" y="-7"/>
    </contour>
  </outline>
</glyph>
<glyph name="t" format="2">
  <advance width="271"/>
  <unicode hex="0074"/>
  <note>
t
</note>
  <anchor x="177" y="0" name="bottom"/>
  <anchor x="133" y="282" name="center"/>
  <anchor x="131" y="524" name="top"/>
  <anchor x="126" y="678" name="topright"/>
  <outline>
    <contour>
      <point x="151" y="0" type="curve" smooth="yes"/>
      <point x="243" y="0" type="line"/>
      <point x="243" y="59" type="line"/>
      <point x="164" y="59" type="line"/>
      <point x="164" y="674" type="line"/>
      <point x="92" y="674" type="line"/>
      <point x="92" y="55" type="line" smooth="yes"/>
      <point x="92" y="17"/>
      <point x="112" y="0"/>
    </contour>
    <contour>
      <point x="23" y="465" type="line"/>
      <point x="243" y="465" type="line"/>
      <point x="243" y="524" type="line"/>
      <point x="23" y="524" type="line"/>
    </contour>
  </outline>
</glyph>
<glyph name="v" format="2">
  <advance width="381"/>
  <unicode hex="0076"/>
  <note>
v
</note>
  <anchor x="191" y="0" name="bottom"/>
  <anchor x="191" y="524" name="top"/>
  <outline>
    <contour>
      <point x="144" y="0" type="line"/>
      <point x="240" y="0" type="line"/>
      <point x="358" y="524" type="line"/>
      <point x="285" y="524" type="line"/>
      <point x="203" y="131" type="line"/>
      <point x="193" y="59" type="line"/>
      <point x="189" y="59" type="line"/>
      <point x="179" y="131" type="line"/>
      <point x="96" y="524" type="line"/>
      <point x="23" y="524" type="line"/>
    </contour>
  </outline>
</glyph>
<glyph name="w" format="2">
  <advance width="555"/>
  <unicode hex="0077"/>
  <note>
w
</note>
  <anchor x="278" y="0" name="bottom"/>
  <anchor x="278" y="524" name="top"/>
  <outline>
    <contour>
      <point x="115" y="0" type="line"/>
      <point x="210" y="0" type="line"/>
      <point x="272" y="407" type="line"/>
      <point x="276" y="443" type="line"/>
      <point x="281" y="443" type="line"/>
      <point x="284" y="407" type="line"/>
      <point x="348" y="0" type="line"/>
      <point x="442" y="0" type="line"/>
      <point x="530" y="524" type="line"/>
      <point x="460" y="524" type="line"/>
      <point x="396" y="105" type="line"/>
      <point x="393" y="73" type="line"/>
      <point x="388" y="73" type="line"/>
      <point x="384" y="105" type="line"/>
      <point x="318" y="524" type="line"/>
      <point x="241" y="524" type="line"/>
      <point x="174" y="105" type="line"/>
      <point x="171" y="73" type="line"/>
      <point x="166" y="73" type="line"/>
      <point x="162" y="105" type="line"/>
      <point x="99" y="524" type="line"/>
      <point x="25" y="524" type="line"/>
    </contour>
  </outline>
</glyph>
<glyph name="x" format="2">
  <advance width="389"/>
  <unicode hex="0078"/>
  <note>
x
</note>
  <anchor x="195" y="0" name="bottom"/>
  <anchor x="195" y="524" name="top"/>
  <outline>
    <contour>
      <point x="22" y="0" type="line"/>
      <point x="95" y="0" type="line"/>
      <point x="192" y="220" type="line"/>
      <point x="195" y="220" type="line"/>
      <point x="293" y="0" type="line"/>
      <point x="366" y="0" type="line"/>
      <point x="236" y="279" type="line"/>
      <point x="358" y="524" type="line"/>
      <point x="283" y="524" type="line"/>
      <point x="195" y="326" type="line"/>
      <point x="192" y="326" type="line"/>
      <point x="104" y="524" type="line"/>
      <point x="30" y="524" type="line"/>
      <point x="150" y="276" type="line"/>
    </contour>
  </outline>
</glyph>
<glyph name="y" format="2">
  <advance width="383"/>
  <unicode hex="0079"/>
  <note>
y
</note>
  <anchor x="327" y="0" name="bottom"/>
  <anchor x="192" y="524" name="top"/>
  <outline>
    <contour>
      <point x="51" y="-168" type="line"/>
      <point x="162" y="-168" type="line" smooth="yes"/>
      <point x="202" y="-168"/>
      <point x="227" y="-147"/>
      <point x="227" y="-101" type="curve" smooth="yes"/>
      <point x="227" y="27" type="line"/>
      <point x="360" y="524" type="line"/>
      <point x="287" y="524" type="line"/>
      <point x="203" y="164" type="line"/>
      <point x="194" y="112" type="line"/>
      <point x="190" y="112" type="line"/>
      <point x="180" y="164" type="line"/>
      <point x="97" y="524" type="line"/>
      <point x="23" y="524" type="line"/>
      <point x="155" y="30" type="line"/>
      <point x="155" y="-108" type="line"/>
      <point x="51" y="-108" type="line"/>
    </contour>
  </outline>
</glyph>
<glyph name="z" format="2">
  <advance width="336"/>
  <unicode hex="007A"/>
  <note>
z
</note>
  <anchor x="166" y="0" name="bottom"/>
  <anchor x="166" y="262" name="center"/>
  <anchor x="166" y="524" name="top"/>
  <outline>
    <contour>
      <point x="27" y="0" type="line"/>
      <point x="308" y="0" type="line"/>
      <point x="308" y="59" type="line"/>
      <point x="108" y="59" type="line"/>
      <point x="303" y="469" type="line"/>
      <point x="303" y="524" type="line"/>
      <point x="35" y="524" type="line"/>
      <point x="35" y="465" type="line"/>
      <point x="223" y="465" type="line"/>
      <point x="27" y="54" type="line"/>
    </contour>
  </outline>
</glyph>
<glyph name="braceleft" format="2">
  <advance width="312"/>
  <unicode hex="007B"/>
  <outline>
    <contour>
      <point x="178" y="-167" type="curve" smooth="yes"/>
      <point x="278" y="-167" type="line"/>
      <point x="278" y="-111" type="line"/>
      <point x="181" y="-111" type="line"/>
      <point x="181" y="202" type="line" smooth="yes"/>
      <point x="181" y="261"/>
      <point x="152" y="304"/>
      <point x="106" y="313" type="curve"/>
      <point x="106" y="317" type="line"/>
      <point x="151" y="322"/>
      <point x="181" y="367"/>
      <point x="181" y="428" type="curve" smooth="yes"/>
      <point x="181" y="737" type="line"/>
      <point x="278" y="737" type="line"/>
      <point x="278" y="793" type="line"/>
      <point x="178" y="793" type="line" smooth="yes"/>
      <point x="133" y="793"/>
      <point x="113" y="766"/>
      <point x="113" y="727" type="curve" smooth="yes"/>
      <point x="113" y="427" type="line" smooth="yes"/>
      <point x="113" y="373"/>
      <point x="83" y="343"/>
      <point x="50" y="343" type="curve" smooth="yes"/>
      <point x="32" y="343" type="line"/>
      <point x="32" y="284" type="line"/>
      <point x="50" y="284" type="line" smooth="yes"/>
      <point x="83" y="284"/>
      <point x="113" y="255"/>
      <point x="113" y="201" type="curve" smooth="yes"/>
      <point x="113" y="-101" type="line" smooth="yes"/>
      <point x="113" y="-140"/>
      <point x="133" y="-167"/>
    </contour>
  </outline>
</glyph>
<glyph name="bar" format="2">
  <advance width="269"/>
  <unicode hex="007C"/>
  <outline>
    <contour>
      <point x="101" y="-67" type="line"/>
      <point x="168" y="-67" type="line"/>
      <point x="168" y="729" type="line"/>
      <point x="101" y="729" type="line"/>
    </contour>
  </outline>
</glyph>
<glyph name="asciitilde" format="2">
  <advance width="451"/>
  <unicode hex="007E"/>
  <outline>
    <contour>
      <point x="64" y="303" type="curve"/>
      <point x="104" y="303" type="line"/>
      <point x="101" y="339"/>
      <point x="109" y="367"/>
      <point x="143" y="367" type="curve" smooth="yes"/>
      <point x="185" y="367"/>
      <point x="245" y="302"/>
      <point x="308" y="302" type="curve" smooth="yes"/>
      <point x="359" y="302"/>
      <point x="397" y="340"/>
      <point x="387" y="428" type="curve"/>
      <point x="347" y="428" type="line"/>
      <point x="349" y="390"/>
      <point x="339" y="365"/>
      <point x="304" y="365" type="curve" smooth="yes"/>
      <point x="259" y="365"/>
      <point x="200" y="429"/>
      <point x="142" y="429" type="curve" smooth="yes"/>
      <point x="92" y="429"/>
      <point x="54" y="392"/>
    </contour>
  </outline>
</glyph>
<glyph name="cent" format="2">
  <advance width="410"/>
  <unicode hex="00A2"/>
  <anchor x="203" y="103" name="bottom"/>
  <anchor x="203" y="627" name="top"/>
  <outline>
    <contour>
      <point x="184" y="612" type="line"/>
      <point x="234" y="612" type="line"/>
      <point x="244" y="729" type="line"/>
      <point x="174" y="729" type="line"/>
    </contour>
    <contour>
      <point x="174" y="0" type="line"/>
      <point x="244" y="0" type="line"/>
      <point x="234" y="117" type="line"/>
      <point x="184" y="117" type="line"/>
    </contour>
    <contour>
      <point x="209" y="96" type="curve" smooth="yes"/>
      <point x="314" y="96"/>
      <point x="368" y="168"/>
      <point x="367" y="284" type="curve"/>
      <point x="300" y="284" type="line"/>
      <point x="300" y="187"/>
      <point x="265" y="154"/>
      <point x="210" y="154" type="curve" smooth="yes"/>
      <point x="152" y="154"/>
      <point x="120" y="194"/>
      <point x="120" y="252" type="curve" smooth="yes"/>
      <point x="120" y="477" type="line" smooth="yes"/>
      <point x="120" y="536"/>
      <point x="152" y="576"/>
      <point x="210" y="576" type="curve" smooth="yes"/>
      <point x="265" y="576"/>
      <point x="300" y="545"/>
      <point x="300" y="445" type="curve"/>
      <point x="367" y="445" type="line"/>
      <point x="368" y="559"/>
      <point x="318" y="634"/>
      <point x="210" y="634" type="curve" smooth="yes"/>
      <point x="107" y="634"/>
      <point x="48" y="562"/>
      <point x="48" y="442" type="curve" smooth="yes"/>
      <point x="48" y="288" type="line" smooth="yes"/>
      <point x="48" y="171"/>
      <point x="103" y="96"/>
    </contour>
  </outline>
</glyph>
<glyph name="sterling" format="2">
  <advance width="510"/>
  <unicode hex="00A3"/>
  <outline>
    <contour>
      <point x="41" y="0" type="line"/>
      <point x="458" y="0" type="line"/>
      <point x="458" y="188" type="line"/>
      <point x="391" y="188" type="line"/>
      <point x="391" y="64" type="line"/>
      <point x="179" y="64" type="line"/>
      <point x="179" y="333" type="line"/>
      <point x="343" y="333" type="line"/>
      <point x="343" y="391" type="line"/>
      <point x="179" y="391" type="line"/>
      <point x="179" y="529" type="line" smooth="yes"/>
      <point x="179" y="614"/>
      <point x="209" y="670"/>
      <point x="282" y="670" type="curve" smooth="yes"/>
      <point x="348" y="670"/>
      <point x="390" y="628"/>
      <point x="390" y="529" type="curve" smooth="yes"/>
      <point x="390" y="504" type="line"/>
      <point x="463" y="504" type="line"/>
      <point x="463" y="532" type="line" smooth="yes"/>
      <point x="463" y="660"/>
      <point x="398" y="737"/>
      <point x="281" y="737" type="curve" smooth="yes"/>
      <point x="175" y="737"/>
      <point x="104" y="672"/>
      <point x="104" y="532" type="curve" smooth="yes"/>
      <point x="104" y="391" type="line"/>
      <point x="41" y="381" type="line"/>
      <point x="41" y="333" type="line"/>
      <point x="104" y="333" type="line"/>
      <point x="104" y="64" type="line"/>
      <point x="41" y="64" type="line"/>
    </contour>
  </outline>
</glyph>
<glyph name="currency" format="2">
  <advance width="636"/>
  <unicode hex="00A4"/>
  <outline>
    <contour>
      <point x="140" y="135" type="line"/>
      <point x="227" y="227" type="line"/>
      <point x="254" y="210"/>
      <point x="284" y="200"/>
      <point x="318" y="200" type="curve" smooth="yes"/>
      <point x="354" y="200"/>
      <point x="383" y="210"/>
      <point x="408" y="228" type="curve"/>
      <point x="497" y="135" type="line"/>
      <point x="539" y="177" type="line"/>
      <point x="452" y="267" type="line"/>
      <point x="469" y="289"/>
      <point x="482" y="321"/>
      <point x="482" y="360" type="curve" smooth="yes"/>
      <point x="482" y="396"/>
      <point x="471" y="428"/>
      <point x="452" y="456" type="curve"/>
      <point x="538" y="544" type="line"/>
      <point x="497" y="587" type="line"/>
      <point x="407" y="495" type="line"/>
      <point x="382" y="512"/>
      <point x="350" y="521"/>
      <point x="318" y="521" type="curve" smooth="yes"/>
      <point x="286" y="521"/>
      <point x="254" y="511"/>
      <point x="229" y="495" type="curve"/>
      <point x="140" y="587" type="line"/>
      <point x="98" y="544" type="line"/>
      <point x="184" y="456" type="line"/>
      <point x="165" y="430"/>
      <point x="154" y="395"/>
      <point x="154" y="360" type="curve" smooth="yes"/>
      <point x="154" y="328"/>
      <point x="163" y="294"/>
      <point x="183" y="267" type="curve"/>
      <point x="97" y="177" type="line"/>
    </contour>
    <contour>
      <point x="318" y="258" type="curve" smooth="yes"/>
      <point x="260" y="258"/>
      <point x="216" y="301"/>
      <point x="216" y="360" type="curve" smooth="yes"/>
      <point x="216" y="419"/>
      <point x="259" y="463"/>
      <point x="318" y="463" type="curve" smooth="yes"/>
      <point x="376" y="463"/>
      <point x="419" y="420"/>
      <point x="419" y="360" type="curve" smooth="yes"/>
      <point x="419" y="301"/>
      <point x="376" y="258"/>
    </contour>
  </outline>
</glyph>
<glyph name="section" format="2">
  <advance width="364"/>
  <unicode hex="00A7"/>
  <outline>
    <contour>
      <point x="180" y="-10" type="curve" smooth="yes"/>
      <point x="262" y="-10"/>
      <point x="315" y="41"/>
      <point x="315" y="126" type="curve" smooth="yes"/>
      <point x="315" y="181"/>
      <point x="298" y="216"/>
      <point x="269" y="244" type="curve"/>
      <point x="296" y="270"/>
      <point x="312" y="308"/>
      <point x="312" y="345" type="curve" smooth="yes"/>
      <point x="312" y="432"/>
      <point x="269" y="471"/>
      <point x="209" y="507" type="curve" smooth="yes"/>
      <point x="166" y="533"/>
      <point x="127" y="558"/>
      <point x="127" y="617" type="curve" smooth="yes"/>
      <point x="127" y="658"/>
      <point x="141" y="687"/>
      <point x="184" y="687" type="curve" smooth="yes"/>
      <point x="233" y="687"/>
      <point x="249" y="650"/>
      <point x="251" y="576" type="curve"/>
      <point x="316" y="576" type="line"/>
      <point x="316" y="695"/>
      <point x="262" y="739"/>
      <point x="185" y="739" type="curve" smooth="yes"/>
      <point x="111" y="739"/>
      <point x="58" y="698"/>
      <point x="58" y="611" type="curve" smooth="yes"/>
      <point x="58" y="558"/>
      <point x="78" y="522"/>
      <point x="111" y="493" type="curve"/>
      <point x="81" y="468"/>
      <point x="63" y="431"/>
      <point x="63" y="395" type="curve" smooth="yes"/>
      <point x="63" y="315"/>
      <point x="101" y="277"/>
      <point x="153" y="245" type="curve" smooth="yes"/>
      <point x="218" y="204"/>
      <point x="246" y="180"/>
      <point x="246" y="123" type="curve" smooth="yes"/>
      <point x="246" y="75"/>
      <point x="226" y="42"/>
      <point x="182" y="42" type="curve" smooth="yes"/>
      <point x="127" y="42"/>
      <point x="107" y="89"/>
      <point x="107" y="162" type="curve"/>
      <point x="41" y="162" type="line"/>
      <point x="42" y="45"/>
      <point x="95" y="-10"/>
    </contour>
    <contour>
      <point x="226" y="274" type="curve"/>
      <point x="216" y="282"/>
      <point x="207" y="288"/>
      <point x="196" y="295" type="curve" smooth="yes"/>
      <point x="154" y="322"/>
      <point x="126" y="348"/>
      <point x="126" y="403" type="curve" smooth="yes"/>
      <point x="126" y="425"/>
      <point x="136" y="448"/>
      <point x="152" y="466" type="curve"/>
      <point x="159" y="461"/>
      <point x="165" y="457"/>
      <point x="173" y="452" type="curve" smooth="yes"/>
      <point x="215" y="426"/>
      <point x="247" y="397"/>
      <point x="247" y="337" type="curve" smooth="yes"/>
      <point x="247" y="313"/>
      <point x="240" y="291"/>
    </contour>
  </outline>
</glyph>
<glyph name="ordfeminine" format="2">
  <advance width="258"/>
  <unicode hex="00AA"/>
  <outline>
    <contour>
      <point x="97" y="385" type="curve" smooth="yes"/>
      <point x="134" y="385"/>
      <point x="163" y="407"/>
      <point x="169" y="444" type="curve"/>
      <point x="173" y="444" type="line"/>
      <point x="174" y="392" type="line"/>
      <point x="227" y="392" type="line"/>
      <point x="227" y="632" type="line" smooth="yes"/>
      <point x="227" y="712"/>
      <point x="188" y="740"/>
      <point x="128" y="740" type="curve" smooth="yes"/>
      <point x="67" y="740"/>
      <point x="26" y="706"/>
      <point x="27" y="635" type="curve"/>
      <point x="77" y="635" type="line"/>
      <point x="77" y="671"/>
      <point x="92" y="693"/>
      <point x="124" y="693" type="curve" smooth="yes"/>
      <point x="154" y="693"/>
      <point x="169" y="677"/>
      <point x="169" y="632" type="curve" smooth="yes"/>
      <point x="169" y="574" type="line"/>
      <point x="186" y="590" type="line"/>
      <point x="124" y="590" type="line" smooth="yes"/>
      <point x="46" y="590"/>
      <point x="20" y="539"/>
      <point x="20" y="492" type="curve" smooth="yes"/>
      <point x="20" y="475" type="line" smooth="yes"/>
      <point x="20" y="417"/>
      <point x="48" y="385"/>
    </contour>
    <contour>
      <point x="121" y="430" type="curve" smooth="yes"/>
      <point x="94" y="430"/>
      <point x="76" y="445"/>
      <point x="76" y="483" type="curve" smooth="yes"/>
      <point x="76" y="495" type="line" smooth="yes"/>
      <point x="76" y="531"/>
      <point x="93" y="555"/>
      <point x="135" y="555" type="curve" smooth="yes"/>
      <point x="169" y="555" type="line"/>
      <point x="169" y="500" type="line" smooth="yes"/>
      <point x="169" y="459"/>
      <point x="154" y="430"/>
    </contour>
  </outline>
</glyph>
<glyph name="logicalnot" format="2">
  <advance width="500"/>
  <unicode hex="00AC"/>
  <outline>
    <contour>
      <point x="390" y="144" type="line"/>
      <point x="452" y="144" type="line"/>
      <point x="452" y="390" type="line"/>
      <point x="-23" y="390" type="line"/>
      <point x="-23" y="327" type="line"/>
      <point x="390" y="327" type="line"/>
    </contour>
  </outline>
</glyph>
<glyph name="registered" format="2">
  <advance width="449"/>
  <unicode hex="00AE"/>
  <outline>
    <contour>
      <point x="225" y="284" type="curve" smooth="yes"/>
      <point x="333" y="284"/>
      <point x="403" y="375"/>
      <point x="403" y="510" type="curve" smooth="yes"/>
      <point x="403" y="645"/>
      <point x="333" y="736"/>
      <point x="225" y="736" type="curve" smooth="yes"/>
      <point x="116" y="736"/>
      <point x="46" y="645"/>
      <point x="46" y="510" type="curve" smooth="yes"/>
      <point x="46" y="375"/>
      <point x="116" y="284"/>
    </contour>
    <contour>
      <point x="225" y="318" type="curve" smooth="yes"/>
      <point x="134" y="318"/>
      <point x="81" y="393"/>
      <point x="81" y="510" type="curve" smooth="yes"/>
      <point x="81" y="626"/>
      <point x="134" y="702"/>
      <point x="225" y="702" type="curve" smooth="yes"/>
      <point x="315" y="702"/>
      <point x="368" y="626"/>
      <point x="368" y="510" type="curve" smooth="yes"/>
      <point x="368" y="393"/>
      <point x="315" y="318"/>
    </contour>
    <contour>
      <point x="162" y="370" type="line"/>
      <point x="204" y="370" type="line"/>
      <point x="204" y="615" type="line"/>
      <point x="224" y="615" type="line" smooth="yes"/>
      <point x="244" y="615"/>
      <point x="257" y="603"/>
      <point x="257" y="576" type="curve" smooth="yes"/>
      <point x="257" y="555" type="line" smooth="yes"/>
      <point x="257" y="532"/>
      <point x="245" y="516"/>
      <point x="224" y="516" type="curve" smooth="yes"/>
      <point x="200" y="516" type="line"/>
      <point x="200" y="480" type="line"/>
      <point x="223" y="480" type="line"/>
      <point x="259" y="370" type="line"/>
      <point x="304" y="370" type="line"/>
      <point x="260" y="495" type="line"/>
      <point x="260" y="492" type="line"/>
      <point x="259" y="490" type="line"/>
      <point x="289" y="500"/>
      <point x="302" y="530"/>
      <point x="302" y="567" type="curve" smooth="yes"/>
      <point x="302" y="618"/>
      <point x="278" y="651"/>
      <point x="230" y="651" type="curve" smooth="yes"/>
      <point x="162" y="651" type="line"/>
    </contour>
  </outline>
</glyph>
<glyph name="degree" format="2">
  <advance width="355"/>
  <unicode hex="00B0"/>
  <outline>
    <contour>
      <point x="178" y="434" type="curve" smooth="yes"/>
      <point x="256" y="434"/>
      <point x="301" y="494"/>
      <point x="301" y="584" type="curve" smooth="yes"/>
      <point x="301" y="677"/>
      <point x="255" y="735"/>
      <point x="178" y="735" type="curve" smooth="yes"/>
      <point x="100" y="735"/>
      <point x="54" y="677"/>
      <point x="54" y="584" type="curve" smooth="yes"/>
      <point x="54" y="492"/>
      <point x="100" y="434"/>
    </contour>
    <contour>
      <point x="178" y="484" type="curve" smooth="yes"/>
      <point x="137" y="484"/>
      <point x="112" y="517"/>
      <point x="112" y="584" type="curve" smooth="yes"/>
      <point x="112" y="652"/>
      <point x="137" y="685"/>
      <point x="178" y="685" type="curve" smooth="yes"/>
      <point x="218" y="685"/>
      <point x="243" y="652"/>
      <point x="243" y="584" type="curve" smooth="yes"/>
      <point x="243" y="517"/>
      <point x="218" y="484"/>
    </contour>
  </outline>
</glyph>
<glyph name="plusminus" format="2">
  <advance width="500"/>
  <unicode hex="00B1"/>
  <outline>
    <contour>
      <point x="193" y="173" type="line"/>
      <point x="257" y="173" type="line"/>
      <point x="257" y="336" type="line"/>
      <point x="425" y="336" type="line"/>
      <point x="425" y="396" type="line"/>
      <point x="257" y="396" type="line"/>
      <point x="257" y="558" type="line"/>
      <point x="193" y="558" type="line"/>
      <point x="193" y="396" type="line"/>
      <point x="25" y="396" type="line"/>
      <point x="25" y="336" type="line"/>
      <point x="193" y="336" type="line"/>
    </contour>
    <contour>
      <point x="25" y="0" type="line"/>
      <point x="425" y="0" type="line"/>
      <point x="425" y="59" type="line"/>
      <point x="25" y="59" type="line"/>
    </contour>
  </outline>
</glyph>
<glyph name="paragraph" format="2">
  <advance width="620"/>
  <unicode hex="00B6"/>
  <outline>
    <contour>
      <point x="217" y="-151" type="line"/>
      <point x="292" y="-151" type="line"/>
      <point x="292" y="660" type="line"/>
      <point x="427" y="660" type="line"/>
      <point x="427" y="-151" type="line"/>
      <point x="500" y="-151" type="line"/>
      <point x="500" y="660" type="line"/>
      <point x="570" y="660" type="line"/>
      <point x="570" y="729" type="line"/>
      <point x="217" y="729" type="line" smooth="yes"/>
      <point x="97" y="729"/>
      <point x="19" y="672"/>
      <point x="19" y="558" type="curve" smooth="yes"/>
      <point x="19" y="453"/>
      <point x="85" y="385"/>
      <point x="217" y="386" type="curve"/>
    </contour>
  </outline>
</glyph>
<glyph name="ordmasculine" format="2">
  <advance width="263"/>
  <unicode hex="00BA"/>
  <outline>
    <contour>
      <point x="132" y="385" type="curve" smooth="yes"/>
      <point x="201" y="385"/>
      <point x="243" y="425"/>
      <point x="243" y="513" type="curve" smooth="yes"/>
      <point x="243" y="614" type="line" smooth="yes"/>
      <point x="243" y="698"/>
      <point x="203" y="740"/>
      <point x="132" y="740" type="curve" smooth="yes"/>
      <point x="62" y="740"/>
      <point x="20" y="700"/>
      <point x="20" y="614" type="curve" smooth="yes"/>
      <point x="20" y="513" type="line" smooth="yes"/>
      <point x="20" y="429"/>
      <point x="60" y="385"/>
    </contour>
    <contour>
      <point x="132" y="433" type="curve" smooth="yes"/>
      <point x="93" y="433"/>
      <point x="76" y="460"/>
      <point x="76" y="505" type="curve" smooth="yes"/>
      <point x="76" y="623" type="line" smooth="yes"/>
      <point x="76" y="666"/>
      <point x="93" y="693"/>
      <point x="132" y="693" type="curve" smooth="yes"/>
      <point x="171" y="693"/>
      <point x="187" y="666"/>
      <point x="187" y="623" type="curve" smooth="yes"/>
      <point x="187" y="505" type="line" smooth="yes"/>
      <point x="187" y="460"/>
      <point x="171" y="433"/>
    </contour>
  </outline>
</glyph>
<glyph name="multiply" format="2">
  <advance width="500"/>
  <unicode hex="00D7"/>
  <outline>
    <contour>
      <point x="73" y="165" type="line"/>
      <point x="427" y="519" type="line"/>
      <point x="381" y="565" type="line"/>
      <point x="27" y="211" type="line"/>
    </contour>
    <contour>
      <point x="381" y="165" type="line"/>
      <point x="427" y="211" type="line"/>
      <point x="73" y="565" type="line"/>
      <point x="27" y="519" type="line"/>
    </contour>
  </outline>
</glyph>
<glyph name="Thorn" format="2">
  <advance width="413"/>
  <unicode hex="00DE"/>
  <outline>
    <contour>
      <point x="61" y="0" type="line"/>
      <point x="134" y="0" type="line"/>
      <point x="134" y="729" type="line"/>
      <point x="61" y="729" type="line"/>
    </contour>
    <contour>
      <point x="123" y="159" type="line"/>
      <point x="200" y="159" type="line" smooth="yes"/>
      <point x="308" y="159"/>
      <point x="375" y="213"/>
      <point x="375" y="366" type="curve" smooth="yes"/>
      <point x="375" y="510"/>
      <point x="311" y="571"/>
      <point x="193" y="571" type="curve" smooth="yes"/>
      <point x="123" y="571" type="line"/>
      <point x="123" y="512" type="line"/>
      <point x="195" y="512" type="line" smooth="yes"/>
      <point x="271" y="512"/>
      <point x="303" y="469"/>
      <point x="303" y="394" type="curve" smooth="yes"/>
      <point x="303" y="336" type="line" smooth="yes"/>
      <point x="303" y="264"/>
      <point x="275" y="217"/>
      <point x="195" y="217" type="curve" smooth="yes"/>
      <point x="123" y="217" type="line"/>
    </contour>
  </outline>
</glyph>
<glyph name="germandbls" format="2">
  <advance width="476"/>
  <unicode hex="00DF"/>
  <outline>
    <contour>
      <point x="101" y="0" type="line"/>
      <point x="174" y="0" type="line"/>
      <point x="174" y="548" type="line" smooth="yes"/>
      <point x="174" y="636"/>
      <point x="204" y="669"/>
      <point x="257" y="669" type="curve" smooth="yes"/>
      <point x="314" y="669"/>
      <point x="345" y="630"/>
      <point x="345" y="548" type="curve" smooth="yes"/>
      <point x="345" y="471"/>
      <point x="316" y="417"/>
      <point x="254" y="417" type="curve" smooth="yes"/>
      <point x="226" y="417" type="line"/>
      <point x="226" y="362" type="line"/>
      <point x="260" y="362" type="line" smooth="yes"/>
      <point x="324" y="362"/>
      <point x="372" y="324"/>
      <point x="372" y="242" type="curve" smooth="yes"/>
      <point x="372" y="191" type="line" smooth="yes"/>
      <point x="372" y="121"/>
      <point x="332" y="61"/>
      <point x="237" y="61" type="curve" smooth="yes"/>
      <point x="208" y="61" type="line"/>
      <point x="208" y="0" type="line"/>
      <point x="242" y="0" type="line" smooth="yes"/>
      <point x="363" y="0"/>
      <point x="446" y="65"/>
      <point x="446" y="211" type="curve" smooth="yes"/>
      <point x="446" y="311"/>
      <point x="401" y="386"/>
      <point x="323" y="397" type="curve"/>
      <point x="323" y="401" type="line"/>
      <point x="375" y="417"/>
      <point x="414" y="469"/>
      <point x="414" y="563" type="curve" smooth="yes"/>
      <point x="414" y="671"/>
      <point x="354" y="736"/>
      <point x="258" y="736" type="curve" smooth="yes"/>
      <point x="165" y="736"/>
      <point x="101" y="678"/>
      <point x="101" y="558" type="curve" smooth="yes"/>
    </contour>
    <contour>
      <point x="23" y="465" type="line"/>
      <point x="151" y="465" type="line"/>
      <point x="151" y="524" type="line"/>
      <point x="23" y="524" type="line"/>
    </contour>
  </outline>
</glyph>
<glyph name="ae" format="2">
  <advance width="619"/>
  <unicode hex="00E6"/>
  <outline>
    <contour>
      <point x="152" y="-7" type="curve" smooth="yes"/>
      <point x="210" y="-7"/>
      <point x="257" y="25"/>
      <point x="274" y="82" type="curve"/>
      <point x="280" y="82" type="line"/>
      <point x="298" y="24"/>
      <point x="353" y="-7"/>
      <point x="419" y="-7" type="curve" smooth="yes"/>
      <point x="523" y="-7"/>
      <point x="581" y="55"/>
      <point x="582" y="164" type="curve"/>
      <point x="512" y="164" type="line"/>
      <point x="512" y="108"/>
      <point x="496" y="51"/>
      <point x="423" y="51" type="curve" smooth="yes"/>
      <point x="356" y="51"/>
      <point x="331" y="98"/>
      <point x="331" y="174" type="curve" smooth="yes"/>
      <point x="331" y="372" type="line" smooth="yes"/>
      <point x="331" y="431"/>
      <point x="363" y="471"/>
      <point x="421" y="471" type="curve" smooth="yes"/>
      <point x="478" y="471"/>
      <point x="510" y="431"/>
      <point x="510" y="372" type="curve" smooth="yes"/>
      <point x="510" y="294" type="line"/>
      <point x="523" y="306" type="line"/>
      <point x="317" y="306" type="line"/>
      <point x="317" y="251" type="line"/>
      <point x="583" y="251" type="line"/>
      <point x="583" y="339" type="line" smooth="yes"/>
      <point x="583" y="453"/>
      <point x="532" y="530"/>
      <point x="424" y="531" type="curve" smooth="yes"/>
      <point x="374" y="531"/>
      <point x="328" y="511"/>
      <point x="303" y="469" type="curve"/>
      <point x="285" y="506"/>
      <point x="243" y="531"/>
      <point x="189" y="531" type="curve" smooth="yes"/>
      <point x="95" y="531"/>
      <point x="41" y="473"/>
      <point x="42" y="373" type="curve"/>
      <point x="108" y="373" type="line"/>
      <point x="108" y="417"/>
      <point x="121" y="469"/>
      <point x="185" y="469" type="curve" smooth="yes"/>
      <point x="229" y="469"/>
      <point x="259" y="444"/>
      <point x="259" y="379" type="curve" smooth="yes"/>
      <point x="259" y="343" type="line" smooth="yes"/>
      <point x="259" y="285"/>
      <point x="259" y="227"/>
      <point x="259" y="169" type="curve" smooth="yes"/>
      <point x="259" y="98"/>
      <point x="236" y="50"/>
      <point x="176" y="50" type="curve" smooth="yes"/>
      <point x="136" y="50"/>
      <point x="105" y="74"/>
      <point x="105" y="146" type="curve" smooth="yes"/>
      <point x="105" y="210"/>
      <point x="128" y="252"/>
      <point x="201" y="252" type="curve" smooth="yes"/>
      <point x="273" y="252" type="line"/>
      <point x="273" y="307" type="line"/>
      <point x="199" y="307" type="line" smooth="yes"/>
      <point x="99" y="307"/>
      <point x="32" y="252"/>
      <point x="32" y="136" type="curve" smooth="yes"/>
      <point x="32" y="50"/>
      <point x="75" y="-7"/>
    </contour>
  </outline>
</glyph>
<glyph name="eth" format="2">
  <advance width="398"/>
  <unicode hex="00F0"/>
  <outline>
    <contour>
      <point x="195" y="-7" type="curve" smooth="yes"/>
      <point x="298" y="-7"/>
      <point x="359" y="63"/>
      <point x="359" y="185" type="curve" smooth="yes"/>
      <point x="359" y="313" type="line" smooth="yes"/>
      <point x="359" y="454"/>
      <point x="301" y="601"/>
      <point x="185" y="729" type="curve"/>
      <point x="112" y="729" type="line"/>
      <point x="206" y="620"/>
      <point x="266" y="502"/>
      <point x="282" y="397" type="curve"/>
      <point x="275" y="397" type="line"/>
      <point x="254" y="438"/>
      <point x="216" y="455"/>
      <point x="176" y="455" type="curve" smooth="yes"/>
      <point x="87" y="455"/>
      <point x="36" y="390"/>
      <point x="36" y="276" type="curve" smooth="yes"/>
      <point x="36" y="179" type="line" smooth="yes"/>
      <point x="36" y="65"/>
      <point x="91" y="-7"/>
    </contour>
    <contour>
      <point x="198" y="50" type="curve" smooth="yes"/>
      <point x="139" y="50"/>
      <point x="108" y="91"/>
      <point x="108" y="150" type="curve" smooth="yes"/>
      <point x="108" y="303" type="line" smooth="yes"/>
      <point x="108" y="360"/>
      <point x="140" y="401"/>
      <point x="197" y="401" type="curve" smooth="yes"/>
      <point x="237" y="401"/>
      <point x="272" y="380"/>
      <point x="288" y="330" type="curve"/>
      <point x="288" y="308"/>
      <point x="288" y="288"/>
      <point x="288" y="267" type="curve" smooth="yes"/>
      <point x="288" y="150" type="line" smooth="yes"/>
      <point x="288" y="92"/>
      <point x="256" y="50"/>
    </contour>
    <contour>
      <point x="87" y="571" type="line"/>
      <point x="349" y="627" type="line"/>
      <point x="349" y="680" type="line"/>
      <point x="87" y="622" type="line"/>
    </contour>
  </outline>
</glyph>
<glyph name="divide" format="2">
  <advance width="500"/>
  <unicode hex="00F7"/>
  <outline>
    <contour>
      <point x="14" y="335" type="line"/>
      <point x="436" y="335" type="line"/>
      <point x="436" y="395" type="line"/>
      <point x="14" y="395" type="line"/>
    </contour>
    <contour>
      <point x="179" y="467" type="line"/>
      <point x="271" y="467" type="line"/>
      <point x="271" y="562" type="line"/>
      <point x="179" y="562" type="line"/>
    </contour>
    <contour>
      <point x="179" y="168" type="line"/>
      <point x="271" y="168" type="line"/>
      <point x="271" y="263" type="line"/>
      <point x="179" y="263" type="line"/>
    </contour>
  </outline>
</glyph>
<glyph name="thorn" format="2">
  <advance width="409"/>
  <unicode hex="00FE"/>
  <outline>
    <contour>
      <point x="50" y="-167" type="line"/>
      <point x="123" y="-167" type="line"/>
      <point x="123" y="77" type="line"/>
      <point x="128" y="77" type="line"/>
      <point x="146" y="24"/>
      <point x="187" y="-7"/>
      <point x="241" y="-7" type="curve" smooth="yes"/>
      <point x="327" y="-7"/>
      <point x="368" y="64"/>
      <point x="368" y="164" type="curve" smooth="yes"/>
      <point x="368" y="360" type="line" smooth="yes"/>
      <point x="368" y="459"/>
      <point x="327" y="531"/>
      <point x="241" y="531" type="curve" smooth="yes"/>
      <point x="187" y="531"/>
      <point x="146" y="499"/>
      <point x="128" y="447" type="curve"/>
      <point x="123" y="447" type="line"/>
      <point x="123" y="729" type="line"/>
      <point x="50" y="729" type="line"/>
    </contour>
    <contour>
      <point x="215" y="51" type="curve" smooth="yes"/>
      <point x="169" y="51"/>
      <point x="140" y="81"/>
      <point x="123" y="142" type="curve"/>
      <point x="123" y="382" type="line"/>
      <point x="140" y="443"/>
      <point x="169" y="473"/>
      <point x="215" y="473" type="curve" smooth="yes"/>
      <point x="263" y="473"/>
      <point x="297" y="440"/>
      <point x="297" y="373" type="curve" smooth="yes"/>
      <point x="297" y="151" type="line" smooth="yes"/>
      <point x="297" y="84"/>
      <point x="263" y="51"/>
    </contour>
  </outline>
</glyph>
<glyph name="idotless" format="2">
  <advance width="172"/>
  <unicode hex="0131"/>
  <anchor x="86" y="0" name="bottom"/>
  <anchor x="122" y="0" name="ogonek"/>
  <anchor x="86" y="524" name="top"/>
  <outline>
    <contour>
      <point x="50" y="0" type="line"/>
      <point x="122" y="0" type="line"/>
      <point x="122" y="524" type="line"/>
      <point x="50" y="524" type="line"/>
    </contour>
  </outline>
</glyph>
<glyph name="Eng" format="2">
  <advance width="468"/>
  <unicode hex="014A"/>
  <outline>
    <contour>
      <point x="259" y="-167" type="line"/>
      <point x="335" y="-167" type="line" smooth="yes"/>
      <point x="382" y="-167"/>
      <point x="407" y="-143"/>
      <point x="407" y="-98" type="curve" smooth="yes"/>
      <point x="407" y="729" type="line"/>
      <point x="337" y="729" type="line"/>
      <point x="337" y="139" type="line"/>
      <point x="332" y="139" type="line"/>
      <point x="325" y="172" type="line"/>
      <point x="156" y="729" type="line"/>
      <point x="61" y="729" type="line"/>
      <point x="61" y="0" type="line"/>
      <point x="131" y="0" type="line"/>
      <point x="131" y="588" type="line"/>
      <point x="134" y="588" type="line"/>
      <point x="142" y="557" type="line"/>
      <point x="313" y="0" type="line"/>
      <point x="334" y="0" type="line"/>
      <point x="334" y="-109" type="line"/>
      <point x="259" y="-109" type="line"/>
    </contour>
  </outline>
</glyph>
<glyph name="eng" format="2">
  <advance width="425"/>
  <unicode hex="014B"/>
  <outline>
    <contour>
      <point x="216" y="-167" type="line"/>
      <point x="309" y="-167" type="line" smooth="yes"/>
      <point x="355" y="-167"/>
      <point x="379" y="-143"/>
      <point x="379" y="-99" type="curve" smooth="yes"/>
      <point x="379" y="363" type="line" smooth="yes"/>
      <point x="379" y="463"/>
      <point x="337" y="531"/>
      <point x="251" y="531" type="curve" smooth="yes"/>
      <point x="194" y="531"/>
      <point x="149" y="499"/>
      <point x="127" y="446" type="curve"/>
      <point x="121" y="446" type="line"/>
      <point x="116" y="524" type="line"/>
      <point x="50" y="524" type="line"/>
      <point x="50" y="0" type="line"/>
      <point x="122" y="0" type="line"/>
      <point x="122" y="378" type="line"/>
      <point x="138" y="433"/>
      <point x="172" y="469"/>
      <point x="225" y="469" type="curve" smooth="yes"/>
      <point x="277" y="469"/>
      <point x="307" y="435"/>
      <point x="307" y="370" type="curve" smooth="yes"/>
      <point x="307" y="-107" type="line"/>
      <point x="216" y="-107" type="line"/>
    </contour>
  </outline>
</glyph>
<glyph name="florin" format="2">
  <advance width="454"/>
  <unicode hex="0192"/>
  <outline>
    <contour>
      <point x="222" y="-5" type="curve"/>
      <point x="314" y="662" type="line"/>
      <point x="423" y="662" type="line"/>
      <point x="423" y="729" type="line"/>
      <point x="326" y="729" type="line" smooth="yes"/>
      <point x="278" y="729"/>
      <point x="242" y="703"/>
      <point x="234" y="647" type="curve" smooth="yes"/>
      <point x="140" y="-18" type="line"/>
      <point x="31" y="-18" type="line"/>
      <point x="31" y="-85" type="line"/>
      <point x="129" y="-85" type="line" smooth="yes"/>
      <point x="179" y="-85"/>
      <point x="215" y="-59"/>
    </contour>
    <contour>
      <point x="100" y="410" type="line"/>
      <point x="406" y="410" type="line"/>
      <point x="406" y="476" type="line"/>
      <point x="100" y="476" type="line"/>
    </contour>
  </outline>
</glyph>
<glyph name="jdotless" format="2">
  <advance width="172"/>
  <unicode hex="0237"/>
  <anchor x="86" y="524" name="top"/>
  <outline>
    <contour>
      <point x="-25" y="-167" type="line"/>
      <point x="52" y="-167" type="line" smooth="yes"/>
      <point x="97" y="-167"/>
      <point x="122" y="-143"/>
      <point x="122" y="-99" type="curve" smooth="yes"/>
      <point x="122" y="524" type="line"/>
      <point x="50" y="524" type="line"/>
      <point x="50" y="-107" type="line"/>
      <point x="-25" y="-107" type="line"/>
    </contour>
  </outline>
</glyph>
<glyph name="gravecomb" format="2">
  <unicode hex="0300"/>
  <anchor x="148" y="524" name="_top"/>
  <outline>
    <contour>
      <point x="112" y="595" type="line"/>
      <point x="184" y="595" type="line"/>
      <point x="117" y="729" type="line"/>
      <point x="40" y="729" type="line"/>
    </contour>
  </outline>
</glyph>
<glyph name="acutecomb" format="2">
  <unicode hex="0301"/>
  <anchor x="76" y="524" name="_top"/>
  <outline>
    <contour>
      <point x="40" y="595" type="line"/>
      <point x="112" y="595" type="line"/>
      <point x="184" y="729" type="line"/>
      <point x="107" y="729" type="line"/>
    </contour>
  </outline>
</glyph>
<glyph name="circumflexcomb" format="2">
  <unicode hex="0302"/>
  <anchor x="150" y="524" name="_top"/>
  <outline>
    <contour>
      <point x="40" y="595" type="line"/>
      <point x="105" y="595" type="line"/>
      <point x="150" y="684" type="line"/>
      <point x="196" y="595" type="line"/>
      <point x="261" y="595" type="line"/>
      <point x="188" y="729" type="line"/>
      <point x="113" y="729" type="line"/>
    </contour>
  </outline>
</glyph>
<glyph name="tildecomb" format="2">
  <unicode hex="0303"/>
  <anchor x="176" y="527" name="_top"/>
  <outline>
    <contour>
      <point x="242" y="607" type="curve" smooth="yes"/>
      <point x="290" y="607"/>
      <point x="316" y="647"/>
      <point x="313" y="713" type="curve"/>
      <point x="276" y="713" type="line"/>
      <point x="275" y="684"/>
      <point x="265" y="667"/>
      <point x="239" y="667" type="curve" smooth="yes"/>
      <point x="198" y="667"/>
      <point x="160" y="714"/>
      <point x="108" y="714" type="curve" smooth="yes"/>
      <point x="70" y="714"/>
      <point x="37" y="686"/>
      <point x="40" y="608" type="curve"/>
      <point x="77" y="608" type="line"/>
      <point x="77" y="632"/>
      <point x="84" y="655"/>
      <point x="110" y="655" type="curve" smooth="yes"/>
      <point x="148" y="655"/>
      <point x="186" y="607"/>
    </contour>
  </outline>
</glyph>
<glyph name="macroncomb" format="2">
  <unicode hex="0304"/>
  <anchor x="181" y="524" name="_top"/>
  <outline>
    <contour>
      <point x="40" y="607" type="line"/>
      <point x="321" y="607" type="line"/>
      <point x="321" y="668" type="line"/>
      <point x="40" y="668" type="line"/>
    </contour>
  </outline>
</glyph>
<glyph name="brevecomb" format="2">
  <unicode hex="0306"/>
  <anchor x="144" y="524" name="_top"/>
  <outline>
    <contour>
      <point x="143" y="588" type="curve" smooth="yes"/>
      <point x="208" y="588"/>
      <point x="246" y="637"/>
      <point x="246" y="729" type="curve"/>
      <point x="192" y="729" type="line"/>
      <point x="192" y="673"/>
      <point x="176" y="639"/>
      <point x="143" y="639" type="curve" smooth="yes"/>
      <point x="112" y="639"/>
      <point x="94" y="669"/>
      <point x="94" y="729" type="curve"/>
      <point x="40" y="729" type="line"/>
      <point x="40" y="641"/>
      <point x="73" y="588"/>
    </contour>
  </outline>
</glyph>
<glyph name="dotaccentcomb" format="2">
  <unicode hex="0307"/>
  <anchor x="77" y="524" name="_top"/>
  <outline>
    <contour>
      <point x="40" y="609" type="line"/>
      <point x="114" y="609" type="line"/>
      <point x="114" y="729" type="line"/>
      <point x="40" y="729" type="line"/>
    </contour>
  </outline>
</glyph>
<glyph name="dieresiscomb" format="2">
  <unicode hex="0308"/>
  <anchor x="163" y="524" name="_top"/>
  <outline>
    <contour>
      <point x="40" y="612" type="line"/>
      <point x="110" y="612" type="line"/>
      <point x="110" y="736" type="line"/>
      <point x="40" y="736" type="line"/>
    </contour>
    <contour>
      <point x="215" y="612" type="line"/>
      <point x="285" y="612" type="line"/>
      <point x="285" y="736" type="line"/>
      <point x="215" y="736" type="line"/>
    </contour>
  </outline>
</glyph>
<glyph name="hookabovecomb" format="2">
  <unicode hex="0309"/>
  <anchor x="98" y="524" name="_top"/>
  <outline>
    <contour>
      <point x="85" y="581" type="line"/>
      <point x="147" y="620"/>
      <point x="174" y="661"/>
      <point x="174" y="706" type="curve" smooth="yes"/>
      <point x="174" y="755"/>
      <point x="138" y="783"/>
      <point x="90" y="783" type="curve" smooth="yes"/>
      <point x="74" y="783"/>
      <point x="55" y="780"/>
      <point x="40" y="774" type="curve"/>
      <point x="40" y="730" type="line"/>
      <point x="49" y="734"/>
      <point x="61" y="736"/>
      <point x="74" y="736" type="curve" smooth="yes"/>
      <point x="100" y="736"/>
      <point x="115" y="722"/>
      <point x="115" y="698" type="curve" smooth="yes"/>
      <point x="115" y="671"/>
      <point x="99" y="647"/>
      <point x="57" y="617" type="curve"/>
    </contour>
  </outline>
</glyph>
<glyph name="ringcomb" format="2">
  <unicode hex="030A"/>
  <anchor x="117" y="524" name="_top"/>
  <outline>
    <contour>
      <point x="117" y="588" type="curve" smooth="yes"/>
      <point x="164" y="588"/>
      <point x="194" y="626"/>
      <point x="194" y="687" type="curve" smooth="yes"/>
      <point x="194" y="745"/>
      <point x="165" y="785"/>
      <point x="117" y="785" type="curve" smooth="yes"/>
      <point x="71" y="785"/>
      <point x="40" y="748"/>
      <point x="40" y="687" type="curve" smooth="yes"/>
      <point x="40" y="628"/>
      <point x="69" y="588"/>
    </contour>
    <contour>
      <point x="117" y="629" type="curve" smooth="yes"/>
      <point x="97" y="629"/>
      <point x="85" y="647"/>
      <point x="85" y="687" type="curve" smooth="yes"/>
      <point x="85" y="722"/>
      <point x="95" y="745"/>
      <point x="117" y="745" type="curve" smooth="yes"/>
      <point x="137" y="745"/>
      <point x="149" y="727"/>
      <point x="149" y="687" type="curve" smooth="yes"/>
      <point x="149" y="651"/>
      <point x="139" y="629"/>
    </contour>
  </outline>
</glyph>
<glyph name="hungarumlautcomb" format="2">
  <unicode hex="030B"/>
  <anchor x="135" y="524" name="_top"/>
  <outline>
    <contour>
      <point x="40" y="595" type="line"/>
      <point x="108" y="595" type="line"/>
      <point x="181" y="729" type="line"/>
      <point x="107" y="729" type="line"/>
    </contour>
    <contour>
      <point x="162" y="595" type="line"/>
      <point x="231" y="595" type="line"/>
      <point x="314" y="729" type="line"/>
      <point x="238" y="729" type="line"/>
    </contour>
  </outline>
</glyph>
<glyph name="caroncomb" format="2">
  <unicode hex="030C"/>
  <anchor x="150" y="524" name="_top"/>
  <outline>
    <contour>
      <point x="113" y="595" type="line"/>
      <point x="188" y="595" type="line"/>
      <point x="261" y="729" type="line"/>
      <point x="196" y="729" type="line"/>
      <point x="150" y="640" type="line"/>
      <point x="105" y="729" type="line"/>
      <point x="40" y="729" type="line"/>
    </contour>
  </outline>
</glyph>
<glyph name="commaturnedabovecomb" format="2">
  <unicode hex="0312"/>
  <anchor x="79" y="524" name="_top"/>
  <outline>
    <contour>
      <point x="40" y="605" type="line"/>
      <point x="118" y="605" type="line"/>
      <point x="118" y="691" type="line"/>
      <point x="79" y="691" type="line"/>
      <point x="129" y="814" type="line"/>
      <point x="84" y="814" type="line"/>
      <point x="40" y="684" type="line"/>
    </contour>
  </outline>
</glyph>
<glyph name="horncomb" format="2">
  <unicode hex="031B"/>
  <anchor x="40" y="518" name="_topright"/>
  <outline>
    <contour>
      <point x="40" y="481" type="line"/>
      <point x="111" y="481"/>
      <point x="150" y="506"/>
      <point x="150" y="573" type="curve" smooth="yes"/>
      <point x="150" y="605" type="line"/>
      <point x="96" y="605" type="line"/>
      <point x="96" y="576" type="line" smooth="yes"/>
      <point x="96" y="532"/>
      <point x="76" y="519"/>
      <point x="40" y="518" type="curve"/>
    </contour>
  </outline>
</glyph>
<glyph name="dotbelowcomb" format="2">
  <unicode hex="0323"/>
  <anchor x="81" y="0" name="_bottom"/>
  <outline>
    <contour>
      <point x="40" y="-171" type="line"/>
      <point x="122" y="-171" type="line"/>
      <point x="122" y="-66" type="line"/>
      <point x="40" y="-66" type="line"/>
    </contour>
  </outline>
</glyph>
<glyph name="commaaccentcomb" format="2">
  <unicode hex="0326"/>
  <anchor x="89" y="0" name="_bottom"/>
  <outline>
    <contour>
      <point x="40" y="-266" type="line"/>
      <point x="89" y="-266" type="line"/>
      <point x="129" y="-150" type="line"/>
      <point x="129" y="-62" type="line"/>
      <point x="49" y="-62" type="line"/>
      <point x="49" y="-152" type="line"/>
      <point x="90" y="-152" type="line"/>
    </contour>
  </outline>
</glyph>
<glyph name="cedillacomb" format="2">
  <unicode hex="0327"/>
  <anchor x="126" y="0" name="_bottom"/>
  <outline>
    <contour>
      <point x="130" y="-205" type="curve" smooth="yes"/>
      <point x="180" y="-205"/>
      <point x="218" y="-176"/>
      <point x="218" y="-118" type="curve" smooth="yes"/>
      <point x="218" y="-56"/>
      <point x="169" y="-31"/>
      <point x="120" y="-41" type="curve"/>
      <point x="140" y="-50" type="line"/>
      <point x="150" y="4" type="line"/>
      <point x="100" y="4" type="line"/>
      <point x="90" y="-61" type="line"/>
      <point x="106" y="-71" type="line"/>
      <point x="125" y="-65"/>
      <point x="162" y="-65"/>
      <point x="162" y="-115" type="curve" smooth="yes"/>
      <point x="162" y="-141"/>
      <point x="151" y="-159"/>
      <point x="126" y="-159" type="curve" smooth="yes"/>
      <point x="104" y="-159"/>
      <point x="93" y="-144"/>
      <point x="92" y="-122" type="curve"/>
      <point x="40" y="-122" type="line"/>
      <point x="40" y="-173"/>
      <point x="77" y="-205"/>
    </contour>
  </outline>
</glyph>
<glyph name="ogonekcomb" format="2">
  <unicode hex="0328"/>
  <anchor x="156" y="0" name="_ogonek"/>
  <outline>
    <contour>
      <point x="119" y="-186" type="curve" smooth="yes"/>
      <point x="137" y="-186"/>
      <point x="159" y="-182"/>
      <point x="170" y="-175" type="curve"/>
      <point x="170" y="-134" type="line"/>
      <point x="160" y="-139"/>
      <point x="150" y="-141"/>
      <point x="139" y="-141" type="curve" smooth="yes"/>
      <point x="113" y="-141"/>
      <point x="97" y="-127"/>
      <point x="97" y="-101" type="curve" smooth="yes"/>
      <point x="97" y="-75"/>
      <point x="116" y="-39"/>
      <point x="156" y="0" type="curve"/>
      <point x="150" y="10" type="line"/>
      <point x="136" y="23" type="line"/>
      <point x="79" y="-16"/>
      <point x="40" y="-67"/>
      <point x="40" y="-114" type="curve" smooth="yes"/>
      <point x="40" y="-158"/>
      <point x="72" y="-186"/>
    </contour>
  </outline>
</glyph>
<glyph name="strokeshortcomb" format="2">
  <unicode hex="0335"/>
  <anchor x="151" y="611" name="_center"/>
  <outline>
    <contour>
      <point x="40" y="581" type="line"/>
      <point x="261" y="581" type="line"/>
      <point x="261" y="641" type="line"/>
      <point x="40" y="641" type="line"/>
    </contour>
  </outline>
</glyph>
<glyph name="strokelongcomb" format="2">
  <unicode hex="0336"/>
  <anchor x="260" y="289" name="_center"/>
  <outline>
    <contour>
      <point x="40" y="260" type="line"/>
      <point x="479" y="260" type="line"/>
      <point x="479" y="317" type="line"/>
      <point x="40" y="317" type="line"/>
    </contour>
  </outline>
</glyph>
<glyph name="slashshortcomb" format="2">
  <unicode hex="0337"/>
  <anchor x="119" y="365" name="_center"/>
  <outline>
    <contour>
      <point x="40" y="283" type="line"/>
      <point x="198" y="372" type="line"/>
      <point x="198" y="446" type="line"/>
      <point x="40" y="357" type="line"/>
    </contour>
  </outline>
</glyph>
<glyph name="mu" format="2">
  <advance width="427"/>
  <unicode hex="03BC"/>
  <outline>
    <contour>
      <point x="46" y="-132" type="line"/>
      <point x="119" y="-132" type="line"/>
      <point x="119" y="56" type="line"/>
      <point x="98" y="35" type="line"/>
      <point x="114" y="8"/>
      <point x="142" y="-6"/>
      <point x="177" y="-6" type="curve" smooth="yes"/>
      <point x="234" y="-6"/>
      <point x="277" y="26"/>
      <point x="299" y="77" type="curve"/>
      <point x="305" y="77" type="line"/>
      <point x="311" y="0" type="line"/>
      <point x="377" y="0" type="line"/>
      <point x="377" y="524" type="line"/>
      <point x="304" y="524" type="line"/>
      <point x="304" y="146" type="line"/>
      <point x="287" y="91"/>
      <point x="254" y="55"/>
      <point x="202" y="55" type="curve" smooth="yes"/>
      <point x="149" y="55"/>
      <point x="119" y="90"/>
      <point x="119" y="154" type="curve" smooth="yes"/>
      <point x="119" y="524" type="line"/>
      <point x="46" y="524" type="line"/>
    </contour>
  </outline>
</glyph>
<glyph name="pi" format="2">
  <advance width="426"/>
  <unicode hex="03C0"/>
  <outline>
    <contour>
      <point x="83" y="0" type="line"/>
      <point x="159" y="0" type="line"/>
      <point x="159" y="459" type="line"/>
      <point x="273" y="459" type="line"/>
      <point x="273" y="64" type="line" smooth="yes"/>
      <point x="273" y="26"/>
      <point x="290" y="0"/>
      <point x="342" y="0" type="curve" smooth="yes"/>
      <point x="398" y="0" type="line"/>
      <point x="398" y="59" type="line"/>
      <point x="347" y="59" type="line"/>
      <point x="347" y="459" type="line"/>
      <point x="398" y="459" type="line"/>
      <point x="398" y="524" type="line"/>
      <point x="23" y="524" type="line"/>
      <point x="23" y="459" type="line"/>
      <point x="83" y="459" type="line"/>
    </contour>
  </outline>
</glyph>
<glyph name="Germandbls" format="2">
  <advance width="471"/>
  <unicode hex="1E9E"/>
  <outline>
    <contour>
      <point x="61" y="0" type="line"/>
      <point x="134" y="0" type="line"/>
      <point x="134" y="666" type="line"/>
      <point x="333" y="666" type="line"/>
      <point x="215" y="430" type="line"/>
      <point x="215" y="380" type="line"/>
      <point x="232" y="380" type="line" smooth="yes"/>
      <point x="308" y="380"/>
      <point x="361" y="340"/>
      <point x="361" y="251" type="curve" smooth="yes"/>
      <point x="361" y="191" type="line" smooth="yes"/>
      <point x="361" y="122"/>
      <point x="321" y="61"/>
      <point x="225" y="61" type="curve" smooth="yes"/>
      <point x="196" y="61" type="line"/>
      <point x="196" y="0" type="line"/>
      <point x="236" y="0" type="line" smooth="yes"/>
      <point x="354" y="0"/>
      <point x="433" y="60"/>
      <point x="433" y="214" type="curve" smooth="yes"/>
      <point x="433" y="350"/>
      <point x="371" y="421"/>
      <point x="262" y="421" type="curve" smooth="yes"/>
      <point x="250" y="421" type="line"/>
      <point x="283" y="401" type="line"/>
      <point x="283" y="426" type="line"/>
      <point x="403" y="664" type="line"/>
      <point x="403" y="729" type="line"/>
      <point x="61" y="729" type="line"/>
    </contour>
  </outline>
</glyph>
<glyph name="endash" format="2">
  <advance width="395"/>
  <unicode hex="2013"/>
  <outline>
    <contour>
      <point x="35" y="290" type="line"/>
      <point x="360" y="290" type="line"/>
      <point x="360" y="356" type="line"/>
      <point x="35" y="356" type="line"/>
    </contour>
  </outline>
</glyph>
<glyph name="emdash" format="2">
  <advance width="560"/>
  <unicode hex="2014"/>
  <outline>
    <contour>
      <point x="35" y="290" type="line"/>
      <point x="525" y="290" type="line"/>
      <point x="525" y="356" type="line"/>
      <point x="35" y="356" type="line"/>
    </contour>
  </outline>
</glyph>
<glyph name="bullet" format="2">
  <advance width="217"/>
  <unicode hex="2022"/>
  <outline>
    <contour>
      <point x="22" y="277" type="curve" smooth="yes"/>
      <point x="22" y="228"/>
      <point x="58" y="192"/>
      <point x="108" y="192" type="curve" smooth="yes"/>
      <point x="161" y="192"/>
      <point x="195" y="228"/>
      <point x="195" y="277" type="curve" smooth="yes"/>
      <point x="195" y="327"/>
      <point x="161" y="363"/>
      <point x="108" y="363" type="curve" smooth="yes"/>
      <point x="58" y="363"/>
      <point x="22" y="327"/>
    </contour>
  </outline>
</glyph>
<glyph name="perthousand" format="2">
  <advance width="860"/>
  <unicode hex="2030"/>
  <outline>
    <contour>
      <point x="137" y="352" type="curve" smooth="yes"/>
      <point x="217" y="352"/>
      <point x="246" y="411"/>
      <point x="246" y="494" type="curve" smooth="yes"/>
      <point x="246" y="594" type="line" smooth="yes"/>
      <point x="246" y="676"/>
      <point x="217" y="734"/>
      <point x="137" y="734" type="curve" smooth="yes"/>
      <point x="59" y="734"/>
      <point x="30" y="676"/>
      <point x="30" y="594" type="curve" smooth="yes"/>
      <point x="30" y="494" type="line" smooth="yes"/>
      <point x="30" y="412"/>
      <point x="59" y="352"/>
    </contour>
    <contour>
      <point x="137" y="405" type="curve" smooth="yes"/>
      <point x="104" y="405"/>
      <point x="89" y="431"/>
      <point x="89" y="474" type="curve" smooth="yes"/>
      <point x="89" y="613" type="line" smooth="yes"/>
      <point x="89" y="656"/>
      <point x="104" y="683"/>
      <point x="137" y="683" type="curve" smooth="yes"/>
      <point x="166" y="683"/>
      <point x="186" y="663"/>
      <point x="186" y="613" type="curve" smooth="yes"/>
      <point x="186" y="474" type="line" smooth="yes"/>
      <point x="186" y="425"/>
      <point x="167" y="405"/>
    </contour>
    <contour>
      <point x="124" y="0" type="line"/>
      <point x="183" y="0" type="line"/>
      <point x="476" y="729" type="line"/>
      <point x="417" y="729" type="line"/>
    </contour>
    <contour>
      <point x="463" y="-7" type="curve" smooth="yes"/>
      <point x="543" y="-7"/>
      <point x="571" y="53"/>
      <point x="571" y="134" type="curve" smooth="yes"/>
      <point x="571" y="234" type="line" smooth="yes"/>
      <point x="571" y="316"/>
      <point x="542" y="375"/>
      <point x="463" y="375" type="curve" smooth="yes"/>
      <point x="385" y="375"/>
      <point x="356" y="316"/>
      <point x="356" y="234" type="curve" smooth="yes"/>
      <point x="356" y="134" type="line" smooth="yes"/>
      <point x="356" y="52"/>
      <point x="384" y="-7"/>
    </contour>
    <contour>
      <point x="463" y="45" type="curve" smooth="yes"/>
      <point x="429" y="45"/>
      <point x="414" y="71"/>
      <point x="414" y="114" type="curve" smooth="yes"/>
      <point x="414" y="253" type="line" smooth="yes"/>
      <point x="414" y="297"/>
      <point x="429" y="323"/>
      <point x="463" y="323" type="curve" smooth="yes"/>
      <point x="492" y="323"/>
      <point x="512" y="304"/>
      <point x="512" y="253" type="curve" smooth="yes"/>
      <point x="512" y="114" type="line" smooth="yes"/>
      <point x="512" y="64"/>
      <point x="492" y="45"/>
    </contour>
    <contour>
      <point x="722" y="-7" type="curve" smooth="yes"/>
      <point x="802" y="-7"/>
      <point x="830" y="53"/>
      <point x="830" y="134" type="curve" smooth="yes"/>
      <point x="830" y="234" type="line" smooth="yes"/>
      <point x="830" y="316"/>
      <point x="801" y="375"/>
      <point x="722" y="375" type="curve" smooth="yes"/>
      <point x="644" y="375"/>
      <point x="615" y="316"/>
      <point x="615" y="234" type="curve" smooth="yes"/>
      <point x="615" y="134" type="line" smooth="yes"/>
      <point x="615" y="52"/>
      <point x="643" y="-7"/>
    </contour>
    <contour>
      <point x="722" y="45" type="curve" smooth="yes"/>
      <point x="688" y="45"/>
      <point x="673" y="71"/>
      <point x="673" y="114" type="curve" smooth="yes"/>
      <point x="673" y="253" type="line" smooth="yes"/>
      <point x="673" y="297"/>
      <point x="688" y="323"/>
      <point x="722" y="323" type="curve" smooth="yes"/>
      <point x="751" y="323"/>
      <point x="771" y="304"/>
      <point x="771" y="253" type="curve" smooth="yes"/>
      <point x="771" y="114" type="line" smooth="yes"/>
      <point x="771" y="64"/>
      <point x="751" y="45"/>
    </contour>
  </outline>
</glyph>
<glyph name="guilsinglleft" format="2">
  <advance width="250"/>
  <unicode hex="2039"/>
  <anchor x="-6" y="0" name="#entry"/>
  <anchor x="193" y="0" name="#exit"/>
  <outline>
    <contour>
      <point x="150" y="59" type="line"/>
      <point x="216" y="59" type="line"/>
      <point x="115" y="292" type="line"/>
      <point x="216" y="524" type="line"/>
      <point x="150" y="524" type="line"/>
      <point x="34" y="292" type="line"/>
    </contour>
  </outline>
</glyph>
<glyph name="fraction" format="2">
  <advance width="132"/>
  <unicode hex="2044"/>
  <outline>
    <contour>
      <point x="-153" y="-46" type="line"/>
      <point x="-93" y="-46" type="line"/>
      <point x="285" y="768" type="line"/>
      <point x="225" y="768" type="line"/>
    </contour>
  </outline>
</glyph>
<glyph name="zeroinferior" format="2">
  <advance width="326"/>
  <unicode hex="2080"/>
  <outline>
    <contour>
      <point x="163" y="-66" type="curve" smooth="yes"/>
      <point x="240" y="-66"/>
      <point x="284" y="-27"/>
      <point x="284" y="97" type="curve" smooth="yes"/>
      <point x="284" y="221" type="line" smooth="yes"/>
      <point x="284" y="344"/>
      <point x="242" y="383"/>
      <point x="163" y="383" type="curve" smooth="yes"/>
      <point x="81" y="383"/>
      <point x="42" y="339"/>
      <point x="42" y="221" type="curve" smooth="yes"/>
      <point x="42" y="97" type="line" smooth="yes"/>
      <point x="42" y="-23"/>
      <point x="82" y="-66"/>
    </contour>
    <contour>
      <point x="163" y="-8" type="curve" smooth="yes"/>
      <point x="127" y="-8"/>
      <point x="111" y="11"/>
      <point x="111" y="67" type="curve" smooth="yes"/>
      <point x="111" y="250" type="line" smooth="yes"/>
      <point x="111" y="306"/>
      <point x="127" y="326"/>
      <point x="163" y="326" type="curve" smooth="yes"/>
      <point x="199" y="326"/>
      <point x="214" y="306"/>
      <point x="214" y="250" type="curve" smooth="yes"/>
      <point x="214" y="67" type="line" smooth="yes"/>
      <point x="214" y="12"/>
      <point x="199" y="-8"/>
    </contour>
  </outline>
</glyph>
<glyph name="oneinferior" format="2">
  <advance width="209"/>
  <unicode hex="2081"/>
  <outline>
    <contour>
      <point x="159" y="-60" type="line"/>
      <point x="159" y="377" type="line"/>
      <point x="102" y="377" type="line"/>
      <point x="91" y="305" type="line"/>
      <point x="25" y="305" type="line"/>
      <point x="25" y="245" type="line"/>
      <point x="89" y="245" type="line"/>
      <point x="89" y="-60" type="line"/>
    </contour>
  </outline>
</glyph>
<glyph name="twoinferior" format="2">
  <advance width="299"/>
  <unicode hex="2082"/>
  <outline>
    <contour>
      <point x="34" y="-60" type="line"/>
      <point x="268" y="-60" type="line"/>
      <point x="268" y="-2" type="line"/>
      <point x="123" y="-2" type="line"/>
      <point x="110" y="-2" type="line"/>
      <point x="110" y="1" type="line"/>
      <point x="119" y="12" type="line"/>
      <point x="202" y="128" type="line" smooth="yes"/>
      <point x="242" y="184"/>
      <point x="262" y="222"/>
      <point x="262" y="269" type="curve" smooth="yes"/>
      <point x="262" y="336"/>
      <point x="224" y="382"/>
      <point x="151" y="382" type="curve" smooth="yes"/>
      <point x="68" y="382"/>
      <point x="30" y="329"/>
      <point x="32" y="240" type="curve"/>
      <point x="95" y="240" type="line"/>
      <point x="94" y="290"/>
      <point x="105" y="322"/>
      <point x="147" y="322" type="curve" smooth="yes"/>
      <point x="174" y="322"/>
      <point x="193" y="305"/>
      <point x="193" y="270" type="curve" smooth="yes"/>
      <point x="193" y="253" type="line" smooth="yes"/>
      <point x="193" y="236"/>
      <point x="185" y="209"/>
      <point x="158" y="172" type="curve" smooth="yes"/>
      <point x="34" y="2" type="line"/>
    </contour>
  </outline>
</glyph>
<glyph name="threeinferior" format="2">
  <advance width="310"/>
  <unicode hex="2083"/>
  <outline>
    <contour>
      <point x="152" y="-65" type="curve" smooth="yes"/>
      <point x="222" y="-65"/>
      <point x="274" y="-22"/>
      <point x="274" y="59" type="curve" smooth="yes"/>
      <point x="274" y="117"/>
      <point x="249" y="152"/>
      <point x="210" y="160" type="curve"/>
      <point x="210" y="166" type="line"/>
      <point x="249" y="177"/>
      <point x="271" y="215"/>
      <point x="271" y="267" type="curve" smooth="yes"/>
      <point x="271" y="343"/>
      <point x="225" y="383"/>
      <point x="157" y="383" type="curve" smooth="yes"/>
      <point x="74" y="383"/>
      <point x="34" y="330"/>
      <point x="36" y="240" type="curve"/>
      <point x="103" y="240" type="line"/>
      <point x="103" y="292"/>
      <point x="113" y="322"/>
      <point x="154" y="322" type="curve" smooth="yes"/>
      <point x="182" y="322"/>
      <point x="201" y="304"/>
      <point x="201" y="267" type="curve" smooth="yes"/>
      <point x="201" y="245" type="line" smooth="yes"/>
      <point x="201" y="213"/>
      <point x="181" y="190"/>
      <point x="148" y="190" type="curve" smooth="yes"/>
      <point x="114" y="190" type="line"/>
      <point x="114" y="140" type="line"/>
      <point x="149" y="140" type="line" smooth="yes"/>
      <point x="177" y="140"/>
      <point x="203" y="122"/>
      <point x="203" y="79" type="curve" smooth="yes"/>
      <point x="203" y="53" type="line" smooth="yes"/>
      <point x="203" y="18"/>
      <point x="182" y="-4"/>
      <point x="150" y="-4" type="curve" smooth="yes"/>
      <point x="109" y="-4"/>
      <point x="96" y="23"/>
      <point x="97" y="74" type="curve"/>
      <point x="31" y="74" type="line"/>
      <point x="28" y="-12"/>
      <point x="64" y="-65"/>
    </contour>
  </outline>
</glyph>
<glyph name="fourinferior" format="2">
  <advance width="319"/>
  <unicode hex="2084"/>
  <outline>
    <contour>
      <point x="176" y="-60" type="line"/>
      <point x="246" y="-60" type="line"/>
      <point x="246" y="45" type="line"/>
      <point x="294" y="45" type="line"/>
      <point x="294" y="105" type="line"/>
      <point x="246" y="105" type="line"/>
      <point x="246" y="202" type="line"/>
      <point x="192" y="202" type="line"/>
      <point x="180" y="105" type="line"/>
      <point x="104" y="105" type="line"/>
      <point x="104" y="109" type="line"/>
      <point x="213" y="377" type="line"/>
      <point x="143" y="377" type="line"/>
      <point x="26" y="93" type="line"/>
      <point x="26" y="45" type="line"/>
      <point x="176" y="45" type="line"/>
    </contour>
  </outline>
</glyph>
<glyph name="fiveinferior" format="2">
  <advance width="312"/>
  <unicode hex="2085"/>
  <outline>
    <contour>
      <point x="157" y="-66" type="curve" smooth="yes"/>
      <point x="233" y="-66"/>
      <point x="278" y="-23"/>
      <point x="278" y="85" type="curve" smooth="yes"/>
      <point x="278" y="181"/>
      <point x="245" y="232"/>
      <point x="175" y="232" type="curve" smooth="yes"/>
      <point x="148" y="232"/>
      <point x="121" y="220"/>
      <point x="110" y="191" type="curve"/>
      <point x="104" y="191" type="line"/>
      <point x="116" y="319" type="line"/>
      <point x="267" y="319" type="line"/>
      <point x="267" y="377" type="line"/>
      <point x="58" y="377" type="line"/>
      <point x="43" y="128" type="line"/>
      <point x="106" y="128" type="line"/>
      <point x="112" y="161"/>
      <point x="128" y="180"/>
      <point x="156" y="180" type="curve" smooth="yes"/>
      <point x="186" y="180"/>
      <point x="208" y="163"/>
      <point x="208" y="113" type="curve" smooth="yes"/>
      <point x="208" y="61" type="line" smooth="yes"/>
      <point x="208" y="19"/>
      <point x="190" y="-5"/>
      <point x="155" y="-5" type="curve" smooth="yes"/>
      <point x="116" y="-5"/>
      <point x="102" y="18"/>
      <point x="102" y="69" type="curve"/>
      <point x="36" y="69" type="line"/>
      <point x="35" y="-11"/>
      <point x="68" y="-66"/>
    </contour>
  </outline>
</glyph>
<glyph name="sixinferior" format="2">
  <advance width="319"/>
  <unicode hex="2086"/>
  <outline>
    <contour>
      <point x="156" y="-66" type="curve" smooth="yes"/>
      <point x="255" y="-66"/>
      <point x="281" y="0"/>
      <point x="281" y="83" type="curve" smooth="yes"/>
      <point x="281" y="184"/>
      <point x="250" y="228"/>
      <point x="186" y="228" type="curve" smooth="yes"/>
      <point x="150" y="228"/>
      <point x="123" y="211"/>
      <point x="108" y="173" type="curve"/>
      <point x="104" y="173" type="line"/>
      <point x="106" y="187"/>
      <point x="107" y="202"/>
      <point x="107" y="228" type="curve" smooth="yes"/>
      <point x="107" y="298"/>
      <point x="125" y="326"/>
      <point x="165" y="326" type="curve" smooth="yes"/>
      <point x="203" y="326"/>
      <point x="216" y="300"/>
      <point x="217" y="265" type="curve"/>
      <point x="283" y="265" type="line"/>
      <point x="284" y="338"/>
      <point x="241" y="383"/>
      <point x="168" y="383" type="curve" smooth="yes"/>
      <point x="83" y="383"/>
      <point x="41" y="333"/>
      <point x="41" y="210" type="curve" smooth="yes"/>
      <point x="41" y="80" type="line" smooth="yes"/>
      <point x="41" y="-47"/>
      <point x="106" y="-66"/>
    </contour>
    <contour>
      <point x="160" y="-5" type="curve" smooth="yes"/>
      <point x="126" y="-5"/>
      <point x="108" y="14"/>
      <point x="108" y="63" type="curve" smooth="yes"/>
      <point x="108" y="127" type="line"/>
      <point x="114" y="153"/>
      <point x="130" y="177"/>
      <point x="160" y="177" type="curve" smooth="yes"/>
      <point x="194" y="177"/>
      <point x="211" y="157"/>
      <point x="211" y="109" type="curve" smooth="yes"/>
      <point x="211" y="64" type="line" smooth="yes"/>
      <point x="211" y="23"/>
      <point x="199" y="-5"/>
    </contour>
  </outline>
</glyph>
<glyph name="seveninferior" format="2">
  <advance width="305"/>
  <unicode hex="2087"/>
  <outline>
    <contour>
      <point x="150" y="-60" type="line"/>
      <point x="278" y="317" type="line"/>
      <point x="278" y="377" type="line"/>
      <point x="31" y="377" type="line"/>
      <point x="31" y="231" type="line"/>
      <point x="93" y="231" type="line"/>
      <point x="93" y="320" type="line"/>
      <point x="207" y="320" type="line"/>
      <point x="207" y="312" type="line"/>
      <point x="77" y="-60" type="line"/>
    </contour>
  </outline>
</glyph>
<glyph name="eightinferior" format="2">
  <advance width="317"/>
  <unicode hex="2088"/>
  <outline>
    <contour>
      <point x="158" y="-65" type="curve" smooth="yes"/>
      <point x="235" y="-65"/>
      <point x="283" y="-23"/>
      <point x="283" y="55" type="curve" smooth="yes"/>
      <point x="283" y="117"/>
      <point x="253" y="151"/>
      <point x="215" y="162" type="curve"/>
      <point x="215" y="167" type="line"/>
      <point x="252" y="177"/>
      <point x="276" y="213"/>
      <point x="276" y="267" type="curve" smooth="yes"/>
      <point x="276" y="347"/>
      <point x="228" y="383"/>
      <point x="158" y="383" type="curve" smooth="yes"/>
      <point x="88" y="383"/>
      <point x="41" y="347"/>
      <point x="41" y="267" type="curve" smooth="yes"/>
      <point x="41" y="214"/>
      <point x="64" y="177"/>
      <point x="101" y="167" type="curve"/>
      <point x="101" y="162" type="line"/>
      <point x="64" y="151"/>
      <point x="34" y="117"/>
      <point x="34" y="55" type="curve" smooth="yes"/>
      <point x="34" y="-23"/>
      <point x="82" y="-65"/>
    </contour>
    <contour>
      <point x="158" y="-4" type="curve" smooth="yes"/>
      <point x="124" y="-4"/>
      <point x="104" y="18"/>
      <point x="104" y="53" type="curve" smooth="yes"/>
      <point x="104" y="80" type="line" smooth="yes"/>
      <point x="104" y="115"/>
      <point x="124" y="137"/>
      <point x="158" y="137" type="curve" smooth="yes"/>
      <point x="192" y="137"/>
      <point x="213" y="115"/>
      <point x="213" y="80" type="curve" smooth="yes"/>
      <point x="213" y="53" type="line" smooth="yes"/>
      <point x="213" y="17"/>
      <point x="192" y="-4"/>
    </contour>
    <contour>
      <point x="158" y="191" type="curve" smooth="yes"/>
      <point x="126" y="191"/>
      <point x="106" y="210"/>
      <point x="106" y="244" type="curve" smooth="yes"/>
      <point x="106" y="267" type="line" smooth="yes"/>
      <point x="106" y="302"/>
      <point x="126" y="322"/>
      <point x="158" y="322" type="curve" smooth="yes"/>
      <point x="191" y="322"/>
      <point x="210" y="302"/>
      <point x="210" y="267" type="curve" smooth="yes"/>
      <point x="210" y="244" type="line" smooth="yes"/>
      <point x="210" y="210"/>
      <point x="191" y="191"/>
    </contour>
  </outline>
</glyph>
<glyph name="sheqel" format="2">
  <advance width="629"/>
  <unicode hex="20AA"/>
  <outline>
    <contour>
      <point x="217" y="0" type="line"/>
      <point x="483" y="0" type="line" smooth="yes"/>
      <point x="542" y="0"/>
      <point x="565" y="28"/>
      <point x="565" y="82" type="curve" smooth="yes"/>
      <point x="565" y="729" type="line"/>
      <point x="495" y="729" type="line"/>
      <point x="495" y="66" type="line"/>
      <point x="275" y="66" type="line"/>
      <point x="275" y="565" type="line"/>
      <point x="217" y="565" type="line"/>
    </contour>
    <contour>
      <point x="65" y="0" type="line"/>
      <point x="135" y="0" type="line"/>
      <point x="135" y="663" type="line"/>
      <point x="356" y="663" type="line"/>
      <point x="356" y="164" type="line"/>
      <point x="414" y="164" type="line"/>
      <point x="414" y="647" type="line" smooth="yes"/>
      <point x="414" y="701"/>
      <point x="390" y="729"/>
      <point x="331" y="729" type="curve" smooth="yes"/>
      <point x="65" y="729" type="line"/>
    </contour>
  </outline>
</glyph>
<glyph name="rupeeIndian" format="2">
  <advance width="432"/>
  <unicode hex="20B9"/>
  <outline>
    <contour>
      <point x="236" y="0" type="line"/>
      <point x="317" y="0" type="line"/>
      <point x="124" y="330" type="line"/>
      <point x="124" y="318" type="line"/>
      <point x="138" y="318" type="line" smooth="yes"/>
      <point x="243" y="318"/>
      <point x="313" y="386"/>
      <point x="313" y="517" type="curve" smooth="yes"/>
      <point x="313" y="591"/>
      <point x="292" y="649"/>
      <point x="250" y="682" type="curve"/>
      <point x="250" y="675" type="line"/>
      <point x="391" y="675" type="line"/>
      <point x="391" y="729" type="line"/>
      <point x="44" y="729" type="line"/>
      <point x="44" y="668" type="line"/>
      <point x="119" y="668" type="line" smooth="yes"/>
      <point x="196" y="668"/>
      <point x="236" y="630"/>
      <point x="236" y="548" type="curve" smooth="yes"/>
      <point x="236" y="496" type="line" smooth="yes"/>
      <point x="236" y="422"/>
      <point x="200" y="374"/>
      <point x="119" y="374" type="curve" smooth="yes"/>
      <point x="44" y="374" type="line"/>
      <point x="44" y="331" type="line"/>
    </contour>
    <contour>
      <point x="44" y="495" type="line"/>
      <point x="274" y="495" type="line"/>
      <point x="274" y="544" type="line"/>
      <point x="44" y="544" type="line"/>
    </contour>
    <contour>
      <point x="274" y="490" type="line"/>
      <point x="391" y="490" type="line"/>
      <point x="391" y="549" type="line"/>
      <point x="274" y="549" type="line"/>
    </contour>
  </outline>
</glyph>
<glyph name="liraTurkish" format="2">
  <advance width="512"/>
  <unicode hex="20BA"/>
  <outline>
    <contour>
      <point x="129" y="0" type="line"/>
      <point x="190" y="0" type="line" smooth="yes"/>
      <point x="364" y="0"/>
      <point x="474" y="126"/>
      <point x="472" y="323" type="curve"/>
      <point x="394" y="323" type="line"/>
      <point x="395" y="175"/>
      <point x="324" y="74"/>
      <point x="205" y="72" type="curve"/>
      <point x="205" y="729" type="line"/>
      <point x="129" y="729" type="line"/>
    </contour>
    <contour>
      <point x="42" y="261" type="line"/>
      <point x="337" y="386" type="line"/>
      <point x="337" y="448" type="line"/>
      <point x="42" y="323" type="line"/>
    </contour>
    <contour>
      <point x="42" y="431" type="line"/>
      <point x="337" y="556" type="line"/>
      <point x="337" y="617" type="line"/>
      <point x="42" y="493" type="line"/>
    </contour>
  </outline>
</glyph>
<glyph name="literSign" format="2">
  <advance width="409"/>
  <unicode hex="2113"/>
  <outline>
    <contour>
      <point x="221" y="-9" type="curve" smooth="yes"/>
      <point x="289" y="-9"/>
      <point x="340" y="39"/>
      <point x="367" y="121" type="curve"/>
      <point x="311" y="142" type="line"/>
      <point x="291" y="81"/>
      <point x="262" y="52"/>
      <point x="225" y="52" type="curve" smooth="yes"/>
      <point x="169" y="52"/>
      <point x="138" y="154"/>
      <point x="138" y="385" type="curve" smooth="yes"/>
      <point x="138" y="570"/>
      <point x="172" y="671"/>
      <point x="224" y="671" type="curve" smooth="yes"/>
      <point x="261" y="671"/>
      <point x="281" y="627"/>
      <point x="281" y="539" type="curve" smooth="yes"/>
      <point x="281" y="358"/>
      <point x="199" y="201"/>
      <point x="28" y="165" type="curve"/>
      <point x="28" y="109" type="line"/>
      <point x="228" y="145"/>
      <point x="345" y="320"/>
      <point x="345" y="540" type="curve" smooth="yes"/>
      <point x="345" y="667"/>
      <point x="303" y="738"/>
      <point x="227" y="738" type="curve" smooth="yes"/>
      <point x="127" y="738"/>
      <point x="72" y="607"/>
      <point x="72" y="388" type="curve" smooth="yes"/>
      <point x="72" y="123"/>
      <point x="117" y="-9"/>
    </contour>
  </outline>
</glyph>
<glyph name="numero" format="2">
  <advance width="728"/>
  <unicode hex="2116"/>
  <outline>
    <contour>
      <point x="61" y="0" type="line"/>
      <point x="130" y="0" type="line"/>
      <point x="130" y="594" type="line"/>
      <point x="133" y="594" type="line"/>
      <point x="142" y="558" type="line"/>
      <point x="304" y="0" type="line"/>
      <point x="399" y="0" type="line"/>
      <point x="399" y="729" type="line"/>
      <point x="330" y="729" type="line"/>
      <point x="330" y="134" type="line"/>
      <point x="326" y="134" type="line"/>
      <point x="318" y="169" type="line"/>
      <point x="156" y="729" type="line"/>
      <point x="61" y="729" type="line"/>
    </contour>
    <contour>
      <point x="475" y="215" type="line"/>
      <point x="663" y="215" type="line"/>
      <point x="663" y="270" type="line"/>
      <point x="475" y="270" type="line"/>
    </contour>
    <contour>
      <point x="569" y="315" type="curve" smooth="yes"/>
      <point x="644" y="315"/>
      <point x="683" y="380"/>
      <point x="683" y="524" type="curve" smooth="yes"/>
      <point x="683" y="666"/>
      <point x="644" y="732"/>
      <point x="569" y="732" type="curve" smooth="yes"/>
      <point x="493" y="732"/>
      <point x="454" y="667"/>
      <point x="454" y="524" type="curve" smooth="yes"/>
      <point x="454" y="380"/>
      <point x="493" y="315"/>
    </contour>
    <contour>
      <point x="569" y="368" type="curve" smooth="yes"/>
      <point x="534" y="368"/>
      <point x="517" y="404"/>
      <point x="517" y="524" type="curve" smooth="yes"/>
      <point x="517" y="642"/>
      <point x="534" y="679"/>
      <point x="569" y="679" type="curve" smooth="yes"/>
      <point x="603" y="679"/>
      <point x="619" y="641"/>
      <point x="619" y="524" type="curve" smooth="yes"/>
      <point x="619" y="406"/>
      <point x="603" y="368"/>
    </contour>
  </outline>
</glyph>
<glyph name="trademark" format="2">
  <advance width="582"/>
  <unicode hex="2122"/>
  <outline>
    <contour>
      <point x="273" y="418" type="line"/>
      <point x="324" y="418" type="line"/>
      <point x="324" y="554" type="line"/>
      <point x="323" y="663" type="line"/>
      <point x="325" y="663" type="line"/>
      <point x="384" y="418" type="line"/>
      <point x="428" y="418" type="line"/>
      <point x="488" y="663" type="line"/>
      <point x="490" y="663" type="line"/>
      <point x="488" y="554" type="line"/>
      <point x="488" y="418" type="line"/>
      <point x="540" y="418" type="line"/>
      <point x="540" y="729" type="line"/>
      <point x="462" y="729" type="line"/>
      <point x="407" y="492" type="line"/>
      <point x="405" y="492" type="line"/>
      <point x="350" y="729" type="line"/>
      <point x="273" y="729" type="line"/>
    </contour>
    <contour>
      <point x="95" y="418" type="line"/>
      <point x="149" y="418" type="line"/>
      <point x="149" y="682" type="line"/>
      <point x="225" y="682" type="line"/>
      <point x="225" y="729" type="line"/>
      <point x="23" y="729" type="line"/>
      <point x="23" y="682" type="line"/>
      <point x="95" y="682" type="line"/>
    </contour>
  </outline>
</glyph>
<glyph name="arrowup" format="2">
  <advance width="469"/>
  <unicode hex="2191"/>
  <outline>
    <contour>
      <point x="202" y="96" type="line"/>
      <point x="267" y="96" type="line"/>
      <point x="267" y="532" type="line"/>
      <point x="409" y="427" type="line"/>
      <point x="409" y="502" type="line"/>
      <point x="234" y="633" type="line"/>
      <point x="60" y="502" type="line"/>
      <point x="60" y="427" type="line"/>
      <point x="202" y="532" type="line"/>
    </contour>
  </outline>
</glyph>
<glyph name="leftRightArrow" format="2">
  <advance width="657"/>
  <unicode hex="2194"/>
  <outline>
    <contour>
      <point x="181" y="190" type="line"/>
      <point x="256" y="190" type="line"/>
      <point x="151" y="332" type="line"/>
      <point x="506" y="332" type="line"/>
      <point x="401" y="190" type="line"/>
      <point x="476" y="190" type="line"/>
      <point x="607" y="365" type="line"/>
      <point x="476" y="539" type="line"/>
      <point x="401" y="539" type="line"/>
      <point x="506" y="397" type="line"/>
      <point x="151" y="397" type="line"/>
      <point x="256" y="539" type="line"/>
      <point x="181" y="539" type="line"/>
      <point x="50" y="365" type="line"/>
    </contour>
  </outline>
</glyph>
<glyph name="emptyset" format="2">
  <advance width="774"/>
  <unicode hex="2205"/>
  <outline>
    <contour>
      <point x="660" y="559" type="line"/>
      <point x="93" y="212" type="line"/>
      <point x="106" y="171" type="line"/>
      <point x="681" y="521" type="line"/>
    </contour>
    <contour>
      <point x="387" y="0" type="curve" smooth="yes"/>
      <point x="586" y="0"/>
      <point x="746" y="150"/>
      <point x="746" y="366" type="curve" smooth="yes"/>
      <point x="746" y="578"/>
      <point x="586" y="729"/>
      <point x="387" y="729" type="curve" smooth="yes"/>
      <point x="187" y="729"/>
      <point x="28" y="579"/>
      <point x="28" y="366" type="curve" smooth="yes"/>
      <point x="28" y="150"/>
      <point x="187" y="0"/>
    </contour>
    <contour>
      <point x="387" y="41" type="curve" smooth="yes"/>
      <point x="216" y="41"/>
      <point x="74" y="178"/>
      <point x="74" y="366" type="curve" smooth="yes"/>
      <point x="74" y="553"/>
      <point x="216" y="688"/>
      <point x="387" y="688" type="curve" smooth="yes"/>
      <point x="559" y="688"/>
      <point x="701" y="553"/>
      <point x="701" y="366" type="curve" smooth="yes"/>
      <point x="701" y="178"/>
      <point x="559" y="41"/>
    </contour>
  </outline>
</glyph>
<glyph name="product" format="2">
  <advance width="428"/>
  <unicode hex="220F"/>
  <outline>
    <contour>
      <point x="50" y="-92" type="line"/>
      <point x="126" y="-92" type="line"/>
      <point x="126" y="659" type="line"/>
      <point x="302" y="659" type="line"/>
      <point x="302" y="-92" type="line"/>
      <point x="378" y="-92" type="line"/>
      <point x="378" y="729" type="line"/>
      <point x="50" y="729" type="line"/>
    </contour>
  </outline>
</glyph>
<glyph name="summation" format="2">
  <advance width="384"/>
  <unicode hex="2211"/>
  <outline>
    <contour>
      <point x="27" y="-92" type="line"/>
      <point x="359" y="-92" type="line"/>
      <point x="359" y="-28" type="line"/>
      <point x="108" y="-28" type="line"/>
      <point x="108" y="-24" type="line"/>
      <point x="279" y="318" type="line"/>
      <point x="108" y="660" type="line"/>
      <point x="108" y="665" type="line"/>
      <point x="359" y="665" type="line"/>
      <point x="359" y="729" type="line"/>
      <point x="27" y="729" type="line"/>
      <point x="27" y="655" type="line"/>
      <point x="193" y="323" type="line"/>
      <point x="193" y="314" type="line"/>
      <point x="27" y="-19" type="line"/>
    </contour>
  </outline>
</glyph>
<glyph name="minus" format="2">
  <advance width="500"/>
  <unicode hex="2212"/>
  <outline>
    <contour>
      <point x="24" y="335" type="line"/>
      <point x="426" y="335" type="line"/>
      <point x="426" y="395" type="line"/>
      <point x="24" y="395" type="line"/>
    </contour>
  </outline>
</glyph>
<glyph name="radical" format="2">
  <advance width="485"/>
  <unicode hex="221A"/>
  <outline>
    <contour>
      <point x="191" y="-92" type="line"/>
      <point x="273" y="-92" type="line"/>
      <point x="463" y="729" type="line"/>
      <point x="389" y="729" type="line"/>
      <point x="224" y="1" type="line"/>
      <point x="220" y="1" type="line"/>
      <point x="124" y="376" type="line"/>
      <point x="23" y="376" type="line"/>
      <point x="23" y="302" type="line"/>
      <point x="85" y="302" type="line"/>
    </contour>
  </outline>
</glyph>
<glyph name="infinity" format="2">
  <advance width="835"/>
  <unicode hex="221E"/>
  <outline>
    <contour>
      <point x="218" y="169" type="curve" smooth="yes"/>
      <point x="311" y="169"/>
      <point x="372" y="233"/>
      <point x="419" y="310" type="curve"/>
      <point x="468" y="227"/>
      <point x="527" y="169"/>
      <point x="620" y="169" type="curve" smooth="yes"/>
      <point x="731" y="169"/>
      <point x="803" y="257"/>
      <point x="803" y="363" type="curve" smooth="yes"/>
      <point x="803" y="470"/>
      <point x="732" y="560"/>
      <point x="619" y="560" type="curve" smooth="yes"/>
      <point x="524" y="560"/>
      <point x="466" y="493"/>
      <point x="419" y="419" type="curve"/>
      <point x="373" y="493"/>
      <point x="313" y="560"/>
      <point x="219" y="560" type="curve" smooth="yes"/>
      <point x="107" y="560"/>
      <point x="32" y="472"/>
      <point x="32" y="363" type="curve" smooth="yes"/>
      <point x="32" y="251"/>
      <point x="107" y="169"/>
    </contour>
    <contour>
      <point x="221" y="241" type="curve" smooth="yes"/>
      <point x="152" y="241"/>
      <point x="106" y="291"/>
      <point x="106" y="365" type="curve" smooth="yes"/>
      <point x="106" y="436"/>
      <point x="151" y="489"/>
      <point x="221" y="489" type="curve" smooth="yes"/>
      <point x="287" y="489"/>
      <point x="329" y="443"/>
      <point x="381" y="365" type="curve"/>
      <point x="328" y="283"/>
      <point x="282" y="241"/>
    </contour>
    <contour>
      <point x="616" y="241" type="curve" smooth="yes"/>
      <point x="550" y="241"/>
      <point x="509" y="286"/>
      <point x="457" y="365" type="curve"/>
      <point x="508" y="443"/>
      <point x="551" y="489"/>
      <point x="616" y="489" type="curve" smooth="yes"/>
      <point x="685" y="489"/>
      <point x="731" y="434"/>
      <point x="731" y="365" type="curve" smooth="yes"/>
      <point x="731" y="296"/>
      <point x="685" y="241"/>
    </contour>
  </outline>
</glyph>
<glyph name="integral" format="2">
  <advance width="345"/>
  <unicode hex="222B"/>
  <outline>
    <contour>
      <point x="22" y="-92" type="line"/>
      <point x="134" y="-92" type="line" smooth="yes"/>
      <point x="179" y="-92"/>
      <point x="210" y="-63"/>
      <point x="210" y="-14" type="curve" smooth="yes"/>
      <point x="210" y="663" type="line"/>
      <point x="323" y="663" type="line"/>
      <point x="323" y="729" type="line"/>
      <point x="210" y="729" type="line" smooth="yes"/>
      <point x="163" y="729"/>
      <point x="132" y="704"/>
      <point x="132" y="652" type="curve" smooth="yes"/>
      <point x="132" y="-27" type="line"/>
      <point x="22" y="-27" type="line"/>
    </contour>
  </outline>
</glyph>
<glyph name="approxequal" format="2">
  <advance width="500"/>
  <unicode hex="2248"/>
  <outline>
    <contour>
      <point x="63" y="386" type="curve"/>
      <point x="104" y="386" type="line"/>
      <point x="101" y="420"/>
      <point x="108" y="449"/>
      <point x="142" y="449" type="curve" smooth="yes"/>
      <point x="185" y="449"/>
      <point x="245" y="384"/>
      <point x="307" y="384" type="curve" smooth="yes"/>
      <point x="358" y="384"/>
      <point x="396" y="422"/>
      <point x="386" y="511" type="curve"/>
      <point x="346" y="511" type="line"/>
      <point x="348" y="472"/>
      <point x="338" y="447"/>
      <point x="303" y="447" type="curve" smooth="yes"/>
      <point x="258" y="447"/>
      <point x="199" y="511"/>
      <point x="141" y="511" type="curve" smooth="yes"/>
      <point x="90" y="511"/>
      <point x="54" y="473"/>
    </contour>
    <contour>
      <point x="63" y="220" type="curve"/>
      <point x="104" y="220" type="line"/>
      <point x="101" y="254"/>
      <point x="108" y="283"/>
      <point x="142" y="283" type="curve" smooth="yes"/>
      <point x="185" y="283"/>
      <point x="245" y="219"/>
      <point x="307" y="219" type="curve" smooth="yes"/>
      <point x="358" y="219"/>
      <point x="396" y="257"/>
      <point x="386" y="346" type="curve"/>
      <point x="346" y="346" type="line"/>
      <point x="348" y="307"/>
      <point x="338" y="282"/>
      <point x="303" y="282" type="curve" smooth="yes"/>
      <point x="258" y="282"/>
      <point x="199" y="346"/>
      <point x="141" y="346" type="curve" smooth="yes"/>
      <point x="90" y="346"/>
      <point x="54" y="308"/>
    </contour>
  </outline>
</glyph>
<glyph name="notequal" format="2">
  <advance width="500"/>
  <unicode hex="2260"/>
  <outline>
    <contour>
      <point x="121" y="130" type="line"/>
      <point x="180" y="130" type="line"/>
      <point x="380" y="591" type="line"/>
      <point x="320" y="591" type="line"/>
    </contour>
    <contour>
      <point x="19" y="235" type="line"/>
      <point x="481" y="235" type="line"/>
      <point x="481" y="295" type="line"/>
      <point x="19" y="295" type="line"/>
    </contour>
    <contour>
      <point x="19" y="435" type="line"/>
      <point x="481" y="435" type="line"/>
      <point x="481" y="495" type="line"/>
      <point x="19" y="495" type="line"/>
    </contour>
  </outline>
</glyph>
<glyph name="lessequal" format="2">
  <advance width="500"/>
  <unicode hex="2264"/>
  <outline>
    <contour>
      <point x="443" y="148" type="line"/>
      <point x="443" y="222" type="line"/>
      <point x="83" y="373" type="line"/>
      <point x="83" y="379" type="line"/>
      <point x="443" y="528" type="line"/>
      <point x="443" y="602" type="line"/>
      <point x="4" y="422" type="line"/>
      <point x="4" y="329" type="line"/>
    </contour>
    <contour>
      <point x="4" y="0" type="line"/>
      <point x="443" y="0" type="line"/>
      <point x="443" y="65" type="line"/>
      <point x="4" y="65" type="line"/>
    </contour>
  </outline>
</glyph>
<glyph name="greaterequal" format="2">
  <advance width="500"/>
  <unicode hex="2265"/>
  <outline>
    <contour>
      <point x="36" y="148" type="line"/>
      <point x="477" y="329" type="line"/>
      <point x="477" y="422" type="line"/>
      <point x="36" y="602" type="line"/>
      <point x="36" y="528" type="line"/>
      <point x="397" y="379" type="line"/>
      <point x="397" y="373" type="line"/>
      <point x="36" y="222" type="line"/>
    </contour>
    <contour>
      <point x="36" y="0" type="line"/>
      <point x="477" y="0" type="line"/>
      <point x="477" y="65" type="line"/>
      <point x="36" y="65" type="line"/>
    </contour>
  </outline>
</glyph>
<glyph name="whiteCircle" format="2">
  <advance width="577"/>
  <unicode hex="25CB"/>
  <anchor x="289" y="365" name="center"/>
  <outline>
    <contour>
      <point x="289" y="-30" type="curve" smooth="yes"/>
      <point x="432" y="-30"/>
      <point x="526" y="62"/>
      <point x="526" y="211" type="curve" smooth="yes"/>
      <point x="526" y="313"/>
      <point x="526" y="415"/>
      <point x="526" y="517" type="curve" smooth="yes"/>
      <point x="526" y="662"/>
      <point x="436" y="759"/>
      <point x="289" y="759" type="curve" smooth="yes"/>
      <point x="146" y="759"/>
      <point x="51" y="667"/>
      <point x="51" y="518" type="curve" smooth="yes"/>
      <point x="51" y="416"/>
      <point x="51" y="314"/>
      <point x="51" y="212" type="curve" smooth="yes"/>
      <point x="51" y="67"/>
      <point x="142" y="-30"/>
    </contour>
    <contour>
      <point x="289" y="15" type="curve" smooth="yes"/>
      <point x="175" y="15"/>
      <point x="98" y="86"/>
      <point x="98" y="211" type="curve" smooth="yes"/>
      <point x="98" y="313"/>
      <point x="98" y="415"/>
      <point x="98" y="517" type="curve" smooth="yes"/>
      <point x="98" y="636"/>
      <point x="168" y="714"/>
      <point x="289" y="714" type="curve" smooth="yes"/>
      <point x="404" y="714"/>
      <point x="480" y="643"/>
      <point x="480" y="518" type="curve" smooth="yes"/>
      <point x="480" y="416"/>
      <point x="480" y="314"/>
      <point x="480" y="212" type="curve" smooth="yes"/>
      <point x="480" y="93"/>
      <point x="411" y="15"/>
    </contour>
  </outline>
</glyph>
<glyph name="blackCircle" format="2">
  <advance width="577"/>
  <unicode hex="25CF"/>
  <anchor x="289" y="365" name="center"/>
  <outline>
    <contour>
      <point x="289" y="-30" type="curve" smooth="yes"/>
      <point x="142" y="-30"/>
      <point x="51" y="67"/>
      <point x="51" y="212" type="curve" smooth="yes"/>
      <point x="51" y="314"/>
      <point x="51" y="416"/>
      <point x="51" y="518" type="curve" smooth="yes"/>
      <point x="51" y="667"/>
      <point x="146" y="759"/>
      <point x="289" y="759" type="curve" smooth="yes"/>
      <point x="436" y="759"/>
      <point x="526" y="662"/>
      <point x="526" y="517" type="curve" smooth="yes"/>
      <point x="526" y="415"/>
      <point x="526" y="313"/>
      <point x="526" y="211" type="curve" smooth="yes"/>
      <point x="526" y="62"/>
      <point x="432" y="-30"/>
    </contour>
  </outline>
</glyph>
<glyph name="whiteFrowningFace" format="2">
  <advance width="862"/>
  <unicode hex="2639"/>
  <outline>
    <contour>
      <point x="432" y="-10" type="curve" smooth="yes"/>
      <point x="655" y="-10"/>
      <point x="817" y="141"/>
      <point x="817" y="366" type="curve" smooth="yes"/>
      <point x="817" y="588"/>
      <point x="655" y="739"/>
      <point x="432" y="739" type="curve" smooth="yes"/>
      <point x="208" y="739"/>
      <point x="45" y="588"/>
      <point x="45" y="366" type="curve" smooth="yes"/>
      <point x="45" y="141"/>
      <point x="208" y="-10"/>
    </contour>
    <contour>
      <point x="242" y="185" type="line"/>
      <point x="275" y="239"/>
      <point x="344" y="278"/>
      <point x="432" y="278" type="curve" smooth="yes"/>
      <point x="520" y="278"/>
      <point x="588" y="239"/>
      <point x="621" y="185" type="curve"/>
      <point x="657" y="200" type="line"/>
      <point x="621" y="272"/>
      <point x="540" y="321"/>
      <point x="432" y="321" type="curve" smooth="yes"/>
      <point x="323" y="321"/>
      <point x="242" y="272"/>
      <point x="206" y="200" type="curve"/>
    </contour>
    <contour>
      <point x="432" y="34" type="curve" smooth="yes"/>
      <point x="234" y="34"/>
      <point x="93" y="168"/>
      <point x="93" y="366" type="curve" smooth="yes"/>
      <point x="93" y="563"/>
      <point x="234" y="695"/>
      <point x="432" y="695" type="curve" smooth="yes"/>
      <point x="627" y="695"/>
      <point x="769" y="563"/>
      <point x="769" y="366" type="curve" smooth="yes"/>
      <point x="769" y="168"/>
      <point x="628" y="34"/>
    </contour>
    <contour>
      <point x="344" y="392" type="curve" smooth="yes"/>
      <point x="365" y="392"/>
      <point x="376" y="406"/>
      <point x="376" y="429" type="curve" smooth="yes"/>
      <point x="376" y="488" type="line" smooth="yes"/>
      <point x="376" y="511"/>
      <point x="365" y="525"/>
      <point x="344" y="525" type="curve" smooth="yes"/>
      <point x="323" y="525"/>
      <point x="312" y="511"/>
      <point x="312" y="488" type="curve" smooth="yes"/>
      <point x="312" y="429" type="line" smooth="yes"/>
      <point x="312" y="406"/>
      <point x="323" y="392"/>
    </contour>
    <contour>
      <point x="518" y="392" type="curve" smooth="yes"/>
      <point x="540" y="392"/>
      <point x="551" y="406"/>
      <point x="551" y="429" type="curve" smooth="yes"/>
      <point x="551" y="488" type="line" smooth="yes"/>
      <point x="551" y="511"/>
      <point x="540" y="525"/>
      <point x="518" y="525" type="curve" smooth="yes"/>
      <point x="498" y="525"/>
      <point x="487" y="511"/>
      <point x="487" y="488" type="curve" smooth="yes"/>
      <point x="487" y="429" type="line" smooth="yes"/>
      <point x="487" y="406"/>
      <point x="498" y="392"/>
    </contour>
  </outline>
</glyph>
<glyph name="whiteSmilingFace" format="2">
  <advance width="862"/>
  <unicode hex="263A"/>
  <outline>
    <contour>
      <point x="432" y="-10" type="curve" smooth="yes"/>
      <point x="655" y="-10"/>
      <point x="817" y="141"/>
      <point x="817" y="366" type="curve" smooth="yes"/>
      <point x="817" y="588"/>
      <point x="655" y="739"/>
      <point x="432" y="739" type="curve" smooth="yes"/>
      <point x="208" y="739"/>
      <point x="45" y="588"/>
      <point x="45" y="366" type="curve" smooth="yes"/>
      <point x="45" y="141"/>
      <point x="208" y="-10"/>
    </contour>
    <contour>
      <point x="430" y="111" type="curve" smooth="yes"/>
      <point x="566" y="111"/>
      <point x="663" y="189"/>
      <point x="682" y="306" type="curve"/>
      <point x="715" y="306" type="line"/>
      <point x="715" y="328" type="line"/>
      <point x="597" y="328" type="line"/>
      <point x="597" y="306" type="line"/>
      <point x="635" y="306" type="line"/>
      <point x="620" y="215"/>
      <point x="538" y="155"/>
      <point x="430" y="155" type="curve" smooth="yes"/>
      <point x="322" y="155"/>
      <point x="241" y="217"/>
      <point x="226" y="306" type="curve"/>
      <point x="266" y="306" type="line"/>
      <point x="266" y="328" type="line"/>
      <point x="147" y="328" type="line"/>
      <point x="147" y="306" type="line"/>
      <point x="180" y="306" type="line"/>
      <point x="198" y="190"/>
      <point x="295" y="111"/>
    </contour>
    <contour>
      <point x="432" y="34" type="curve" smooth="yes"/>
      <point x="234" y="34"/>
      <point x="93" y="168"/>
      <point x="93" y="366" type="curve" smooth="yes"/>
      <point x="93" y="563"/>
      <point x="234" y="695"/>
      <point x="432" y="695" type="curve" smooth="yes"/>
      <point x="627" y="695"/>
      <point x="769" y="563"/>
      <point x="769" y="366" type="curve" smooth="yes"/>
      <point x="769" y="168"/>
      <point x="628" y="34"/>
    </contour>
    <contour>
      <point x="344" y="392" type="curve" smooth="yes"/>
      <point x="365" y="392"/>
      <point x="376" y="406"/>
      <point x="376" y="429" type="curve" smooth="yes"/>
      <point x="376" y="488" type="line" smooth="yes"/>
      <point x="376" y="511"/>
      <point x="365" y="525"/>
      <point x="344" y="525" type="curve" smooth="yes"/>
      <point x="323" y="525"/>
      <point x="312" y="511"/>
      <point x="312" y="488" type="curve" smooth="yes"/>
      <point x="312" y="429" type="line" smooth="yes"/>
      <point x="312" y="406"/>
      <point x="323" y="392"/>
    </contour>
    <contour>
      <point x="518" y="392" type="curve" smooth="yes"/>
      <point x="540" y="392"/>
      <point x="551" y="406"/>
      <point x="551" y="429" type="curve" smooth="yes"/>
      <point x="551" y="488" type="line" smooth="yes"/>
      <point x="551" y="511"/>
      <point x="540" y="525"/>
      <point x="518" y="525" type="curve" smooth="yes"/>
      <point x="498" y="525"/>
      <point x="487" y="511"/>
      <point x="487" y="488" type="curve" smooth="yes"/>
      <point x="487" y="429" type="line" smooth="yes"/>
      <point x="487" y="406"/>
      <point x="498" y="392"/>
    </contour>
  </outline>
</glyph>
<glyph name="checkmark" format="2">
  <advance width="815"/>
  <unicode hex="2713"/>
  <outline>
    <contour>
      <point x="258" y="116" type="line"/>
      <point x="761" y="551" type="line"/>
      <point x="713" y="608" type="line"/>
      <point x="265" y="221" type="line"/>
      <point x="108" y="428" type="line"/>
      <point x="54" y="379" type="line"/>
    </contour>
  </outline>
</glyph>
<glyph name="fi" format="2">
  <advance width="410"/>
  <unicode hex="FB01"/>
  <anchor x="205" y="0" name="caret_1"/>
  <outline>
    <contour>
      <point x="87" y="0" type="line"/>
      <point x="159" y="0" type="line"/>
      <point x="159" y="465" type="line"/>
      <point x="288" y="465" type="line"/>
      <point x="288" y="0" type="line"/>
      <point x="360" y="0" type="line"/>
      <point x="360" y="524" type="line"/>
      <point x="159" y="524" type="line"/>
      <point x="159" y="671" type="line"/>
      <point x="360" y="671" type="line"/>
      <point x="360" y="729" type="line"/>
      <point x="162" y="729" type="line" smooth="yes"/>
      <point x="111" y="729"/>
      <point x="87" y="704"/>
      <point x="87" y="662" type="curve" smooth="yes"/>
      <point x="87" y="524" type="line"/>
      <point x="23" y="524" type="line"/>
      <point x="23" y="465" type="line"/>
      <point x="87" y="465" type="line"/>
    </contour>
  </outline>
</glyph>
<glyph name="fl" format="2">
  <advance width="450"/>
  <unicode hex="FB02"/>
  <anchor x="225" y="0" name="caret_1"/>
  <outline>
    <contour>
      <point x="87" y="0" type="line"/>
      <point x="159" y="0" type="line"/>
      <point x="159" y="465" type="line"/>
      <point x="237" y="465" type="line"/>
      <point x="237" y="524" type="line"/>
      <point x="159" y="524" type="line"/>
      <point x="159" y="671" type="line"/>
      <point x="328" y="671" type="line"/>
      <point x="328" y="0" type="line"/>
      <point x="400" y="0" type="line"/>
      <point x="400" y="729" type="line"/>
      <point x="162" y="729" type="line" smooth="yes"/>
      <point x="111" y="729"/>
      <point x="87" y="704"/>
      <point x="87" y="662" type="curve" smooth="yes"/>
      <point x="87" y="524" type="line"/>
      <point x="23" y="524" type="line"/>
      <point x="23" y="465" type="line"/>
      <point x="87" y="465" type="line"/>
    </contour>
  </outline>
</glyph>
<glyph name="_AE.E" format="2">
  <advance width="364"/>
  <anchor x="124" y="0" name="#entry"/>
  <outline>
    <contour>
      <point x="40" y="666" type="line"/>
      <point x="324" y="666" type="line"/>
      <point x="324" y="729" type="line"/>
      <point x="40" y="729" type="line"/>
    </contour>
    <contour>
      <point x="124" y="0" type="line"/>
      <point x="329" y="0" type="line"/>
      <point x="329" y="63" type="line"/>
      <point x="124" y="63" type="line"/>
    </contour>
    <contour>
      <point x="112" y="344" type="line"/>
      <point x="261" y="344" type="line"/>
      <point x="261" y="406" type="line"/>
      <point x="112" y="406" type="line"/>
    </contour>
  </outline>
</glyph>
<glyph name="_Euro.bars" format="2">
  <advance width="334"/>
  <anchor x="262" y="0" name="_bottom"/>
  <outline>
    <contour>
      <point x="294" y="267" type="line"/>
      <point x="294" y="322" type="line"/>
      <point x="123" y="317" type="line"/>
      <point x="123" y="272" type="line"/>
    </contour>
    <contour>
      <point x="40" y="267" type="line"/>
      <point x="123" y="272" type="line"/>
      <point x="123" y="317" type="line"/>
      <point x="40" y="322" type="line"/>
    </contour>
    <contour>
      <point x="40" y="398" type="line"/>
      <point x="123" y="403" type="line"/>
      <point x="123" y="447" type="line"/>
      <point x="40" y="452" type="line"/>
    </contour>
    <contour>
      <point x="294" y="398" type="line"/>
      <point x="294" y="452" type="line"/>
      <point x="123" y="447" type="line"/>
      <point x="123" y="403" type="line"/>
    </contour>
  </outline>
</glyph>
<glyph name="_OE.O" format="2">
  <advance width="362"/>
  <anchor x="291" y="0" name="#exit"/>
  <outline>
    <contour>
      <point x="232" y="0" type="curve" smooth="yes"/>
      <point x="322" y="0" type="line"/>
      <point x="322" y="63" type="line"/>
      <point x="238" y="63" type="line" smooth="yes"/>
      <point x="149" y="63"/>
      <point x="124" y="126"/>
      <point x="124" y="234" type="curve" smooth="yes"/>
      <point x="124" y="495" type="line" smooth="yes"/>
      <point x="124" y="603"/>
      <point x="149" y="666"/>
      <point x="238" y="666" type="curve" smooth="yes"/>
      <point x="322" y="666" type="line"/>
      <point x="322" y="729" type="line"/>
      <point x="232" y="729" type="line" smooth="yes"/>
      <point x="112" y="729"/>
      <point x="50" y="661"/>
      <point x="50" y="490" type="curve" smooth="yes"/>
      <point x="50" y="239" type="line" smooth="yes"/>
      <point x="50" y="68"/>
      <point x="112" y="0"/>
    </contour>
  </outline>
</glyph>
<glyph name="_Stem.Uppercase" format="2">
  <advance width="216"/>
  <outline>
    <contour>
      <point x="71" y="0" type="line"/>
      <point x="144" y="0" type="line"/>
      <point x="144" y="729" type="line"/>
      <point x="71" y="729" type="line"/>
    </contour>
  </outline>
</glyph>
<glyph name="_bitcoin.bars" format="2">
  <advance width="234"/>
  <anchor x="127" y="0" name="_bottom"/>
  <outline>
    <contour>
      <point x="138" y="706" type="line"/>
      <point x="189" y="706" type="line"/>
      <point x="194" y="850" type="line"/>
      <point x="133" y="850" type="line"/>
    </contour>
    <contour>
      <point x="40" y="-121" type="line"/>
      <point x="101" y="-121" type="line"/>
      <point x="96" y="35" type="line"/>
      <point x="45" y="35" type="line"/>
    </contour>
    <contour>
      <point x="133" y="-121" type="line"/>
      <point x="194" y="-121" type="line"/>
      <point x="189" y="35" type="line"/>
      <point x="138" y="35" type="line"/>
    </contour>
    <contour>
      <point x="45" y="706" type="line"/>
      <point x="96" y="706" type="line"/>
      <point x="101" y="850" type="line"/>
      <point x="40" y="850" type="line"/>
    </contour>
  </outline>
</glyph>
<glyph name="_copyright.C" format="2">
  <advance width="346"/>
  <anchor x="180" y="365" name="_center"/>
  <outline>
    <contour>
      <point x="174" y="83" type="curve" smooth="yes"/>
      <point x="265" y="83"/>
      <point x="307" y="135"/>
      <point x="306" y="267" type="curve"/>
      <point x="243" y="267" type="line"/>
      <point x="245" y="174"/>
      <point x="229" y="135"/>
      <point x="173" y="135" type="curve" smooth="yes"/>
      <point x="131" y="135"/>
      <point x="104" y="155"/>
      <point x="104" y="232" type="curve" smooth="yes"/>
      <point x="104" y="497" type="line" smooth="yes"/>
      <point x="104" y="558"/>
      <point x="121" y="594"/>
      <point x="173" y="594" type="curve" smooth="yes"/>
      <point x="227" y="594"/>
      <point x="244" y="557"/>
      <point x="243" y="462" type="curve"/>
      <point x="306" y="462" type="line"/>
      <point x="307" y="592"/>
      <point x="267" y="646"/>
      <point x="174" y="646" type="curve" smooth="yes"/>
      <point x="91" y="646"/>
      <point x="40" y="607"/>
      <point x="40" y="487" type="curve" smooth="yes"/>
      <point x="40" y="242" type="line" smooth="yes"/>
      <point x="40" y="122"/>
      <point x="91" y="83"/>
    </contour>
  </outline>
</glyph>
<glyph name="_dollar.bar" format="2">
  <advance width="150"/>
  <anchor x="76" y="0" name="_bottom"/>
  <outline>
    <contour>
      <point x="40" y="-121" type="line"/>
      <point x="110" y="-121" type="line"/>
      <point x="100" y="8" type="line"/>
      <point x="50" y="8" type="line"/>
    </contour>
    <contour>
      <point x="50" y="716" type="line"/>
      <point x="100" y="716" type="line"/>
      <point x="110" y="850" type="line"/>
      <point x="40" y="850" type="line"/>
    </contour>
  </outline>
</glyph>
<glyph name="_published.P" format="2">
  <advance width="305"/>
  <anchor x="133" y="365" name="_center"/>
  <outline>
    <contour>
      <point x="40" y="92" type="line"/>
      <point x="97" y="92" type="line"/>
      <point x="97" y="591" type="line"/>
      <point x="129" y="591" type="line" smooth="yes"/>
      <point x="179" y="591"/>
      <point x="206" y="560"/>
      <point x="206" y="475" type="curve" smooth="yes"/>
      <point x="206" y="403"/>
      <point x="187" y="357"/>
      <point x="129" y="357" type="curve" smooth="yes"/>
      <point x="90" y="357" type="line"/>
      <point x="90" y="311" type="line"/>
      <point x="129" y="311" type="line" smooth="yes"/>
      <point x="221" y="311"/>
      <point x="265" y="368"/>
      <point x="265" y="473" type="curve" smooth="yes"/>
      <point x="265" y="579"/>
      <point x="221" y="637"/>
      <point x="129" y="637" type="curve" smooth="yes"/>
      <point x="40" y="637" type="line"/>
    </contour>
  </outline>
</glyph>
<glyph name="_tail.Q" format="2">
  <advance width="236"/>
  <anchor x="71" y="0" name="_bottom"/>
  <outline>
    <contour>
      <point x="98" y="-166" type="curve" smooth="yes"/>
      <point x="196" y="-166" type="line"/>
      <point x="196" y="-114" type="line"/>
      <point x="103" y="-114" type="line"/>
      <point x="103" y="12" type="line"/>
      <point x="40" y="12" type="line"/>
      <point x="40" y="-110" type="line" smooth="yes"/>
      <point x="40" y="-144"/>
      <point x="61" y="-166"/>
    </contour>
  </outline>
</glyph>
<glyph name="_yen.bars" format="2">
  <advance width="402"/>
  <anchor x="201" y="0" name="_bottom"/>
  <outline>
    <contour>
      <point x="40" y="278" type="line"/>
      <point x="362" y="278" type="line"/>
      <point x="362" y="336" type="line"/>
      <point x="40" y="336" type="line"/>
    </contour>
    <contour>
      <point x="40" y="138" type="line"/>
      <point x="362" y="138" type="line"/>
      <point x="362" y="196" type="line"/>
      <point x="40" y="196" type="line"/>
    </contour>
  </outline>
</glyph>
<glyph name="a.ss01" format="2">
  <advance width="404"/>
  <note>
a
</note>
  <anchor x="191" y="0" name="bottom"/>
  <anchor x="354" y="0" name="ogonek"/>
  <anchor x="204" y="524" name="top"/>
  <outline>
    <contour>
      <point x="158" y="-7" type="curve" smooth="yes"/>
      <point x="214" y="-7"/>
      <point x="260" y="26"/>
      <point x="277" y="77" type="curve"/>
      <point x="282" y="77" type="line"/>
      <point x="289" y="0" type="line"/>
      <point x="354" y="0" type="line"/>
      <point x="354" y="383" type="line" smooth="yes"/>
      <point x="354" y="485"/>
      <point x="292" y="531"/>
      <point x="204" y="531" type="curve" smooth="yes"/>
      <point x="106" y="531"/>
      <point x="45" y="470"/>
      <point x="44" y="371" type="curve"/>
      <point x="110" y="371" type="line"/>
      <point x="111" y="438"/>
      <point x="143" y="474"/>
      <point x="200" y="474" type="curve" smooth="yes"/>
      <point x="250" y="474"/>
      <point x="282" y="449"/>
      <point x="282" y="382" type="curve" smooth="yes"/>
      <point x="282" y="144" type="line"/>
      <point x="264" y="77"/>
      <point x="230" y="52"/>
      <point x="187" y="52" type="curve" smooth="yes"/>
      <point x="139" y="52"/>
      <point x="114" y="84"/>
      <point x="114" y="148" type="curve" smooth="yes"/>
      <point x="114" y="155" type="line" smooth="yes"/>
      <point x="114" y="229"/>
      <point x="151" y="265"/>
      <point x="226" y="265" type="curve" smooth="yes"/>
      <point x="294" y="265" type="line"/>
      <point x="294" y="317" type="line"/>
      <point x="216" y="317" type="line" smooth="yes"/>
      <point x="92" y="317"/>
      <point x="41" y="246"/>
      <point x="41" y="142" type="curve" smooth="yes"/>
      <point x="41" y="46"/>
      <point x="85" y="-7"/>
    </contour>
  </outline>
</glyph>
<glyph name="braceleft.case" format="2">
  <advance width="312"/>
  <outline>
    <contour>
      <point x="177" y="-63" type="curve" smooth="yes"/>
      <point x="278" y="-63" type="line"/>
      <point x="278" y="-6" type="line"/>
      <point x="181" y="-6" type="line"/>
      <point x="181" y="253" type="line" smooth="yes"/>
      <point x="181" y="312"/>
      <point x="152" y="355"/>
      <point x="106" y="364" type="curve"/>
      <point x="106" y="368" type="line"/>
      <point x="151" y="373"/>
      <point x="181" y="419"/>
      <point x="181" y="479" type="curve" smooth="yes"/>
      <point x="181" y="736" type="line"/>
      <point x="278" y="736" type="line"/>
      <point x="278" y="793" type="line"/>
      <point x="177" y="793" type="line" smooth="yes"/>
      <point x="133" y="793"/>
      <point x="113" y="766"/>
      <point x="113" y="727" type="curve" smooth="yes"/>
      <point x="113" y="478" type="line" smooth="yes"/>
      <point x="113" y="424"/>
      <point x="83" y="394"/>
      <point x="50" y="394" type="curve" smooth="yes"/>
      <point x="32" y="394" type="line"/>
      <point x="32" y="335" type="line"/>
      <point x="50" y="335" type="line" smooth="yes"/>
      <point x="83" y="335"/>
      <point x="113" y="306"/>
      <point x="113" y="252" type="curve" smooth="yes"/>
      <point x="113" y="3" type="line" smooth="yes"/>
      <point x="113" y="-36"/>
      <point x="133" y="-63"/>
    </contour>
  </outline>
</glyph>
<glyph name="bracketleft.case" format="2">
  <advance width="270"/>
  <outline>
    <contour>
      <point x="60" y="-63" type="line"/>
      <point x="236" y="-63" type="line"/>
      <point x="236" y="-6" type="line"/>
      <point x="129" y="-6" type="line"/>
      <point x="129" y="736" type="line"/>
      <point x="236" y="736" type="line"/>
      <point x="236" y="793" type="line"/>
      <point x="60" y="793" type="line"/>
    </contour>
  </outline>
</glyph>
<glyph name="brevecomb_acutecomb" format="2">
  <anchor x="144" y="524" name="_top"/>
  <outline>
    <contour>
      <point x="144" y="571" type="curve" smooth="yes"/>
      <point x="209" y="571"/>
      <point x="247" y="619"/>
      <point x="247" y="711" type="curve"/>
      <point x="194" y="711" type="line"/>
      <point x="194" y="649"/>
      <point x="177" y="616"/>
      <point x="144" y="616" type="curve" smooth="yes"/>
      <point x="112" y="616"/>
      <point x="94" y="646"/>
      <point x="94" y="711" type="curve"/>
      <point x="40" y="711" type="line"/>
      <point x="40" y="622"/>
      <point x="74" y="571"/>
    </contour>
    <contour>
      <point x="114" y="738" type="line"/>
      <point x="173" y="738" type="line"/>
      <point x="234" y="843" type="line"/>
      <point x="170" y="843" type="line"/>
    </contour>
  </outline>
</glyph>
<glyph name="brevecomb_gravecomb" format="2">
  <anchor x="143" y="524" name="_top"/>
  <outline>
    <contour>
      <point x="143" y="571" type="curve" smooth="yes"/>
      <point x="213" y="571"/>
      <point x="247" y="622"/>
      <point x="247" y="711" type="curve"/>
      <point x="193" y="711" type="line"/>
      <point x="193" y="646"/>
      <point x="175" y="616"/>
      <point x="143" y="616" type="curve" smooth="yes"/>
      <point x="110" y="616"/>
      <point x="93" y="649"/>
      <point x="93" y="711" type="curve"/>
      <point x="40" y="711" type="line"/>
      <point x="40" y="619"/>
      <point x="78" y="571"/>
    </contour>
    <contour>
      <point x="114" y="738" type="line"/>
      <point x="173" y="738" type="line"/>
      <point x="117" y="843" type="line"/>
      <point x="53" y="843" type="line"/>
    </contour>
  </outline>
</glyph>
<glyph name="brevecomb_hookabovecomb" format="2">
  <anchor x="144" y="524" name="_top"/>
  <outline>
    <contour>
      <point x="144" y="571" type="curve" smooth="yes"/>
      <point x="209" y="571"/>
      <point x="247" y="619"/>
      <point x="247" y="711" type="curve"/>
      <point x="194" y="711" type="line"/>
      <point x="195" y="649"/>
      <point x="178" y="616"/>
      <point x="144" y="616" type="curve" smooth="yes"/>
      <point x="112" y="616"/>
      <point x="94" y="646"/>
      <point x="94" y="711" type="curve"/>
      <point x="40" y="711" type="line"/>
      <point x="41" y="622"/>
      <point x="75" y="571"/>
    </contour>
    <contour>
      <point x="138" y="710" type="line"/>
      <point x="183" y="730"/>
      <point x="205" y="755"/>
      <point x="205" y="784" type="curve" smooth="yes"/>
      <point x="205" y="819"/>
      <point x="176" y="839"/>
      <point x="137" y="839" type="curve" smooth="yes"/>
      <point x="123" y="839"/>
      <point x="103" y="836"/>
      <point x="88" y="830" type="curve"/>
      <point x="88" y="796" type="line"/>
      <point x="96" y="800"/>
      <point x="108" y="802"/>
      <point x="117" y="802" type="curve" smooth="yes"/>
      <point x="134" y="802"/>
      <point x="147" y="793"/>
      <point x="147" y="777" type="curve" smooth="yes"/>
      <point x="147" y="760"/>
      <point x="137" y="750"/>
      <point x="118" y="737" type="curve"/>
    </contour>
  </outline>
</glyph>
<glyph name="brevecomb_tildecomb" format="2">
  <anchor x="157" y="524" name="_top"/>
  <outline>
    <contour>
      <point x="157" y="571" type="curve" smooth="yes"/>
      <point x="222" y="571"/>
      <point x="260" y="618"/>
      <point x="260" y="711" type="curve"/>
      <point x="207" y="711" type="line"/>
      <point x="207" y="650"/>
      <point x="190" y="616"/>
      <point x="157" y="616" type="curve" smooth="yes"/>
      <point x="124" y="616"/>
      <point x="107" y="646"/>
      <point x="107" y="711" type="curve"/>
      <point x="53" y="711" type="line"/>
      <point x="53" y="622"/>
      <point x="87" y="571"/>
    </contour>
    <contour>
      <point x="208" y="740" type="curve" smooth="yes"/>
      <point x="248" y="740"/>
      <point x="275" y="767"/>
      <point x="272" y="822" type="curve"/>
      <point x="238" y="822" type="line"/>
      <point x="238" y="800"/>
      <point x="229" y="790"/>
      <point x="209" y="790" type="curve" smooth="yes"/>
      <point x="177" y="790"/>
      <point x="143" y="821"/>
      <point x="102" y="821" type="curve" smooth="yes"/>
      <point x="61" y="821"/>
      <point x="38" y="790"/>
      <point x="40" y="739" type="curve"/>
      <point x="75" y="739" type="line"/>
      <point x="75" y="758"/>
      <point x="81" y="772"/>
      <point x="101" y="772" type="curve" smooth="yes"/>
      <point x="131" y="772"/>
      <point x="166" y="740"/>
    </contour>
  </outline>
</glyph>
<glyph name="caroncomb.alt.t" format="2">
  <anchor x="-38" y="630" name="_topright"/>
  <outline>
    <contour>
      <point x="40" y="523" type="line"/>
      <point x="100" y="523" type="line"/>
      <point x="129" y="681" type="line"/>
      <point x="67" y="681" type="line"/>
    </contour>
  </outline>
</glyph>
<glyph name="circumflexcomb_acutecomb" format="2">
  <anchor x="151" y="524" name="_top"/>
  <outline>
    <contour>
      <point x="40" y="571" type="line"/>
      <point x="105" y="571" type="line"/>
      <point x="150" y="660" type="line"/>
      <point x="196" y="571" type="line"/>
      <point x="261" y="571" type="line"/>
      <point x="188" y="705" type="line"/>
      <point x="113" y="705" type="line"/>
    </contour>
    <contour>
      <point x="122" y="749" type="line"/>
      <point x="186" y="749" type="line"/>
      <point x="239" y="843" type="line"/>
      <point x="171" y="843" type="line"/>
    </contour>
  </outline>
</glyph>
<glyph name="circumflexcomb_gravecomb" format="2">
  <anchor x="151" y="524" name="_top"/>
  <outline>
    <contour>
      <point x="40" y="571" type="line"/>
      <point x="105" y="571" type="line"/>
      <point x="151" y="660" type="line"/>
      <point x="196" y="571" type="line"/>
      <point x="261" y="571" type="line"/>
      <point x="188" y="705" type="line"/>
      <point x="113" y="705" type="line"/>
    </contour>
    <contour>
      <point x="115" y="749" type="line"/>
      <point x="179" y="749" type="line"/>
      <point x="130" y="843" type="line"/>
      <point x="62" y="843" type="line"/>
    </contour>
  </outline>
</glyph>
<glyph name="circumflexcomb_hookabovecomb" format="2">
  <anchor x="151" y="524" name="_top"/>
  <anchor x="151" y="846" name="top"/>
  <outline>
    <contour>
      <point x="40" y="571" type="line"/>
      <point x="105" y="571" type="line"/>
      <point x="151" y="660" type="line"/>
      <point x="196" y="571" type="line"/>
      <point x="261" y="571" type="line"/>
      <point x="188" y="705" type="line"/>
      <point x="113" y="705" type="line"/>
    </contour>
    <contour>
      <point x="244" y="659" type="line"/>
      <point x="292" y="695"/>
      <point x="314" y="732"/>
      <point x="314" y="773" type="curve" smooth="yes"/>
      <point x="314" y="819"/>
      <point x="281" y="846"/>
      <point x="237" y="846" type="curve" smooth="yes"/>
      <point x="224" y="846"/>
      <point x="208" y="843"/>
      <point x="196" y="838" type="curve"/>
      <point x="196" y="800" type="line"/>
      <point x="203" y="803"/>
      <point x="213" y="805"/>
      <point x="225" y="805" type="curve" smooth="yes"/>
      <point x="249" y="805"/>
      <point x="264" y="791"/>
      <point x="264" y="767" type="curve" smooth="yes"/>
      <point x="264" y="742"/>
      <point x="253" y="720"/>
      <point x="223" y="693" type="curve"/>
    </contour>
  </outline>
</glyph>
<glyph name="circumflexcomb_tildecomb" format="2">
  <anchor x="157" y="524" name="_top"/>
  <anchor x="157" y="829" name="top"/>
  <outline>
    <contour>
      <point x="46" y="571" type="line"/>
      <point x="111" y="571" type="line"/>
      <point x="157" y="660" type="line"/>
      <point x="202" y="571" type="line"/>
      <point x="267" y="571" type="line"/>
      <point x="194" y="705" type="line"/>
      <point x="119" y="705" type="line"/>
    </contour>
    <contour>
      <point x="208" y="740" type="curve" smooth="yes"/>
      <point x="248" y="740"/>
      <point x="275" y="767"/>
      <point x="272" y="822" type="curve"/>
      <point x="238" y="822" type="line"/>
      <point x="238" y="800"/>
      <point x="229" y="790"/>
      <point x="209" y="790" type="curve" smooth="yes"/>
      <point x="177" y="790"/>
      <point x="143" y="821"/>
      <point x="102" y="821" type="curve" smooth="yes"/>
      <point x="61" y="821"/>
      <point x="38" y="790"/>
      <point x="40" y="739" type="curve"/>
      <point x="75" y="739" type="line"/>
      <point x="75" y="758"/>
      <point x="81" y="772"/>
      <point x="101" y="772" type="curve" smooth="yes"/>
      <point x="131" y="772"/>
      <point x="166" y="740"/>
    </contour>
  </outline>
</glyph>
<glyph name="comma.ss01" format="2">
  <advance width="171"/>
  <anchor x="-5" y="0" name="#entry"/>
  <anchor x="165" y="0" name="#exit"/>
  <anchor x="84" y="524" name="top"/>
  <outline>
    <contour>
      <point x="24" y="-149" type="line"/>
      <point x="78" y="-149" type="line"/>
      <point x="129" y="-7" type="line" smooth="yes"/>
      <point x="138" y="18"/>
      <point x="143" y="33"/>
      <point x="143" y="50" type="curve" smooth="yes"/>
      <point x="143" y="83"/>
      <point x="116" y="105"/>
      <point x="84" y="105" type="curve" smooth="yes"/>
      <point x="52" y="105"/>
      <point x="25" y="83"/>
      <point x="25" y="50" type="curve" smooth="yes"/>
      <point x="25" y="2"/>
      <point x="72" y="-3"/>
      <point x="83" y="0" type="curve"/>
      <point x="82" y="12" type="line"/>
    </contour>
  </outline>
</glyph>
<glyph name="dieresiscomb.ss01" format="2">
  <anchor x="155" y="524" name="_top"/>
  <outline>
    <contour>
      <point x="220" y="617" type="curve" smooth="yes"/>
      <point x="248" y="617"/>
      <point x="270" y="637"/>
      <point x="270" y="665" type="curve" smooth="yes"/>
      <point x="270" y="693"/>
      <point x="247" y="713"/>
      <point x="220" y="713" type="curve" smooth="yes"/>
      <point x="193" y="713"/>
      <point x="170" y="693"/>
      <point x="170" y="665" type="curve" smooth="yes"/>
      <point x="170" y="637"/>
      <point x="192" y="617"/>
    </contour>
    <contour>
      <point x="90" y="617" type="curve" smooth="yes"/>
      <point x="118" y="617"/>
      <point x="140" y="637"/>
      <point x="140" y="665" type="curve" smooth="yes"/>
      <point x="140" y="693"/>
      <point x="117" y="713"/>
      <point x="90" y="713" type="curve" smooth="yes"/>
      <point x="63" y="713"/>
      <point x="40" y="693"/>
      <point x="40" y="665" type="curve" smooth="yes"/>
      <point x="40" y="637"/>
      <point x="62" y="617"/>
    </contour>
  </outline>
</glyph>
